AnekMalayalam-ExpandedExtraBold.ufo
<glyph name="numbersign" format="2">
  <advance width="1456"/>
  <unicode hex="0023"/>
  <outline>
    <contour>
      <point x="500" y="0" type="line"/>
      <point x="710" y="1278" type="line"/>
      <point x="404" y="1278" type="line"/>
      <point x="194" y="0" type="line"/>
    </contour>
    <contour>
      <point x="1329" y="240" type="line"/>
      <point x="1329" y="505" type="line"/>
      <point x="52" y="505" type="line"/>
      <point x="52" y="240" type="line"/>
    </contour>
    <contour>
      <point x="1069" y="0" type="line"/>
      <point x="1269" y="1278" type="line"/>
      <point x="961" y="1278" type="line"/>
      <point x="761" y="0" type="line"/>
    </contour>
    <contour>
      <point x="1404" y="764" type="line"/>
      <point x="1404" y="1029" type="line"/>
      <point x="127" y="1029" type="line"/>
      <point x="127" y="764" type="line"/>
    </contour>
  </outline>
</glyph>
<glyph name="dollar" format="2">
  <advance width="1467"/>
  <unicode hex="0024"/>
  <outline>
    <component base="S"/>
    <contour>
      <point x="887" y="1514" type="line"/>
      <point x="559" y="1514" type="line"/>
      <point x="559" y="1112" type="line"/>
      <point x="887" y="1112" type="line"/>
    </contour>
    <contour>
      <point x="887" y="141" type="line"/>
      <point x="559" y="141" type="line"/>
      <point x="559" y="-235" type="line"/>
      <point x="887" y="-235" type="line"/>
    </contour>
  </outline>
</glyph>
<glyph name="i" format="2">
  <advance width="632"/>
  <unicode hex="0069"/>
  <anchor x="316" y="0" name="bottom"/>
  <anchor x="555" y="10" name="ogonek"/>
  <outline>
    <contour>
      <point x="514" y="0" type="line"/>
      <point x="514" y="963" type="line"/>
      <point x="118" y="963" type="line"/>
      <point x="118" y="0" type="line"/>
    </contour>
    <contour>
      <point x="316" y="1050" type="curve" smooth="yes"/>
      <point x="460" y="1050"/>
      <point x="524" y="1113"/>
      <point x="524" y="1220" type="curve" smooth="yes"/>
      <point x="524" y="1225" type="line" smooth="yes"/>
      <point x="524" y="1329"/>
      <point x="460" y="1395"/>
      <point x="316" y="1395" type="curve" smooth="yes"/>
      <point x="170" y="1395"/>
      <point x="108" y="1328"/>
      <point x="108" y="1225" type="curve" smooth="yes"/>
      <point x="108" y="1220" type="line" smooth="yes"/>
      <point x="108" y="1116"/>
      <point x="170" y="1050"/>
    </contour>
  </outline>
</glyph>
<glyph name="x" format="2">
  <advance width="1376"/>
  <unicode hex="0078"/>
  <anchor x="688" y="0" name="bottom"/>
  <anchor x="688" y="963" name="top"/>
  <outline>
    <contour>
      <point x="460" y="0" type="line"/>
      <point x="675" y="312" type="line"/>
      <point x="700" y="312" type="line"/>
      <point x="916" y="0" type="line"/>
      <point x="1370" y="0" type="line"/>
      <point x="969" y="546" type="line"/>
      <point x="969" y="452" type="line"/>
      <point x="1356" y="963" type="line"/>
      <point x="905" y="963" type="line"/>
      <point x="700" y="668" type="line"/>
      <point x="675" y="668" type="line"/>
      <point x="471" y="963" type="line"/>
      <point x="20" y="963" type="line"/>
      <point x="407" y="452" type="line"/>
      <point x="407" y="548" type="line"/>
      <point x="6" y="0" type="line"/>
    </contour>
  </outline>
</glyph>
<glyph name="braceright" format="2">
  <advance width="831"/>
  <unicode hex="007D"/>
  <outline>
    <contour>
      <point x="60" y="1326" type="line"/>
      <point x="112" y="1340"/>
      <point x="190" y="1353"/>
      <point x="270" y="1353" type="curve" smooth="yes"/>
      <point x="516" y="1353"/>
      <point x="631" y="1260"/>
      <point x="631" y="1027" type="curve" smooth="yes"/>
      <point x="631" y="967"/>
      <point x="619" y="854"/>
      <point x="619" y="796" type="curve" smooth="yes"/>
      <point x="619" y="724"/>
      <point x="656" y="687"/>
      <point x="763" y="685" type="curve"/>
      <point x="763" y="397" type="line"/>
      <point x="656" y="395"/>
      <point x="619" y="360"/>
      <point x="619" y="288" type="curve" smooth="yes"/>
      <point x="619" y="230"/>
      <point x="631" y="117"/>
      <point x="631" y="57" type="curve" smooth="yes"/>
      <point x="631" y="-178"/>
      <point x="516" y="-272"/>
      <point x="270" y="-272" type="curve" smooth="yes"/>
      <point x="190" y="-272"/>
      <point x="112" y="-260"/>
      <point x="60" y="-246" type="curve"/>
      <point x="60" y="16" type="line"/>
      <point x="85" y="11"/>
      <point x="115" y="5"/>
      <point x="151" y="5" type="curve" smooth="yes"/>
      <point x="238" y="5"/>
      <point x="275" y="34"/>
      <point x="275" y="109" type="curve" smooth="yes"/>
      <point x="275" y="167"/>
      <point x="263" y="265"/>
      <point x="263" y="331" type="curve" smooth="yes"/>
      <point x="263" y="442"/>
      <point x="310" y="518"/>
      <point x="457" y="537" type="curve"/>
      <point x="450" y="505" type="line"/>
      <point x="450" y="548" type="line"/>
      <point x="309" y="568"/>
      <point x="263" y="643"/>
      <point x="263" y="753" type="curve" smooth="yes"/>
      <point x="263" y="819"/>
      <point x="275" y="917"/>
      <point x="275" y="975" type="curve" smooth="yes"/>
      <point x="275" y="1050"/>
      <point x="240" y="1079"/>
      <point x="158" y="1079" type="curve" smooth="yes"/>
      <point x="119" y="1079"/>
      <point x="87" y="1073"/>
      <point x="60" y="1068" type="curve"/>
    </contour>
  </outline>
</glyph>
<glyph name="brokenbar" format="2">
  <advance width="628"/>
  <unicode hex="00A6"/>
  <outline>
    <contour>
      <point x="478" y="1415" type="line"/>
      <point x="150" y="1415" type="line"/>
      <point x="150" y="575" type="line"/>
      <point x="478" y="575" type="line"/>
    </contour>
    <contour>
      <point x="478" y="415" type="line"/>
      <point x="150" y="415" type="line"/>
      <point x="150" y="-425" type="line"/>
      <point x="478" y="-425" type="line"/>
    </contour>
  </outline>
</glyph>
<glyph name="section" format="2">
  <advance width="1279"/>
  <unicode hex="00A7"/>
  <outline>
    <contour>
      <point x="967" y="438" type="line"/>
      <point x="967" y="506" type="line"/>
      <point x="1114" y="506"/>
      <point x="1191" y="577"/>
      <point x="1191" y="689" type="curve"/>
      <point x="1191" y="689" type="line"/>
      <point x="1191" y="862"/>
      <point x="1037" y="900"/>
      <point x="687" y="928" type="curve" smooth="yes"/>
      <point x="477" y="945"/>
      <point x="463" y="953"/>
      <point x="463" y="991" type="curve"/>
      <point x="463" y="991" type="line"/>
      <point x="463" y="1021"/>
      <point x="488" y="1037"/>
      <point x="641" y="1037" type="curve" smooth="yes"/>
      <point x="810" y="1037"/>
      <point x="987" y="1006"/>
      <point x="1128" y="957" type="curve"/>
      <point x="1089" y="1238" type="line"/>
      <point x="967" y="1282"/>
      <point x="801" y="1314"/>
      <point x="602" y="1314" type="curve" smooth="yes"/>
      <point x="261" y="1314"/>
      <point x="86" y="1217"/>
      <point x="86" y="996" type="curve"/>
      <point x="86" y="991" type="line"/>
      <point x="86" y="754"/>
      <point x="224" y="712"/>
      <point x="563" y="672" type="curve" smooth="yes"/>
      <point x="744" y="651"/>
      <point x="801" y="658"/>
      <point x="801" y="588" type="curve"/>
      <point x="801" y="588" type="line"/>
      <point x="801" y="554"/>
      <point x="769" y="531"/>
      <point x="708" y="496" type="curve"/>
    </contour>
    <contour>
      <point x="285" y="766" type="line"/>
      <point x="285" y="711" type="line"/>
      <point x="181" y="698"/>
      <point x="86" y="653"/>
      <point x="86" y="526" type="curve"/>
      <point x="86" y="521" type="line"/>
      <point x="86" y="370"/>
      <point x="199" y="308"/>
      <point x="563" y="282" type="curve" smooth="yes"/>
      <point x="744" y="269"/>
      <point x="801" y="271"/>
      <point x="801" y="218" type="curve"/>
      <point x="801" y="218" type="line"/>
      <point x="801" y="173"/>
      <point x="751" y="163"/>
      <point x="611" y="163" type="curve" smooth="yes"/>
      <point x="420" y="163"/>
      <point x="233" y="211"/>
      <point x="94" y="261" type="curve"/>
      <point x="134" y="-42" type="line"/>
      <point x="260" y="-87"/>
      <point x="433" y="-122"/>
      <point x="636" y="-122" type="curve" smooth="yes"/>
      <point x="1013" y="-122"/>
      <point x="1191" y="-22"/>
      <point x="1191" y="229" type="curve"/>
      <point x="1191" y="229" type="line"/>
      <point x="1191" y="453"/>
      <point x="1038" y="509"/>
      <point x="687" y="538" type="curve" smooth="yes"/>
      <point x="484" y="555"/>
      <point x="463" y="577"/>
      <point x="463" y="621" type="curve"/>
      <point x="463" y="621" type="line"/>
      <point x="463" y="655"/>
      <point x="488" y="678"/>
      <point x="572" y="721" type="curve"/>
    </contour>
  </outline>
</glyph>
<glyph name="ordfeminine" format="2">
  <advance width="842"/>
  <unicode hex="00AA"/>
  <outline>
    <contour>
      <point x="770" y="639" type="line"/>
      <point x="770" y="994" type="line" smooth="yes"/>
      <point x="770" y="1132"/>
      <point x="725" y="1292"/>
      <point x="412" y="1292" type="curve" smooth="yes"/>
      <point x="295" y="1292"/>
      <point x="192" y="1272"/>
      <point x="108" y="1240" type="curve"/>
      <point x="82" y="1047" type="line"/>
      <point x="174" y="1075"/>
      <point x="265" y="1098"/>
      <point x="362" y="1098" type="curve" smooth="yes"/>
      <point x="475" y="1098"/>
      <point x="510" y="1075"/>
      <point x="510" y="1030" type="curve"/>
      <point x="513" y="953" type="line"/>
      <point x="513" y="819" type="line"/>
      <point x="514" y="790" type="line"/>
      <point x="505" y="639" type="line"/>
    </contour>
    <contour>
      <point x="267" y="620" type="curve" smooth="yes"/>
      <point x="423" y="620"/>
      <point x="479" y="680"/>
      <point x="504" y="765" type="curve"/>
      <point x="561" y="765" type="line"/>
      <point x="515" y="853" type="line"/>
      <point x="489" y="830"/>
      <point x="435" y="807"/>
      <point x="376" y="807" type="curve" smooth="yes"/>
      <point x="329" y="807"/>
      <point x="311" y="824"/>
      <point x="311" y="848" type="curve"/>
      <point x="311" y="850" type="line"/>
      <point x="311" y="871"/>
      <point x="325" y="886"/>
      <point x="368" y="891" type="curve" smooth="yes"/>
      <point x="533" y="908" type="line"/>
      <point x="527" y="1038" type="line"/>
      <point x="323" y="1021" type="line" smooth="yes"/>
      <point x="162" y="1007"/>
      <point x="45" y="964"/>
      <point x="45" y="816" type="curve"/>
      <point x="45" y="809" type="line"/>
      <point x="45" y="694"/>
      <point x="123" y="620"/>
    </contour>
  </outline>
</glyph>
<glyph name="threesuperior" format="2">
  <advance width="825"/>
  <unicode hex="00B3"/>
  <outline>
    <contour>
      <point x="392" y="723" type="curve" smooth="yes"/>
      <point x="662" y="723"/>
      <point x="790" y="801"/>
      <point x="790" y="931" type="curve" smooth="yes"/>
      <point x="790" y="939" type="line" smooth="yes"/>
      <point x="790" y="1033"/>
      <point x="740" y="1089"/>
      <point x="594" y="1101" type="curve"/>
      <point x="615" y="1080" type="line"/>
      <point x="615" y="1107" type="line"/>
      <point x="739" y="1115"/>
      <point x="785" y="1172"/>
      <point x="785" y="1254" type="curve" smooth="yes"/>
      <point x="785" y="1260" type="line" smooth="yes"/>
      <point x="785" y="1390"/>
      <point x="655" y="1450"/>
      <point x="397" y="1450" type="curve" smooth="yes"/>
      <point x="262" y="1450"/>
      <point x="145" y="1431"/>
      <point x="59" y="1405" type="curve"/>
      <point x="38" y="1212" type="line"/>
      <point x="110" y="1228"/>
      <point x="229" y="1251"/>
      <point x="358" y="1251" type="curve" smooth="yes"/>
      <point x="461" y="1251"/>
      <point x="497" y="1242"/>
      <point x="497" y="1213" type="curve"/>
      <point x="497" y="1212" type="line"/>
      <point x="497" y="1187"/>
      <point x="477" y="1175"/>
      <point x="416" y="1174" type="curve" smooth="yes"/>
      <point x="156" y="1168" type="line"/>
      <point x="156" y="1009" type="line"/>
      <point x="417" y="1003" type="line" smooth="yes"/>
      <point x="479" y="1002"/>
      <point x="499" y="993"/>
      <point x="499" y="968" type="curve"/>
      <point x="499" y="966" type="line"/>
      <point x="499" y="938"/>
      <point x="470" y="923"/>
      <point x="338" y="923" type="curve" smooth="yes"/>
      <point x="229" y="923"/>
      <point x="115" y="942"/>
      <point x="33" y="964" type="curve"/>
      <point x="54" y="761" type="line"/>
      <point x="129" y="743"/>
      <point x="247" y="723"/>
    </contour>
  </outline>
</glyph>
<glyph name="Eth" format="2">
  <advance width="1654"/>
  <unicode hex="00D0"/>
  <outline>
    <component base="D"/>
    <contour>
      <point x="862" y="546" type="line"/>
      <point x="862" y="736" type="line"/>
      <point x="1" y="738" type="line"/>
      <point x="1" y="547" type="line"/>
    </contour>
  </outline>
</glyph>
<glyph name="vowelU.mlm" format="2">
  <advance width="1787"/>
  <unicode hex="0D09"/>
  <outline>
    <contour>
      <point x="878" y="1197" type="curve" smooth="yes"/>
      <point x="353" y="1197"/>
      <point x="88" y="998"/>
      <point x="88" y="639" type="curve" smooth="yes"/>
      <point x="88" y="620" type="line" smooth="yes"/>
      <point x="88" y="362"/>
      <point x="235.934" y="224"/>
      <point x="563" y="224" type="curve" smooth="yes"/>
      <point x="902.59" y="224"/>
      <point x="1036" y="342"/>
      <point x="1036" y="542" type="curve" smooth="yes"/>
      <point x="1036" y="549" type="line" smooth="yes"/>
      <point x="1036" y="723"/>
      <point x="931.365" y="834"/>
      <point x="716" y="834" type="curve" smooth="yes"/>
      <point x="539" y="834"/>
      <point x="444" y="761"/>
      <point x="422" y="646" type="curve"/>
      <point x="432" y="540" type="line"/>
      <point x="460.583" y="572"/>
      <point x="504.935" y="590"/>
      <point x="569" y="590" type="curve" smooth="yes"/>
      <point x="645.721" y="590"/>
      <point x="689" y="567"/>
      <point x="689" y="524" type="curve" smooth="yes"/>
      <point x="689" y="521" type="line" smooth="yes"/>
      <point x="689" y="477"/>
      <point x="645.721" y="452"/>
      <point x="569" y="452" type="curve" smooth="yes"/>
      <point x="476.372" y="452"/>
      <point x="434" y="486"/>
      <point x="434" y="544" type="curve" smooth="yes"/>
      <point x="434" y="579" type="line"/>
      <point x="434" y="656" type="line"/>
      <point x="413" y="656" type="line"/>
      <point x="413" y="658" type="line"/>
      <point x="413" y="825"/>
      <point x="571.926" y="906"/>
      <point x="857" y="906" type="curve" smooth="yes"/>
      <point x="1155" y="906"/>
      <point x="1321" y="802"/>
      <point x="1321" y="581" type="curve" smooth="yes"/>
      <point x="1321" y="565" type="line" smooth="yes"/>
      <point x="1321" y="360"/>
      <point x="1210" y="268"/>
      <point x="946" y="268" type="curve" smooth="yes"/>
      <point x="521" y="268" type="line" smooth="yes"/>
      <point x="231" y="268"/>
      <point x="88" y="148"/>
      <point x="88" y="-70" type="curve" smooth="yes"/>
      <point x="88" y="-294"/>
      <point x="231" y="-415"/>
      <point x="521" y="-415" type="curve" smooth="yes"/>
      <point x="1634" y="-415" type="line"/>
      <point x="1682" y="-141" type="line"/>
      <point x="553" y="-141" type="line" smooth="yes"/>
      <point x="490" y="-141"/>
      <point x="458" y="-119"/>
      <point x="458" y="-70" type="curve" smooth="yes"/>
      <point x="458" y="-21"/>
      <point x="490" y="0"/>
      <point x="553" y="0" type="curve" smooth="yes"/>
      <point x="1017" y="0" type="line" smooth="yes"/>
      <point x="1466" y="0"/>
      <point x="1697" y="190"/>
      <point x="1697" y="570" type="curve" smooth="yes"/>
      <point x="1697" y="583" type="line" smooth="yes"/>
      <point x="1697" y="979"/>
      <point x="1420" y="1197"/>
    </contour>
  </outline>
</glyph>
<glyph name="vowelRu.mlm" format="2">
  <advance width="2112"/>
  <unicode hex="0D0B"/>
  <outline>
    <contour>
      <point x="565" y="1184" type="curve" smooth="yes"/>
      <point x="221" y="1184"/>
      <point x="70" y="1016"/>
      <point x="70" y="737" type="curve" smooth="yes"/>
      <point x="70" y="720" type="line" smooth="yes"/>
      <point x="70" y="421"/>
      <point x="260" y="250"/>
      <point x="489" y="218" type="curve" smooth="yes"/>
      <point x="534" y="212"/>
      <point x="572" y="182"/>
      <point x="614" y="169" type="curve"/>
      <point x="952" y="392" type="line"/>
      <point x="589" y="392"/>
      <point x="405" y="493"/>
      <point x="405" y="669" type="curve" smooth="yes"/>
      <point x="405" y="674" type="line"/>
      <point x="426" y="674" type="line"/>
      <point x="426" y="744" type="line"/>
      <point x="426" y="787" type="line" smooth="yes"/>
      <point x="426" y="866"/>
      <point x="469" y="919"/>
      <point x="558" y="919" type="curve" smooth="yes"/>
      <point x="630" y="919"/>
      <point x="672" y="885"/>
      <point x="672" y="827" type="curve" smooth="yes"/>
      <point x="672" y="824" type="line" smooth="yes"/>
      <point x="672" y="771"/>
      <point x="631" y="739"/>
      <point x="563" y="739" type="curve" smooth="yes"/>
      <point x="497" y="739"/>
      <point x="453" y="759"/>
      <point x="424" y="794" type="curve"/>
      <point x="414" y="681" type="line"/>
      <point x="437" y="585"/>
      <point x="537" y="517"/>
      <point x="695" y="517" type="curve" smooth="yes"/>
      <point x="900" y="517"/>
      <point x="1007" y="630"/>
      <point x="1007" y="822" type="curve" smooth="yes"/>
      <point x="1007" y="832" type="line" smooth="yes"/>
      <point x="1007" y="1057"/>
      <point x="860" y="1184"/>
    </contour>
    <contour>
      <point x="1162" y="-431" type="line" smooth="yes"/>
      <point x="1623" y="-431"/>
      <point x="1864" y="-306"/>
      <point x="1864" y="-72" type="curve" smooth="yes"/>
      <point x="1864" y="85"/>
      <point x="1780" y="173"/>
      <point x="1623" y="208" type="curve"/>
      <point x="1623" y="245" type="line"/>
      <point x="1250" y="392" type="line"/>
      <point x="862" y="392" type="line"/>
      <point x="489" y="245" type="line"/>
      <point x="489" y="208" type="line"/>
      <point x="332" y="173"/>
      <point x="248" y="85"/>
      <point x="248" y="-72" type="curve" smooth="yes"/>
      <point x="248" y="-306"/>
      <point x="489" y="-431"/>
      <point x="950" y="-431" type="curve" smooth="yes"/>
    </contour>
    <contour>
      <point x="1144" y="114" type="line" smooth="yes"/>
      <point x="1392" y="114"/>
      <point x="1503" y="71"/>
      <point x="1503" y="-19" type="curve" smooth="yes"/>
      <point x="1503" y="-109"/>
      <point x="1392" y="-153"/>
      <point x="1144" y="-153" type="curve" smooth="yes"/>
      <point x="968" y="-153" type="line" smooth="yes"/>
      <point x="720" y="-153"/>
      <point x="609" y="-109"/>
      <point x="609" y="-19" type="curve" smooth="yes"/>
      <point x="609" y="71"/>
      <point x="720" y="114"/>
      <point x="968" y="114" type="curve" smooth="yes"/>
    </contour>
    <contour>
      <point x="1707" y="669" type="line" smooth="yes"/>
      <point x="1707" y="493"/>
      <point x="1523" y="392"/>
      <point x="1160" y="392" type="curve"/>
      <point x="1498" y="169" type="line"/>
      <point x="1540" y="182"/>
      <point x="1578" y="212"/>
      <point x="1623" y="218" type="curve" smooth="yes"/>
      <point x="1852" y="250"/>
      <point x="2042" y="421"/>
      <point x="2042" y="720" type="curve" smooth="yes"/>
      <point x="2042" y="737" type="line" smooth="yes"/>
      <point x="2042" y="1016"/>
      <point x="1891" y="1184"/>
      <point x="1547" y="1184" type="curve" smooth="yes"/>
      <point x="1252" y="1184"/>
      <point x="1105" y="1057"/>
      <point x="1105" y="832" type="curve" smooth="yes"/>
      <point x="1105" y="822" type="line" smooth="yes"/>
      <point x="1105" y="630"/>
      <point x="1212" y="517"/>
      <point x="1417" y="517" type="curve" smooth="yes"/>
      <point x="1575" y="517"/>
      <point x="1675" y="585"/>
      <point x="1698" y="681" type="curve"/>
      <point x="1688" y="794" type="line"/>
      <point x="1659" y="759"/>
      <point x="1615" y="739"/>
      <point x="1549" y="739" type="curve" smooth="yes"/>
      <point x="1481" y="739"/>
      <point x="1440" y="771"/>
      <point x="1440" y="824" type="curve" smooth="yes"/>
      <point x="1440" y="827" type="line" smooth="yes"/>
      <point x="1440" y="885"/>
      <point x="1483" y="919"/>
      <point x="1554" y="919" type="curve" smooth="yes"/>
      <point x="1643" y="919"/>
      <point x="1686" y="866"/>
      <point x="1686" y="787" type="curve" smooth="yes"/>
      <point x="1686" y="744" type="line"/>
      <point x="1686" y="674" type="line"/>
      <point x="1707" y="674" type="line"/>
    </contour>
  </outline>
</glyph>
<glyph name="vowelLru.mlm" format="2">
  <advance width="3011"/>
  <unicode hex="0D0C"/>
  <outline>
    <contour>
      <point x="879" y="1184" type="curve" smooth="yes"/>
      <point x="349" y="1184"/>
      <point x="85" y="942"/>
      <point x="85" y="498" type="curve" smooth="yes"/>
      <point x="85" y="477" type="line" smooth="yes"/>
      <point x="85" y="143"/>
      <point x="270" y="-39"/>
      <point x="624" y="-39" type="curve" smooth="yes"/>
      <point x="960" y="-39"/>
      <point x="1134" y="97"/>
      <point x="1134" y="361" type="curve" smooth="yes"/>
      <point x="1134" y="370" type="line" smooth="yes"/>
      <point x="1134" y="609"/>
      <point x="1004" y="734"/>
      <point x="789" y="734" type="curve" smooth="yes"/>
      <point x="597" y="734"/>
      <point x="480" y="650"/>
      <point x="443" y="488" type="curve"/>
      <point x="455" y="385" type="line"/>
      <point x="487" y="429"/>
      <point x="547" y="454"/>
      <point x="624" y="454" type="curve" smooth="yes"/>
      <point x="721" y="454"/>
      <point x="770" y="421"/>
      <point x="770" y="356" type="curve" smooth="yes"/>
      <point x="770" y="348" type="line" smooth="yes"/>
      <point x="770" y="283"/>
      <point x="717" y="245"/>
      <point x="624" y="245" type="curve" smooth="yes"/>
      <point x="513" y="245"/>
      <point x="457" y="296"/>
      <point x="457" y="398" type="curve" smooth="yes"/>
      <point x="457" y="414" type="line"/>
      <point x="456" y="500" type="line"/>
      <point x="436" y="500" type="line"/>
      <point x="436" y="505" type="line" smooth="yes"/>
      <point x="436" y="765"/>
      <point x="597" y="884"/>
      <point x="886" y="884" type="curve" smooth="yes"/>
      <point x="1168" y="884"/>
      <point x="1317" y="770"/>
      <point x="1317" y="539" type="curve" smooth="yes"/>
      <point x="1317" y="493" type="line"/>
      <point x="1501" y="493" type="line"/>
      <point x="1500" y="857" type="line"/>
      <point x="1449" y="1044"/>
      <point x="1257" y="1184"/>
    </contour>
    <contour>
      <point x="1317" y="4" type="line"/>
      <point x="1689" y="4" type="line"/>
      <point x="1689" y="523" type="line"/>
      <point x="1317" y="519" type="line"/>
    </contour>
    <contour>
      <point x="2145" y="1184" type="curve" smooth="yes"/>
      <point x="1758" y="1184"/>
      <point x="1564" y="1045"/>
      <point x="1509" y="857" type="curve"/>
      <point x="1457" y="857" type="line"/>
      <point x="1471" y="493" type="line"/>
      <point x="1689" y="431" type="line"/>
      <point x="1689" y="539" type="line" smooth="yes"/>
      <point x="1689" y="770"/>
      <point x="1839" y="884"/>
      <point x="2122" y="884" type="curve" smooth="yes"/>
      <point x="2428" y="884"/>
      <point x="2554" y="745"/>
      <point x="2565" y="574" type="curve"/>
      <point x="2565" y="574" type="line"/>
      <point x="2554" y="574" type="line"/>
      <point x="2564" y="486" type="line"/>
      <point x="2564" y="473" type="line" smooth="yes"/>
      <point x="2564" y="313"/>
      <point x="2513" y="246"/>
      <point x="2395" y="246" type="curve" smooth="yes"/>
      <point x="2298" y="246"/>
      <point x="2245" y="296"/>
      <point x="2245" y="370" type="curve" smooth="yes"/>
      <point x="2245" y="378" type="line" smooth="yes"/>
      <point x="2245" y="459"/>
      <point x="2300" y="505"/>
      <point x="2402" y="505" type="curve" smooth="yes"/>
      <point x="2467" y="505"/>
      <point x="2521" y="488"/>
      <point x="2567" y="458" type="curve"/>
      <point x="2565" y="551" type="line"/>
      <point x="2523" y="674"/>
      <point x="2418" y="759"/>
      <point x="2254" y="759" type="curve" smooth="yes"/>
      <point x="2034" y="759"/>
      <point x="1879" y="636"/>
      <point x="1879" y="391" type="curve" smooth="yes"/>
      <point x="1879" y="378" type="line" smooth="yes"/>
      <point x="1879" y="105"/>
      <point x="2051" y="-39"/>
      <point x="2389" y="-39" type="curve" smooth="yes"/>
      <point x="2741" y="-39"/>
      <point x="2926" y="148"/>
      <point x="2926" y="498" type="curve" smooth="yes"/>
      <point x="2926" y="519" type="line" smooth="yes"/>
      <point x="2926" y="931"/>
      <point x="2664" y="1184"/>
    </contour>
  </outline>
</glyph>
<glyph name="Ga.mlm" format="2">
  <advance width="2187"/>
  <unicode hex="0D17"/>
  <outline>
    <contour>
      <point x="1483" y="1186" type="curve" smooth="yes"/>
      <point x="1097" y="1186"/>
      <point x="902" y="1014"/>
      <point x="902" y="671" type="curve" smooth="yes"/>
      <point x="902" y="604"/>
      <point x="902" y="560"/>
      <point x="902" y="493" type="curve" smooth="yes"/>
      <point x="902" y="352"/>
      <point x="835" y="282"/>
      <point x="701" y="282" type="curve" smooth="yes"/>
      <point x="549" y="282"/>
      <point x="472" y="377"/>
      <point x="472" y="572" type="curve" smooth="yes"/>
      <point x="472" y="590" type="line" smooth="yes"/>
      <point x="472" y="787"/>
      <point x="540" y="966"/>
      <point x="671" y="1133" type="curve"/>
      <point x="296" y="1133" type="line"/>
      <point x="163" y="1001"/>
      <point x="93" y="796"/>
      <point x="93" y="581" type="curve" smooth="yes"/>
      <point x="93" y="563" type="line" smooth="yes"/>
      <point x="93" y="160"/>
      <point x="301" y="-40"/>
      <point x="701" y="-40" type="curve" smooth="yes"/>
      <point x="1081" y="-40"/>
      <point x="1275" y="130"/>
      <point x="1275" y="466" type="curve" smooth="yes"/>
      <point x="1275" y="533"/>
      <point x="1275" y="577"/>
      <point x="1275" y="644" type="curve" smooth="yes"/>
      <point x="1275" y="792"/>
      <point x="1344" y="864"/>
      <point x="1483" y="864" type="curve" smooth="yes"/>
      <point x="1635" y="864"/>
      <point x="1714" y="762"/>
      <point x="1714" y="556" type="curve" smooth="yes"/>
      <point x="1714" y="540" type="line" smooth="yes"/>
      <point x="1714" y="346"/>
      <point x="1645" y="165"/>
      <point x="1526" y="0" type="curve"/>
      <point x="1918" y="0" type="line"/>
      <point x="2030" y="128"/>
      <point x="2093" y="332"/>
      <point x="2093" y="540" type="curve" smooth="yes"/>
      <point x="2093" y="565" type="line" smooth="yes"/>
      <point x="2093" y="979"/>
      <point x="1883" y="1186"/>
    </contour>
  </outline>
</glyph>
<glyph name="Gha.mlm" format="2">
  <advance width="3341"/>
  <unicode hex="0D18"/>
  <outline>
    <contour>
      <point x="1112" y="683" type="line"/>
      <point x="739" y="414" type="line"/>
      <point x="1387" y="414" type="line"/>
      <point x="1387" y="683" type="line"/>
    </contour>
    <contour>
      <point x="614" y="1133" type="curve" smooth="yes"/>
      <point x="257" y="1133"/>
      <point x="73" y="986"/>
      <point x="73" y="678" type="curve" smooth="yes"/>
      <point x="73" y="665" type="line" smooth="yes"/>
      <point x="73" y="575"/>
      <point x="91" y="479"/>
      <point x="123" y="414" type="curve"/>
      <point x="489" y="414" type="line"/>
      <point x="452" y="495"/>
      <point x="438" y="561"/>
      <point x="438" y="635" type="curve" smooth="yes"/>
      <point x="438" y="639" type="line" smooth="yes"/>
      <point x="438" y="764"/>
      <point x="490" y="827"/>
      <point x="614" y="827" type="curve" smooth="yes"/>
      <point x="738" y="827"/>
      <point x="790" y="764"/>
      <point x="790" y="639" type="curve" smooth="yes"/>
      <point x="790" y="635" type="line" smooth="yes"/>
      <point x="790" y="566"/>
      <point x="774" y="507"/>
      <point x="739" y="433" type="curve"/>
      <point x="739" y="414" type="line"/>
      <point x="964" y="431" type="line"/>
      <point x="1091" y="512"/>
      <point x="1158" y="646"/>
      <point x="1158" y="743" type="curve" smooth="yes"/>
      <point x="1158" y="755" type="line" smooth="yes"/>
      <point x="1158" y="1010"/>
      <point x="972" y="1133"/>
    </contour>
    <contour>
      <point x="2221" y="683" type="line"/>
      <point x="1711" y="683" type="line"/>
      <point x="1711" y="697" type="line" smooth="yes"/>
      <point x="1711" y="834"/>
      <point x="1794" y="899"/>
      <point x="1966" y="899" type="curve" smooth="yes"/>
      <point x="2138" y="899"/>
      <point x="2221" y="834"/>
      <point x="2221" y="697" type="curve" smooth="yes"/>
    </contour>
    <contour>
      <point x="1966" y="1186" type="curve" smooth="yes"/>
      <point x="1555" y="1186"/>
      <point x="1343" y="1008"/>
      <point x="1343" y="651" type="curve" smooth="yes"/>
      <point x="1343" y="0" type="line"/>
      <point x="3209" y="0" type="line"/>
      <point x="3209" y="1137" type="line"/>
      <point x="2836" y="1137" type="line"/>
      <point x="2836" y="269" type="line"/>
      <point x="1711" y="269" type="line"/>
      <point x="1711" y="415" type="line"/>
      <point x="2587" y="415" type="line"/>
      <point x="2587" y="651" type="line" smooth="yes"/>
      <point x="2587" y="1008"/>
      <point x="2377" y="1186"/>
    </contour>
  </outline>
</glyph>
<glyph name="Nga.mlm" format="2">
  <advance width="2843"/>
  <unicode hex="0D19"/>
  <outline>
    <contour>
      <point x="1317" y="4" type="line"/>
      <point x="1689" y="4" type="line"/>
      <point x="1689" y="549" type="line"/>
      <point x="1317" y="532" type="line"/>
    </contour>
    <contour>
      <point x="872" y="1184" type="curve" smooth="yes"/>
      <point x="356" y="1184"/>
      <point x="85" y="942"/>
      <point x="85" y="498" type="curve" smooth="yes"/>
      <point x="85" y="477" type="line" smooth="yes"/>
      <point x="85" y="143"/>
      <point x="270" y="-39"/>
      <point x="624" y="-39" type="curve" smooth="yes"/>
      <point x="960" y="-39"/>
      <point x="1134" y="97"/>
      <point x="1134" y="361" type="curve" smooth="yes"/>
      <point x="1134" y="370" type="line" smooth="yes"/>
      <point x="1134" y="609"/>
      <point x="1004" y="734"/>
      <point x="789" y="734" type="curve" smooth="yes"/>
      <point x="597" y="734"/>
      <point x="479" y="650"/>
      <point x="442" y="488" type="curve"/>
      <point x="455" y="385" type="line"/>
      <point x="487" y="429"/>
      <point x="547" y="454"/>
      <point x="624" y="454" type="curve" smooth="yes"/>
      <point x="721" y="454"/>
      <point x="770" y="421"/>
      <point x="770" y="356" type="curve" smooth="yes"/>
      <point x="770" y="348" type="line" smooth="yes"/>
      <point x="770" y="283"/>
      <point x="717" y="246"/>
      <point x="624" y="246" type="curve" smooth="yes"/>
      <point x="513" y="246"/>
      <point x="456" y="296"/>
      <point x="456" y="398" type="curve" smooth="yes"/>
      <point x="456" y="414" type="line"/>
      <point x="456" y="500" type="line"/>
      <point x="435" y="500" type="line"/>
      <point x="435" y="505" type="line" smooth="yes"/>
      <point x="435" y="765"/>
      <point x="597" y="884"/>
      <point x="886" y="884" type="curve" smooth="yes"/>
      <point x="1168" y="884"/>
      <point x="1317" y="773"/>
      <point x="1317" y="551" type="curve" smooth="yes"/>
      <point x="1317" y="502" type="line"/>
      <point x="1500" y="502" type="line"/>
      <point x="1499" y="857" type="line"/>
      <point x="1450" y="1045"/>
      <point x="1261" y="1184"/>
    </contour>
    <contour>
      <point x="2105" y="1184" type="curve" smooth="yes"/>
      <point x="1735" y="1184"/>
      <point x="1541" y="1042"/>
      <point x="1508" y="857" type="curve"/>
      <point x="1435" y="857" type="line"/>
      <point x="1435" y="422" type="line"/>
      <point x="1689" y="410" type="line"/>
      <point x="1689" y="600" type="line" smooth="yes"/>
      <point x="1689" y="790"/>
      <point x="1810" y="882"/>
      <point x="2081" y="882" type="curve" smooth="yes"/>
      <point x="2271" y="882"/>
      <point x="2358" y="852"/>
      <point x="2358" y="792" type="curve" smooth="yes"/>
      <point x="2358" y="788" type="line" smooth="yes"/>
      <point x="2358" y="744"/>
      <point x="2316" y="724"/>
      <point x="2212" y="720" type="curve" smooth="yes"/>
      <point x="1968" y="711" type="line"/>
      <point x="1968" y="429" type="line"/>
      <point x="2209" y="421" type="line" smooth="yes"/>
      <point x="2329" y="417"/>
      <point x="2376" y="392"/>
      <point x="2376" y="341" type="curve" smooth="yes"/>
      <point x="2376" y="336" type="line" smooth="yes"/>
      <point x="2376" y="283"/>
      <point x="2318" y="257"/>
      <point x="2195" y="257" type="curve" smooth="yes"/>
      <point x="2073" y="257"/>
      <point x="1995" y="264"/>
      <point x="1884" y="292" type="curve"/>
      <point x="1929" y="2" type="line"/>
      <point x="2028" y="-27"/>
      <point x="2127" y="-37"/>
      <point x="2253" y="-37" type="curve" smooth="yes"/>
      <point x="2594" y="-37"/>
      <point x="2756" y="68"/>
      <point x="2756" y="283" type="curve" smooth="yes"/>
      <point x="2756" y="292" type="line" smooth="yes"/>
      <point x="2756" y="445"/>
      <point x="2650" y="541"/>
      <point x="2430" y="567" type="curve"/>
      <point x="2430" y="574" type="line"/>
      <point x="2639" y="592"/>
      <point x="2738" y="679"/>
      <point x="2738" y="829" type="curve" smooth="yes"/>
      <point x="2738" y="836" type="line" smooth="yes"/>
      <point x="2738" y="1068"/>
      <point x="2531" y="1184"/>
    </contour>
  </outline>
</glyph>
<glyph name="Jha.mlm" format="2">
  <advance width="4086"/>
  <unicode hex="0D1D"/>
  <outline>
    <contour>
      <point x="3137" y="614" type="line"/>
      <point x="3137" y="1119" type="line"/>
      <point x="2764" y="1119" type="line"/>
      <point x="2764" y="604" type="line"/>
    </contour>
    <contour>
      <point x="2374" y="510" type="curve" smooth="yes"/>
      <point x="2374" y="559"/>
      <point x="2374" y="593"/>
      <point x="2374" y="642" type="curve" smooth="yes"/>
      <point x="2374" y="1001"/>
      <point x="2151" y="1184"/>
      <point x="1706" y="1184" type="curve" smooth="yes"/>
      <point x="1428" y="1184"/>
      <point x="1245" y="1095"/>
      <point x="1140" y="989" type="curve"/>
      <point x="1017" y="924" type="line"/>
      <point x="820" y="838"/>
      <point x="717" y="660"/>
      <point x="717" y="456" type="curve" smooth="yes"/>
      <point x="717" y="440" type="line" smooth="yes"/>
      <point x="717" y="123"/>
      <point x="895" y="-39"/>
      <point x="1249" y="-39" type="curve" smooth="yes"/>
      <point x="1603" y="-39"/>
      <point x="1782" y="123"/>
      <point x="1782" y="440" type="curve" smooth="yes"/>
      <point x="1782" y="456" type="line" smooth="yes"/>
      <point x="1782" y="660"/>
      <point x="1679" y="838"/>
      <point x="1482" y="924" type="curve"/>
      <point x="1358" y="989" type="line"/>
      <point x="1257" y="1105"/>
      <point x="1070" y="1184"/>
      <point x="808" y="1184" type="curve" smooth="yes"/>
      <point x="339" y="1184"/>
      <point x="94" y="947"/>
      <point x="94" y="495" type="curve" smooth="yes"/>
      <point x="94" y="477" type="line" smooth="yes"/>
      <point x="94" y="301"/>
      <point x="142" y="118"/>
      <point x="219" y="0" type="curve"/>
      <point x="604" y="0" type="line"/>
      <point x="512" y="164"/>
      <point x="472" y="312"/>
      <point x="472" y="477" type="curve" smooth="yes"/>
      <point x="472" y="495" type="line" smooth="yes"/>
      <point x="472" y="755"/>
      <point x="605" y="887"/>
      <point x="873" y="887" type="curve" smooth="yes"/>
      <point x="952" y="887"/>
      <point x="1011" y="870"/>
      <point x="1065" y="847" type="curve"/>
      <point x="1076" y="843"/>
      <point x="1172" y="815"/>
      <point x="1181" y="813" type="curve"/>
      <point x="1334" y="753"/>
      <point x="1408" y="628"/>
      <point x="1408" y="473" type="curve" smooth="yes"/>
      <point x="1408" y="463" type="line" smooth="yes"/>
      <point x="1408" y="319"/>
      <point x="1355" y="257"/>
      <point x="1249" y="257" type="curve" smooth="yes"/>
      <point x="1143" y="257"/>
      <point x="1091" y="319"/>
      <point x="1091" y="463" type="curve" smooth="yes"/>
      <point x="1091" y="473" type="line" smooth="yes"/>
      <point x="1091" y="628"/>
      <point x="1165" y="753"/>
      <point x="1318" y="813" type="curve"/>
      <point x="1327" y="815"/>
      <point x="1423" y="843"/>
      <point x="1434" y="847" type="curve" smooth="yes"/>
      <point x="1502" y="870"/>
      <point x="1577" y="887"/>
      <point x="1678" y="887" type="curve" smooth="yes"/>
      <point x="1899" y="887"/>
      <point x="2001" y="785"/>
      <point x="2001" y="576" type="curve" smooth="yes"/>
      <point x="2001" y="527"/>
      <point x="2001" y="493"/>
      <point x="2001" y="444" type="curve" smooth="yes"/>
      <point x="2001" y="120"/>
      <point x="2172" y="-40"/>
      <point x="2514" y="-40" type="curve" smooth="yes"/>
      <point x="2787" y="-40"/>
      <point x="2918" y="101"/>
      <point x="2946" y="275" type="curve"/>
      <point x="3019" y="275" type="line"/>
      <point x="3019" y="706" type="line"/>
      <point x="2764" y="718" type="line"/>
      <point x="2764" y="523" type="line" smooth="yes"/>
      <point x="2764" y="365"/>
      <point x="2699" y="287"/>
      <point x="2569" y="287" type="curve" smooth="yes"/>
      <point x="2436" y="287"/>
      <point x="2374" y="362"/>
    </contour>
    <contour>
      <point x="2955" y="275" type="line"/>
      <point x="2985" y="99"/>
      <point x="3126" y="-40"/>
      <point x="3414" y="-40" type="curve" smooth="yes"/>
      <point x="3793" y="-40"/>
      <point x="3992" y="167"/>
      <point x="3992" y="588" type="curve" smooth="yes"/>
      <point x="3992" y="605" type="line" smooth="yes"/>
      <point x="3992" y="809"/>
      <point x="3929" y="1004"/>
      <point x="3808" y="1132" type="curve"/>
      <point x="3431" y="1132" type="line"/>
      <point x="3550" y="974"/>
      <point x="3613" y="801"/>
      <point x="3613" y="614" type="curve" smooth="yes"/>
      <point x="3613" y="597" type="line" smooth="yes"/>
      <point x="3613" y="388"/>
      <point x="3530" y="287"/>
      <point x="3364" y="287" type="curve" smooth="yes"/>
      <point x="3213" y="287"/>
      <point x="3137" y="372"/>
      <point x="3137" y="544" type="curve" smooth="yes"/>
      <point x="3137" y="723" type="line"/>
      <point x="2954" y="723" type="line"/>
    </contour>
  </outline>
</glyph>
<glyph name="Dda.mlm" format="2">
  <advance width="3001"/>
  <unicode hex="0D21"/>
  <outline>
    <contour>
      <point x="2052" y="614" type="line"/>
      <point x="2052" y="1119" type="line"/>
      <point x="1679" y="1119" type="line"/>
      <point x="1679" y="604" type="line"/>
    </contour>
    <contour>
      <point x="1423" y="-40" type="curve" smooth="yes"/>
      <point x="1701" y="-40"/>
      <point x="1833" y="101"/>
      <point x="1861" y="275" type="curve"/>
      <point x="1934" y="275" type="line"/>
      <point x="1934" y="706" type="line"/>
      <point x="1679" y="718" type="line"/>
      <point x="1679" y="512" type="line" smooth="yes"/>
      <point x="1679" y="362"/>
      <point x="1613" y="287"/>
      <point x="1481" y="287" type="curve" smooth="yes"/>
      <point x="1347" y="287"/>
      <point x="1284" y="362"/>
      <point x="1284" y="512" type="curve" smooth="yes"/>
      <point x="1284" y="570"/>
      <point x="1284" y="609"/>
      <point x="1284" y="667" type="curve" smooth="yes"/>
      <point x="1284" y="1012"/>
      <point x="1088" y="1186"/>
      <point x="706" y="1186" type="curve" smooth="yes"/>
      <point x="301" y="1186"/>
      <point x="93" y="979"/>
      <point x="93" y="565" type="curve" smooth="yes"/>
      <point x="93" y="540" type="line" smooth="yes"/>
      <point x="93" y="332"/>
      <point x="156" y="128"/>
      <point x="268" y="0" type="curve"/>
      <point x="660" y="0" type="line"/>
      <point x="541" y="165"/>
      <point x="472" y="346"/>
      <point x="472" y="540" type="curve" smooth="yes"/>
      <point x="472" y="556" type="line" smooth="yes"/>
      <point x="472" y="762"/>
      <point x="547" y="864"/>
      <point x="706" y="864" type="curve" smooth="yes"/>
      <point x="842" y="864"/>
      <point x="911" y="787"/>
      <point x="911" y="630" type="curve" smooth="yes"/>
      <point x="911" y="568"/>
      <point x="911" y="525"/>
      <point x="911" y="463" type="curve" smooth="yes"/>
      <point x="911" y="130"/>
      <point x="1081" y="-40"/>
    </contour>
    <contour>
      <point x="1870" y="275" type="line"/>
      <point x="1900" y="99"/>
      <point x="2041" y="-40"/>
      <point x="2329" y="-40" type="curve" smooth="yes"/>
      <point x="2708" y="-40"/>
      <point x="2907" y="167"/>
      <point x="2907" y="588" type="curve" smooth="yes"/>
      <point x="2907" y="605" type="line" smooth="yes"/>
      <point x="2907" y="809"/>
      <point x="2844" y="1004"/>
      <point x="2723" y="1132" type="curve"/>
      <point x="2346" y="1132" type="line"/>
      <point x="2465" y="974"/>
      <point x="2528" y="801"/>
      <point x="2528" y="614" type="curve" smooth="yes"/>
      <point x="2528" y="597" type="line" smooth="yes"/>
      <point x="2528" y="388"/>
      <point x="2445" y="287"/>
      <point x="2279" y="287" type="curve" smooth="yes"/>
      <point x="2128" y="287"/>
      <point x="2052" y="372"/>
      <point x="2052" y="544" type="curve" smooth="yes"/>
      <point x="2052" y="723" type="line"/>
      <point x="1869" y="723" type="line"/>
    </contour>
  </outline>
</glyph>
<glyph name="Tha.mlm" format="2">
  <advance width="2179"/>
  <unicode hex="0D25"/>
  <outline>
    <contour>
      <point x="505" y="0" type="line"/>
      <point x="505" y="1137" type="line"/>
      <point x="132" y="1137" type="line"/>
      <point x="132" y="0" type="line"/>
    </contour>
    <contour>
      <point x="346" y="287" type="line"/>
      <point x="346" y="0" type="line"/>
      <point x="1033" y="0" type="line"/>
      <point x="1033" y="287" type="line"/>
    </contour>
    <contour>
      <point x="1058" y="287" type="line"/>
      <point x="956" y="0" type="line"/>
      <point x="2059" y="0" type="line"/>
      <point x="2059" y="625" type="line" smooth="yes"/>
      <point x="2059" y="997"/>
      <point x="1853" y="1190"/>
      <point x="1453" y="1190" type="curve" smooth="yes"/>
      <point x="1053" y="1190"/>
      <point x="847" y="997"/>
      <point x="847" y="625" type="curve" smooth="yes"/>
      <point x="847" y="0" type="line"/>
      <point x="1220" y="0" type="line"/>
      <point x="1220" y="625" type="line" smooth="yes"/>
      <point x="1220" y="786"/>
      <point x="1299" y="868"/>
      <point x="1454" y="868" type="curve" smooth="yes"/>
      <point x="1609" y="868"/>
      <point x="1686" y="786"/>
      <point x="1686" y="625" type="curve" smooth="yes"/>
      <point x="1686" y="287" type="line"/>
    </contour>
  </outline>
</glyph>
<glyph name="Da.mlm" format="2">
  <advance width="1692"/>
  <unicode hex="0D26"/>
  <outline>
    <contour>
      <point x="1588" y="840" type="line" smooth="yes"/>
      <point x="1588" y="1075"/>
      <point x="1358" y="1192"/>
      <point x="897" y="1192" type="curve" smooth="yes"/>
      <point x="356" y="1192"/>
      <point x="96" y="966"/>
      <point x="96" y="503" type="curve" smooth="yes"/>
      <point x="96" y="482" type="line" smooth="yes"/>
      <point x="96" y="304"/>
      <point x="131" y="121"/>
      <point x="191" y="0" type="curve"/>
      <point x="566" y="0" type="line"/>
      <point x="506" y="165"/>
      <point x="475" y="315"/>
      <point x="475" y="480" type="curve" smooth="yes"/>
      <point x="475" y="495" type="line" smooth="yes"/>
      <point x="475" y="761"/>
      <point x="607" y="889"/>
      <point x="907" y="889" type="curve" smooth="yes"/>
      <point x="1111" y="889"/>
      <point x="1208" y="858"/>
      <point x="1208" y="796" type="curve" smooth="yes"/>
      <point x="1208" y="792" type="line" smooth="yes"/>
      <point x="1208" y="748"/>
      <point x="1165" y="726"/>
      <point x="1061" y="723" type="curve" smooth="yes"/>
      <point x="806" y="715" type="line"/>
      <point x="806" y="433" type="line"/>
      <point x="1058" y="424" type="line" smooth="yes"/>
      <point x="1178" y="420"/>
      <point x="1225" y="396"/>
      <point x="1225" y="345" type="curve" smooth="yes"/>
      <point x="1225" y="340" type="line" smooth="yes"/>
      <point x="1225" y="285"/>
      <point x="1165" y="257"/>
      <point x="1044" y="257" type="curve" smooth="yes"/>
      <point x="918" y="257"/>
      <point x="839" y="264"/>
      <point x="725" y="292" type="curve"/>
      <point x="770" y="2" type="line"/>
      <point x="872" y="-27"/>
      <point x="972" y="-37"/>
      <point x="1102" y="-37" type="curve" smooth="yes"/>
      <point x="1442" y="-37"/>
      <point x="1605" y="71"/>
      <point x="1605" y="287" type="curve" smooth="yes"/>
      <point x="1605" y="296" type="line" smooth="yes"/>
      <point x="1605" y="449"/>
      <point x="1498" y="543"/>
      <point x="1280" y="569" type="curve"/>
      <point x="1280" y="578" type="line"/>
      <point x="1488" y="596"/>
      <point x="1588" y="682"/>
      <point x="1588" y="832" type="curve" smooth="yes"/>
    </contour>
  </outline>
</glyph>
<glyph name="Dha.mlm" format="2">
  <advance width="2286"/>
  <unicode hex="0D27"/>
  <outline>
    <contour>
      <point x="1329" y="609" type="line"/>
      <point x="1329" y="1125" type="line"/>
      <point x="956" y="1125" type="line"/>
      <point x="956" y="609" type="line"/>
    </contour>
    <contour>
      <point x="956" y="723" type="line"/>
      <point x="956" y="544" type="line" smooth="yes"/>
      <point x="956" y="372"/>
      <point x="879" y="287"/>
      <point x="725" y="287" type="curve" smooth="yes"/>
      <point x="557" y="287"/>
      <point x="472" y="388"/>
      <point x="472" y="597" type="curve" smooth="yes"/>
      <point x="472" y="614" type="line" smooth="yes"/>
      <point x="472" y="801"/>
      <point x="534" y="974"/>
      <point x="653" y="1132" type="curve"/>
      <point x="277" y="1132" type="line"/>
      <point x="156" y="1004"/>
      <point x="93" y="809"/>
      <point x="93" y="605" type="curve" smooth="yes"/>
      <point x="93" y="588" type="line" smooth="yes"/>
      <point x="93" y="167"/>
      <point x="295" y="-40"/>
      <point x="676" y="-40" type="curve" smooth="yes"/>
      <point x="967" y="-40"/>
      <point x="1108" y="99"/>
      <point x="1138" y="275" type="curve"/>
      <point x="1211" y="275" type="line"/>
      <point x="1211" y="711" type="line"/>
    </contour>
    <contour>
      <point x="1147" y="275" type="line"/>
      <point x="1177" y="99"/>
      <point x="1318" y="-40"/>
      <point x="1609" y="-40" type="curve" smooth="yes"/>
      <point x="1990" y="-40"/>
      <point x="2192" y="167"/>
      <point x="2192" y="588" type="curve" smooth="yes"/>
      <point x="2192" y="605" type="line" smooth="yes"/>
      <point x="2192" y="809"/>
      <point x="2130" y="1004"/>
      <point x="2009" y="1132" type="curve"/>
      <point x="1632" y="1132" type="line"/>
      <point x="1750" y="974"/>
      <point x="1813" y="801"/>
      <point x="1813" y="614" type="curve" smooth="yes"/>
      <point x="1813" y="597" type="line" smooth="yes"/>
      <point x="1813" y="388"/>
      <point x="1727" y="287"/>
      <point x="1560" y="287" type="curve" smooth="yes"/>
      <point x="1406" y="287"/>
      <point x="1329" y="372"/>
      <point x="1329" y="544" type="curve" smooth="yes"/>
      <point x="1329" y="723" type="line"/>
      <point x="1146" y="723" type="line"/>
    </contour>
  </outline>
</glyph>
<glyph name="Na.mlm" format="2">
  <advance width="2314"/>
  <unicode hex="0D28"/>
  <outline>
    <contour>
      <point x="970" y="532" type="line"/>
      <point x="970" y="4" type="line"/>
      <point x="1343" y="4" type="line"/>
      <point x="1343" y="532" type="line"/>
    </contour>
    <contour>
      <point x="93" y="542" type="curve" smooth="yes"/>
      <point x="93" y="524" type="line" smooth="yes"/>
      <point x="93" y="320"/>
      <point x="147" y="127"/>
      <point x="250" y="0" type="curve"/>
      <point x="636" y="0" type="line"/>
      <point x="529" y="162"/>
      <point x="472" y="334"/>
      <point x="472" y="524" type="curve" smooth="yes"/>
      <point x="472" y="542" type="line" smooth="yes"/>
      <point x="472" y="757"/>
      <point x="557" y="859"/>
      <point x="732" y="859" type="curve" smooth="yes"/>
      <point x="893" y="859"/>
      <point x="970" y="772"/>
      <point x="970" y="598" type="curve" smooth="yes"/>
      <point x="970" y="410" type="line"/>
      <point x="1153" y="410" type="line"/>
      <point x="1152" y="861" type="line"/>
      <point x="1120" y="1044"/>
      <point x="980" y="1184"/>
      <point x="690" y="1184" type="curve" smooth="yes"/>
      <point x="298" y="1184"/>
      <point x="93" y="971"/>
    </contour>
    <contour>
      <point x="1343" y="410" type="line"/>
      <point x="1343" y="598" type="line" smooth="yes"/>
      <point x="1343" y="776"/>
      <point x="1420" y="859"/>
      <point x="1581" y="859" type="curve" smooth="yes"/>
      <point x="1753" y="859"/>
      <point x="1841" y="757"/>
      <point x="1841" y="542" type="curve" smooth="yes"/>
      <point x="1841" y="524" type="line" smooth="yes"/>
      <point x="1841" y="334"/>
      <point x="1784" y="162"/>
      <point x="1678" y="0" type="curve"/>
      <point x="2063" y="0" type="line"/>
      <point x="2166" y="127"/>
      <point x="2220" y="320"/>
      <point x="2220" y="524" type="curve" smooth="yes"/>
      <point x="2220" y="542" type="line" smooth="yes"/>
      <point x="2220" y="971"/>
      <point x="2013" y="1184"/>
      <point x="1623" y="1184" type="curve" smooth="yes"/>
      <point x="1333" y="1184"/>
      <point x="1191" y="1044"/>
      <point x="1161" y="861" type="curve"/>
      <point x="1088" y="861" type="line"/>
      <point x="1088" y="422" type="line"/>
    </contour>
  </outline>
</glyph>
<glyph name="Nnna.mlm" format="2">
  <advance width="2672"/>
  <unicode hex="0D29"/>
  <outline>
    <contour>
      <point x="1317" y="4" type="line"/>
      <point x="1689" y="4" type="line"/>
      <point x="1689" y="549" type="line"/>
      <point x="1317" y="532" type="line"/>
    </contour>
    <contour>
      <point x="872" y="1184" type="curve" smooth="yes"/>
      <point x="356" y="1184"/>
      <point x="85" y="942"/>
      <point x="85" y="498" type="curve" smooth="yes"/>
      <point x="85" y="477" type="line" smooth="yes"/>
      <point x="85" y="143"/>
      <point x="270" y="-39"/>
      <point x="624" y="-39" type="curve" smooth="yes"/>
      <point x="960" y="-39"/>
      <point x="1134" y="97"/>
      <point x="1134" y="361" type="curve" smooth="yes"/>
      <point x="1134" y="370" type="line" smooth="yes"/>
      <point x="1134" y="609"/>
      <point x="1004" y="734"/>
      <point x="789" y="734" type="curve" smooth="yes"/>
      <point x="597" y="734"/>
      <point x="479" y="650"/>
      <point x="442" y="488" type="curve"/>
      <point x="455" y="385" type="line"/>
      <point x="487" y="429"/>
      <point x="547" y="454"/>
      <point x="624" y="454" type="curve" smooth="yes"/>
      <point x="721" y="454"/>
      <point x="770" y="421"/>
      <point x="770" y="356" type="curve" smooth="yes"/>
      <point x="770" y="348" type="line" smooth="yes"/>
      <point x="770" y="283"/>
      <point x="717" y="246"/>
      <point x="624" y="246" type="curve" smooth="yes"/>
      <point x="513" y="246"/>
      <point x="456" y="296"/>
      <point x="456" y="398" type="curve" smooth="yes"/>
      <point x="456" y="414" type="line"/>
      <point x="456" y="500" type="line"/>
      <point x="435" y="500" type="line"/>
      <point x="435" y="505" type="line" smooth="yes"/>
      <point x="435" y="765"/>
      <point x="597" y="884"/>
      <point x="886" y="884" type="curve" smooth="yes"/>
      <point x="1168" y="884"/>
      <point x="1317" y="773"/>
      <point x="1317" y="551" type="curve" smooth="yes"/>
      <point x="1317" y="502" type="line"/>
      <point x="1500" y="502" type="line"/>
      <point x="1499" y="857" type="line"/>
      <point x="1450" y="1045"/>
      <point x="1261" y="1184"/>
    </contour>
    <contour>
      <point x="1934" y="859" type="curve" smooth="yes"/>
      <point x="2115" y="859"/>
      <point x="2200" y="757"/>
      <point x="2200" y="542" type="curve" smooth="yes"/>
      <point x="2200" y="524" type="line" smooth="yes"/>
      <point x="2200" y="334"/>
      <point x="2140" y="162"/>
      <point x="2026" y="0" type="curve"/>
      <point x="2411" y="0" type="line"/>
      <point x="2521" y="127"/>
      <point x="2578" y="320"/>
      <point x="2578" y="524" type="curve" smooth="yes"/>
      <point x="2578" y="542" type="line" smooth="yes"/>
      <point x="2578" y="971"/>
      <point x="2373" y="1184"/>
      <point x="1976" y="1184" type="curve" smooth="yes"/>
      <point x="1681" y="1184"/>
      <point x="1531" y="1042"/>
      <point x="1508" y="857" type="curve"/>
      <point x="1436" y="857" type="line"/>
      <point x="1436" y="422" type="line"/>
      <point x="1689" y="410" type="line"/>
      <point x="1689" y="591" type="line" smooth="yes"/>
      <point x="1689" y="771"/>
      <point x="1768" y="859"/>
    </contour>
  </outline>
</glyph>
<glyph name="Pha.mlm" format="2">
  <advance width="2855"/>
  <unicode hex="0D2B"/>
  <outline>
    <contour>
      <point x="963" y="287" type="line"/>
      <point x="963" y="0" type="line"/>
      <point x="1748" y="0" type="line"/>
      <point x="1748" y="287" type="line"/>
    </contour>
    <contour>
      <point x="650" y="785" type="curve" smooth="yes"/>
      <point x="279" y="785"/>
      <point x="83" y="625"/>
      <point x="83" y="294" type="curve" smooth="yes"/>
      <point x="83" y="282" type="line" smooth="yes"/>
      <point x="83" y="171"/>
      <point x="107" y="67"/>
      <point x="151" y="0" type="curve"/>
      <point x="521" y="0" type="line"/>
      <point x="479" y="79"/>
      <point x="452" y="160"/>
      <point x="452" y="253" type="curve" smooth="yes"/>
      <point x="452" y="264" type="line" smooth="yes"/>
      <point x="452" y="405"/>
      <point x="513" y="473"/>
      <point x="650" y="473" type="curve" smooth="yes"/>
      <point x="787" y="473"/>
      <point x="847" y="405"/>
      <point x="847" y="264" type="curve" smooth="yes"/>
      <point x="847" y="253" type="line" smooth="yes"/>
      <point x="847" y="172"/>
      <point x="822" y="96"/>
      <point x="778" y="19" type="curve"/>
      <point x="778" y="0" type="line"/>
      <point x="993" y="0" type="line"/>
      <point x="1141" y="95"/>
      <point x="1220" y="248"/>
      <point x="1220" y="359" type="curve" smooth="yes"/>
      <point x="1220" y="371" type="line" smooth="yes"/>
      <point x="1220" y="649"/>
      <point x="1024" y="785"/>
    </contour>
    <contour>
      <point x="1734" y="287" type="line"/>
      <point x="1632" y="0" type="line"/>
      <point x="2735" y="0" type="line"/>
      <point x="2735" y="625" type="line" smooth="yes"/>
      <point x="2735" y="997"/>
      <point x="2529" y="1190"/>
      <point x="2129" y="1190" type="curve" smooth="yes"/>
      <point x="1729" y="1190"/>
      <point x="1523" y="997"/>
      <point x="1523" y="625" type="curve" smooth="yes"/>
      <point x="1523" y="0" type="line"/>
      <point x="1896" y="0" type="line"/>
      <point x="1896" y="625" type="line" smooth="yes"/>
      <point x="1896" y="786"/>
      <point x="1975" y="868"/>
      <point x="2130" y="868" type="curve" smooth="yes"/>
      <point x="2285" y="868"/>
      <point x="2362" y="786"/>
      <point x="2362" y="625" type="curve" smooth="yes"/>
      <point x="2362" y="287" type="line"/>
    </contour>
  </outline>
</glyph>
<glyph name="Ba.mlm" format="2">
  <advance width="3385"/>
  <unicode hex="0D2C"/>
  <outline>
    <contour>
      <point x="1317" y="4" type="line"/>
      <point x="1689" y="4" type="line"/>
      <point x="1689" y="549" type="line"/>
      <point x="1317" y="532" type="line"/>
    </contour>
    <contour>
      <point x="872" y="1184" type="curve" smooth="yes"/>
      <point x="356" y="1184"/>
      <point x="85" y="942"/>
      <point x="85" y="498" type="curve" smooth="yes"/>
      <point x="85" y="477" type="line" smooth="yes"/>
      <point x="85" y="143"/>
      <point x="270" y="-39"/>
      <point x="624" y="-39" type="curve" smooth="yes"/>
      <point x="960" y="-39"/>
      <point x="1134" y="97"/>
      <point x="1134" y="361" type="curve" smooth="yes"/>
      <point x="1134" y="370" type="line" smooth="yes"/>
      <point x="1134" y="609"/>
      <point x="1004" y="734"/>
      <point x="789" y="734" type="curve" smooth="yes"/>
      <point x="597" y="734"/>
      <point x="479" y="650"/>
      <point x="442" y="488" type="curve"/>
      <point x="455" y="385" type="line"/>
      <point x="487" y="429"/>
      <point x="547" y="454"/>
      <point x="624" y="454" type="curve" smooth="yes"/>
      <point x="721" y="454"/>
      <point x="770" y="421"/>
      <point x="770" y="356" type="curve" smooth="yes"/>
      <point x="770" y="348" type="line" smooth="yes"/>
      <point x="770" y="283"/>
      <point x="717" y="246"/>
      <point x="624" y="246" type="curve" smooth="yes"/>
      <point x="513" y="246"/>
      <point x="456" y="296"/>
      <point x="456" y="398" type="curve" smooth="yes"/>
      <point x="456" y="414" type="line"/>
      <point x="456" y="500" type="line"/>
      <point x="435" y="500" type="line"/>
      <point x="435" y="505" type="line" smooth="yes"/>
      <point x="435" y="765"/>
      <point x="597" y="884"/>
      <point x="886" y="884" type="curve" smooth="yes"/>
      <point x="1168" y="884"/>
      <point x="1317" y="773"/>
      <point x="1317" y="551" type="curve" smooth="yes"/>
      <point x="1317" y="502" type="line"/>
      <point x="1500" y="502" type="line"/>
      <point x="1499" y="857" type="line"/>
      <point x="1450" y="1045"/>
      <point x="1261" y="1184"/>
    </contour>
    <contour>
      <point x="1932" y="859" type="curve" smooth="yes"/>
      <point x="2115" y="859"/>
      <point x="2202" y="757"/>
      <point x="2202" y="542" type="curve" smooth="yes"/>
      <point x="2202" y="524" type="line" smooth="yes"/>
      <point x="2202" y="341"/>
      <point x="2147" y="176"/>
      <point x="2039" y="19" type="curve"/>
      <point x="2039" y="0" type="line"/>
      <point x="2293" y="0" type="line"/>
      <point x="2485" y="139"/>
      <point x="2582" y="352"/>
      <point x="2582" y="577" type="curve" smooth="yes"/>
      <point x="2582" y="595" type="line" smooth="yes"/>
      <point x="2582" y="989"/>
      <point x="2376" y="1184"/>
      <point x="1974" y="1184" type="curve" smooth="yes"/>
      <point x="1684" y="1184"/>
      <point x="1534" y="1042"/>
      <point x="1509" y="857" type="curve"/>
      <point x="1435" y="857" type="line"/>
      <point x="1435" y="422" type="line"/>
      <point x="1689" y="410" type="line"/>
      <point x="1689" y="590" type="line" smooth="yes"/>
      <point x="1689" y="771"/>
      <point x="1767" y="859"/>
    </contour>
    <contour>
      <point x="2880" y="1137" type="line"/>
      <point x="2880" y="0" type="line"/>
      <point x="3253" y="0" type="line"/>
      <point x="3253" y="1137" type="line"/>
    </contour>
    <contour>
      <point x="2390" y="287" type="line"/>
      <point x="2038" y="0" type="line"/>
      <point x="3213" y="0" type="line"/>
      <point x="3213" y="287" type="line"/>
    </contour>
  </outline>
</glyph>
<glyph name="Ya.mlm" format="2">
  <advance width="2527"/>
  <unicode hex="0D2F"/>
  <outline>
    <contour>
      <point x="1223" y="324" type="curve"/>
      <point x="1123" y="285" type="line"/>
      <point x="1053" y="266"/>
      <point x="976" y="248"/>
      <point x="874" y="248" type="curve" smooth="yes"/>
      <point x="601" y="248"/>
      <point x="466" y="388"/>
      <point x="466" y="656" type="curve" smooth="yes"/>
      <point x="466" y="671" type="line" smooth="yes"/>
      <point x="466" y="813"/>
      <point x="514" y="883"/>
      <point x="614" y="883" type="curve" smooth="yes"/>
      <point x="700" y="883"/>
      <point x="730" y="833"/>
      <point x="744" y="734" type="curve" smooth="yes"/>
      <point x="751" y="686" type="line" smooth="yes"/>
      <point x="784" y="466"/>
      <point x="851" y="301"/>
      <point x="1050" y="213" type="curve"/>
      <point x="1165" y="155" type="line"/>
      <point x="1260" y="32"/>
      <point x="1439" y="-51"/>
      <point x="1689" y="-51" type="curve" smooth="yes"/>
      <point x="2180" y="-51"/>
      <point x="2434" y="190"/>
      <point x="2434" y="653" type="curve" smooth="yes"/>
      <point x="2434" y="667" type="line" smooth="yes"/>
      <point x="2434" y="852"/>
      <point x="2376" y="1017"/>
      <point x="2281" y="1133" type="curve"/>
      <point x="1915" y="1133" type="line"/>
      <point x="2014" y="980"/>
      <point x="2057" y="838"/>
      <point x="2057" y="683" type="curve" smooth="yes"/>
      <point x="2057" y="667" type="line" smooth="yes"/>
      <point x="2057" y="391"/>
      <point x="1916" y="248"/>
      <point x="1631" y="248" type="curve" smooth="yes"/>
      <point x="1548" y="248"/>
      <point x="1488" y="266"/>
      <point x="1432" y="285" type="curve"/>
      <point x="1337" y="324" type="line" smooth="yes"/>
      <point x="1203" y="377"/>
      <point x="1158" y="500"/>
      <point x="1132" y="660" type="curve" smooth="yes"/>
      <point x="1116" y="760" type="line" smooth="yes"/>
      <point x="1110" y="797"/>
      <point x="1104" y="831"/>
      <point x="1095" y="864" type="curve"/>
      <point x="1062" y="896" type="line"/>
      <point x="1009" y="1100"/>
      <point x="870" y="1184"/>
      <point x="621" y="1184" type="curve" smooth="yes"/>
      <point x="271" y="1184"/>
      <point x="91" y="1000"/>
      <point x="91" y="662" type="curve" smooth="yes"/>
      <point x="91" y="648" type="line" smooth="yes"/>
      <point x="91" y="192"/>
      <point x="346" y="-48"/>
      <point x="848" y="-48" type="curve" smooth="yes"/>
      <point x="1101" y="-48"/>
      <point x="1289" y="32"/>
      <point x="1388" y="155" type="curve"/>
      <point x="1515" y="213" type="line"/>
      <point x="1615" y="264"/>
      <point x="1693" y="332"/>
      <point x="1742" y="415" type="curve" smooth="yes"/>
      <point x="1797" y="507"/>
      <point x="1825" y="613"/>
      <point x="1825" y="734" type="curve" smooth="yes"/>
      <point x="1825" y="1028"/>
      <point x="1679" y="1181"/>
      <point x="1394" y="1181" type="curve" smooth="yes"/>
      <point x="1206" y="1181"/>
      <point x="1088" y="1098"/>
      <point x="1055" y="949" type="curve"/>
      <point x="986" y="949" type="line"/>
      <point x="1109" y="788" type="line"/>
      <point x="1140" y="844"/>
      <point x="1204" y="880"/>
      <point x="1288" y="880" type="curve" smooth="yes"/>
      <point x="1394" y="880"/>
      <point x="1453" y="813"/>
      <point x="1453" y="695" type="curve" smooth="yes"/>
      <point x="1453" y="618"/>
      <point x="1432" y="544"/>
      <point x="1397" y="480" type="curve" smooth="yes"/>
      <point x="1358" y="410"/>
      <point x="1300" y="352"/>
    </contour>
  </outline>
</glyph>
<glyph name="Ra.mlm" format="2">
  <advance width="1855"/>
  <unicode hex="0D30"/>
  <outline>
    <contour>
      <point x="955" y="891" type="curve" smooth="yes"/>
      <point x="1263" y="891"/>
      <point x="1398" y="749"/>
      <point x="1409" y="577" type="curve"/>
      <point x="1409" y="576" type="line"/>
      <point x="1398" y="576" type="line"/>
      <point x="1407" y="489" type="line"/>
      <point x="1407" y="477" type="line" smooth="yes"/>
      <point x="1407" y="315"/>
      <point x="1355" y="246"/>
      <point x="1235" y="246" type="curve" smooth="yes"/>
      <point x="1135" y="246"/>
      <point x="1078" y="298"/>
      <point x="1078" y="375" type="curve" smooth="yes"/>
      <point x="1078" y="384" type="line" smooth="yes"/>
      <point x="1078" y="465"/>
      <point x="1136" y="512"/>
      <point x="1238" y="512" type="curve" smooth="yes"/>
      <point x="1305" y="512"/>
      <point x="1363" y="493"/>
      <point x="1411" y="461" type="curve"/>
      <point x="1409" y="554" type="line"/>
      <point x="1367" y="679"/>
      <point x="1259" y="766"/>
      <point x="1090" y="766" type="curve" smooth="yes"/>
      <point x="870" y="766"/>
      <point x="712" y="638"/>
      <point x="712" y="392" type="curve" smooth="yes"/>
      <point x="712" y="380" type="line" smooth="yes"/>
      <point x="712" y="105"/>
      <point x="891" y="-39"/>
      <point x="1217" y="-39" type="curve" smooth="yes"/>
      <point x="1587" y="-39"/>
      <point x="1770" y="148"/>
      <point x="1770" y="498" type="curve" smooth="yes"/>
      <point x="1770" y="519" type="line" smooth="yes"/>
      <point x="1770" y="934"/>
      <point x="1494" y="1192"/>
      <point x="936" y="1192" type="curve" smooth="yes"/>
      <point x="385" y="1192"/>
      <point x="94" y="938"/>
      <point x="94" y="480" type="curve" smooth="yes"/>
      <point x="94" y="463" type="line" smooth="yes"/>
      <point x="94" y="292"/>
      <point x="140" y="114"/>
      <point x="212" y="0" type="curve"/>
      <point x="596" y="0" type="line"/>
      <point x="512" y="151"/>
      <point x="474" y="287"/>
      <point x="474" y="440" type="curve" smooth="yes"/>
      <point x="474" y="458" type="line" smooth="yes"/>
      <point x="474" y="747"/>
      <point x="642" y="891"/>
    </contour>
  </outline>
</glyph>
<glyph name="Rra.mlm" format="2">
  <advance width="1647"/>
  <unicode hex="0D31"/>
  <outline>
    <contour>
      <point x="823" y="869" type="curve" smooth="yes"/>
      <point x="1055" y="869"/>
      <point x="1174" y="753"/>
      <point x="1174" y="514" type="curve" smooth="yes"/>
      <point x="1174" y="496" type="line" smooth="yes"/>
      <point x="1174" y="318"/>
      <point x="1114" y="153"/>
      <point x="1011" y="0" type="curve"/>
      <point x="1397" y="0" type="line"/>
      <point x="1500" y="123"/>
      <point x="1553" y="310"/>
      <point x="1553" y="507" type="curve" smooth="yes"/>
      <point x="1553" y="524" type="line" smooth="yes"/>
      <point x="1553" y="968"/>
      <point x="1303" y="1192"/>
      <point x="823" y="1192" type="curve" smooth="yes"/>
      <point x="343" y="1192"/>
      <point x="93" y="968"/>
      <point x="93" y="524" type="curve" smooth="yes"/>
      <point x="93" y="507" type="line" smooth="yes"/>
      <point x="93" y="310"/>
      <point x="146" y="123"/>
      <point x="249" y="0" type="curve"/>
      <point x="635" y="0" type="line"/>
      <point x="532" y="153"/>
      <point x="472" y="318"/>
      <point x="472" y="496" type="curve" smooth="yes"/>
      <point x="472" y="514" type="line" smooth="yes"/>
      <point x="472" y="753"/>
      <point x="591" y="869"/>
    </contour>
  </outline>
</glyph>
<glyph name="Lla.mlm" format="2">
  <advance width="1817"/>
  <unicode hex="0D33"/>
  <outline>
    <contour>
      <point x="521" y="-415" type="curve" smooth="yes"/>
      <point x="1668" y="-415" type="line"/>
      <point x="1716" y="-141" type="line"/>
      <point x="553" y="-141" type="line" smooth="yes"/>
      <point x="490" y="-141"/>
      <point x="458" y="-119"/>
      <point x="458" y="-70" type="curve" smooth="yes"/>
      <point x="458" y="-21"/>
      <point x="490" y="0"/>
      <point x="553" y="0" type="curve" smooth="yes"/>
      <point x="1239" y="0" type="line" smooth="yes"/>
      <point x="1584" y="0"/>
      <point x="1739" y="100"/>
      <point x="1739" y="294" type="curve" smooth="yes"/>
      <point x="1739" y="301" type="line" smooth="yes"/>
      <point x="1739" y="445"/>
      <point x="1637" y="539"/>
      <point x="1431" y="564" type="curve"/>
      <point x="1431" y="573" type="line"/>
      <point x="1623" y="594"/>
      <point x="1716" y="676"/>
      <point x="1716" y="817" type="curve" smooth="yes"/>
      <point x="1716" y="824" type="line" smooth="yes"/>
      <point x="1716" y="1072"/>
      <point x="1469" y="1192"/>
      <point x="952" y="1192" type="curve" smooth="yes"/>
      <point x="382" y="1192"/>
      <point x="88" y="996"/>
      <point x="88" y="639" type="curve" smooth="yes"/>
      <point x="88" y="620" type="line" smooth="yes"/>
      <point x="88" y="362"/>
      <point x="231" y="224"/>
      <point x="546" y="224" type="curve" smooth="yes"/>
      <point x="872" y="224"/>
      <point x="1000" y="342"/>
      <point x="1000" y="542" type="curve" smooth="yes"/>
      <point x="1000" y="549" type="line" smooth="yes"/>
      <point x="1000" y="720"/>
      <point x="901" y="829"/>
      <point x="699" y="829" type="curve" smooth="yes"/>
      <point x="534" y="829"/>
      <point x="438" y="752"/>
      <point x="419" y="646" type="curve"/>
      <point x="429" y="540" type="line"/>
      <point x="455" y="571"/>
      <point x="496" y="588"/>
      <point x="554" y="588" type="curve" smooth="yes"/>
      <point x="623" y="588"/>
      <point x="662" y="566"/>
      <point x="662" y="524" type="curve" smooth="yes"/>
      <point x="662" y="521" type="line" smooth="yes"/>
      <point x="662" y="477"/>
      <point x="623" y="452"/>
      <point x="554" y="452" type="curve" smooth="yes"/>
      <point x="470" y="452"/>
      <point x="431" y="486"/>
      <point x="431" y="544" type="curve" smooth="yes"/>
      <point x="431" y="579" type="line"/>
      <point x="431" y="656" type="line"/>
      <point x="410" y="656" type="line"/>
      <point x="410" y="658" type="line"/>
      <point x="410" y="817"/>
      <point x="590" y="896"/>
      <point x="945" y="896" type="curve" smooth="yes"/>
      <point x="1207" y="896"/>
      <point x="1336" y="859"/>
      <point x="1336" y="783" type="curve" smooth="yes"/>
      <point x="1336" y="780" type="line" smooth="yes"/>
      <point x="1336" y="741"/>
      <point x="1304" y="721"/>
      <point x="1225" y="716" type="curve" smooth="yes"/>
      <point x="1114" y="709" type="line"/>
      <point x="1114" y="429" type="line"/>
      <point x="1223" y="422" type="line" smooth="yes"/>
      <point x="1322" y="416"/>
      <point x="1359" y="393"/>
      <point x="1359" y="340" type="curve" smooth="yes"/>
      <point x="1359" y="336" type="line" smooth="yes"/>
      <point x="1359" y="288"/>
      <point x="1306" y="259"/>
      <point x="1183" y="259" type="curve" smooth="yes"/>
      <point x="521" y="259" type="line" smooth="yes"/>
      <point x="231" y="259"/>
      <point x="88" y="143"/>
      <point x="88" y="-70" type="curve" smooth="yes"/>
      <point x="88" y="-294"/>
      <point x="231" y="-415"/>
    </contour>
  </outline>
</glyph>
<glyph name="Ssa.mlm" format="2">
  <advance width="2975"/>
  <unicode hex="0D37"/>
  <outline>
    <contour>
      <point x="650" y="785" type="curve" smooth="yes"/>
      <point x="279" y="785"/>
      <point x="83" y="625"/>
      <point x="83" y="294" type="curve" smooth="yes"/>
      <point x="83" y="282" type="line" smooth="yes"/>
      <point x="83" y="171"/>
      <point x="107" y="67"/>
      <point x="151" y="0" type="curve"/>
      <point x="521" y="0" type="line"/>
      <point x="479" y="79"/>
      <point x="452" y="160"/>
      <point x="452" y="253" type="curve" smooth="yes"/>
      <point x="452" y="264" type="line" smooth="yes"/>
      <point x="452" y="405"/>
      <point x="513" y="473"/>
      <point x="650" y="473" type="curve" smooth="yes"/>
      <point x="787" y="473"/>
      <point x="847" y="405"/>
      <point x="847" y="264" type="curve" smooth="yes"/>
      <point x="847" y="253" type="line" smooth="yes"/>
      <point x="847" y="172"/>
      <point x="822" y="96"/>
      <point x="778" y="19" type="curve"/>
      <point x="778" y="0" type="line"/>
      <point x="993" y="0" type="line"/>
      <point x="1141" y="95"/>
      <point x="1220" y="248"/>
      <point x="1220" y="359" type="curve" smooth="yes"/>
      <point x="1220" y="371" type="line" smooth="yes"/>
      <point x="1220" y="649"/>
      <point x="1024" y="785"/>
    </contour>
    <contour>
      <point x="934" y="0" type="line"/>
      <point x="2843" y="0" type="line"/>
      <point x="2843" y="1137" type="line"/>
      <point x="2470" y="1137" type="line"/>
      <point x="2470" y="260" type="line"/>
      <point x="1171" y="260" type="line"/>
    </contour>
    <contour>
      <point x="1890" y="790" type="line" smooth="yes"/>
      <point x="1890" y="746"/>
      <point x="1865" y="689"/>
      <point x="1821" y="604" type="curve"/>
      <point x="1811" y="579"/>
      <point x="1771" y="479"/>
      <point x="1761" y="454" type="curve"/>
      <point x="1629" y="197" type="line"/>
      <point x="2002" y="197" type="line"/>
      <point x="2137" y="470" type="line"/>
      <point x="2143" y="490"/>
      <point x="2170" y="571"/>
      <point x="2176" y="591" type="curve"/>
      <point x="2220" y="676"/>
      <point x="2254" y="756"/>
      <point x="2254" y="831" type="curve" smooth="yes"/>
      <point x="2254" y="838" type="line" smooth="yes"/>
      <point x="2254" y="1063"/>
      <point x="2075" y="1184"/>
      <point x="1734" y="1184" type="curve" smooth="yes"/>
      <point x="1404" y="1184"/>
      <point x="1229" y="1047"/>
      <point x="1229" y="785" type="curve" smooth="yes"/>
      <point x="1229" y="781" type="line" smooth="yes"/>
      <point x="1229" y="547"/>
      <point x="1441" y="424"/>
      <point x="1838" y="424" type="curve" smooth="yes"/>
      <point x="1880" y="424" type="line" smooth="yes"/>
      <point x="1926" y="424"/>
      <point x="1972" y="424"/>
      <point x="2018" y="426" type="curve" smooth="yes"/>
      <point x="2180" y="433"/>
      <point x="2319" y="458"/>
      <point x="2502" y="523" type="curve"/>
      <point x="2481" y="801" type="line"/>
      <point x="2372" y="750"/>
      <point x="2248" y="714"/>
      <point x="2134" y="700" type="curve" smooth="yes"/>
      <point x="2064" y="691"/>
      <point x="1993" y="693"/>
      <point x="1930" y="693" type="curve" smooth="yes"/>
      <point x="1833" y="693" type="line" smooth="yes"/>
      <point x="1677" y="693"/>
      <point x="1593" y="720"/>
      <point x="1593" y="796" type="curve" smooth="yes"/>
      <point x="1593" y="799" type="line" smooth="yes"/>
      <point x="1593" y="868"/>
      <point x="1643" y="901"/>
      <point x="1734" y="901" type="curve" smooth="yes"/>
      <point x="1836" y="901"/>
      <point x="1890" y="864"/>
      <point x="1890" y="796" type="curve" smooth="yes"/>
    </contour>
  </outline>
</glyph>
<glyph name="Sa.mlm" format="2">
  <advance width="3031"/>
  <unicode hex="0D38"/>
  <outline>
    <contour>
      <point x="93" y="542" type="curve" smooth="yes"/>
      <point x="93" y="524" type="line" smooth="yes"/>
      <point x="93" y="320"/>
      <point x="147" y="127"/>
      <point x="250" y="0" type="curve"/>
      <point x="636" y="0" type="line"/>
      <point x="529" y="162"/>
      <point x="472" y="334"/>
      <point x="472" y="524" type="curve" smooth="yes"/>
      <point x="472" y="542" type="line" smooth="yes"/>
      <point x="472" y="757"/>
      <point x="559" y="859"/>
      <point x="731" y="859" type="curve" smooth="yes"/>
      <point x="889" y="859"/>
      <point x="963" y="774"/>
      <point x="963" y="598" type="curve" smooth="yes"/>
      <point x="963" y="410" type="line"/>
      <point x="1146" y="410" type="line"/>
      <point x="1145" y="864" type="line"/>
      <point x="1115" y="1045"/>
      <point x="974" y="1184"/>
      <point x="688" y="1184" type="curve" smooth="yes"/>
      <point x="300" y="1184"/>
      <point x="93" y="971"/>
    </contour>
    <contour>
      <point x="963" y="532" type="line"/>
      <point x="963" y="4" type="line"/>
      <point x="1336" y="4" type="line"/>
      <point x="1336" y="532" type="line"/>
    </contour>
    <contour>
      <point x="1547" y="859" type="curve" smooth="yes"/>
      <point x="1692" y="859"/>
      <point x="1760" y="781"/>
      <point x="1760" y="628" type="curve" smooth="yes"/>
      <point x="1760" y="565"/>
      <point x="1760" y="524"/>
      <point x="1760" y="459" type="curve" smooth="yes"/>
      <point x="1760" y="128"/>
      <point x="1955" y="-40"/>
      <point x="2342" y="-40" type="curve" smooth="yes"/>
      <point x="2735" y="-40"/>
      <point x="2937" y="160"/>
      <point x="2937" y="563" type="curve" smooth="yes"/>
      <point x="2937" y="581" type="line" smooth="yes"/>
      <point x="2937" y="796"/>
      <point x="2867" y="1001"/>
      <point x="2734" y="1133" type="curve"/>
      <point x="2359" y="1133" type="line"/>
      <point x="2490" y="966"/>
      <point x="2558" y="787"/>
      <point x="2558" y="590" type="curve" smooth="yes"/>
      <point x="2558" y="572" type="line" smooth="yes"/>
      <point x="2558" y="377"/>
      <point x="2486" y="282"/>
      <point x="2341" y="282" type="curve" smooth="yes"/>
      <point x="2200" y="282"/>
      <point x="2133" y="357"/>
      <point x="2133" y="510" type="curve" smooth="yes"/>
      <point x="2133" y="572"/>
      <point x="2133" y="610"/>
      <point x="2133" y="672" type="curve" smooth="yes"/>
      <point x="2133" y="1013"/>
      <point x="1951" y="1184"/>
      <point x="1595" y="1184" type="curve" smooth="yes"/>
      <point x="1317" y="1184"/>
      <point x="1182" y="1045"/>
      <point x="1154" y="864" type="curve"/>
      <point x="1081" y="864" type="line"/>
      <point x="1081" y="421" type="line"/>
      <point x="1336" y="408" type="line"/>
      <point x="1336" y="628" type="line" smooth="yes"/>
      <point x="1336" y="781"/>
      <point x="1404" y="859"/>
    </contour>
  </outline>
</glyph>
<glyph name="Ha.mlm" format="2">
  <advance width="2964"/>
  <unicode hex="0D39"/>
  <outline>
    <contour>
      <point x="650" y="785" type="curve" smooth="yes"/>
      <point x="279" y="785"/>
      <point x="83" y="625"/>
      <point x="83" y="294" type="curve" smooth="yes"/>
      <point x="83" y="282" type="line" smooth="yes"/>
      <point x="83" y="171"/>
      <point x="107" y="67"/>
      <point x="151" y="0" type="curve"/>
      <point x="521" y="0" type="line"/>
      <point x="479" y="79"/>
      <point x="452" y="160"/>
      <point x="452" y="253" type="curve" smooth="yes"/>
      <point x="452" y="264" type="line" smooth="yes"/>
      <point x="452" y="405"/>
      <point x="513" y="473"/>
      <point x="650" y="473" type="curve" smooth="yes"/>
      <point x="787" y="473"/>
      <point x="847" y="405"/>
      <point x="847" y="264" type="curve" smooth="yes"/>
      <point x="847" y="253" type="line" smooth="yes"/>
      <point x="847" y="172"/>
      <point x="822" y="96"/>
      <point x="778" y="19" type="curve"/>
      <point x="778" y="0" type="line"/>
      <point x="993" y="0" type="line"/>
      <point x="1141" y="95"/>
      <point x="1220" y="248"/>
      <point x="1220" y="359" type="curve" smooth="yes"/>
      <point x="1220" y="371" type="line" smooth="yes"/>
      <point x="1220" y="649"/>
      <point x="1024" y="785"/>
    </contour>
    <contour>
      <point x="1171" y="287" type="line"/>
      <point x="792" y="0" type="line"/>
      <point x="2006" y="0" type="line"/>
      <point x="1645" y="287" type="line"/>
    </contour>
    <contour>
      <point x="2170" y="869" type="curve" smooth="yes"/>
      <point x="2380" y="869"/>
      <point x="2491" y="753"/>
      <point x="2491" y="514" type="curve" smooth="yes"/>
      <point x="2491" y="496" type="line" smooth="yes"/>
      <point x="2491" y="318"/>
      <point x="2431" y="153"/>
      <point x="2330" y="0" type="curve"/>
      <point x="2715" y="0" type="line"/>
      <point x="2816" y="123"/>
      <point x="2870" y="310"/>
      <point x="2870" y="507" type="curve" smooth="yes"/>
      <point x="2870" y="524" type="line" smooth="yes"/>
      <point x="2870" y="968"/>
      <point x="2628" y="1192"/>
      <point x="2173" y="1192" type="curve" smooth="yes"/>
      <point x="1711" y="1192"/>
      <point x="1474" y="965"/>
      <point x="1474" y="551" type="curve" smooth="yes"/>
      <point x="1474" y="533" type="line" smooth="yes"/>
      <point x="1474" y="325"/>
      <point x="1557" y="130"/>
      <point x="1716" y="0" type="curve"/>
      <point x="2006" y="0" type="line"/>
      <point x="2006" y="19" type="line"/>
      <point x="1908" y="167"/>
      <point x="1852" y="325"/>
      <point x="1852" y="496" type="curve" smooth="yes"/>
      <point x="1852" y="514" type="line" smooth="yes"/>
      <point x="1852" y="753"/>
      <point x="1960" y="869"/>
    </contour>
  </outline>
</glyph>
<glyph name="verticalbarviramasign.mlm" format="2">
  <unicode hex="0D3B"/>
  <outline>
    <contour>
      <point x="-989" y="1797" type="line"/>
      <point x="-989" y="1294" type="line"/>
      <point x="-649" y="1294" type="line"/>
      <point x="-649" y="1797" type="line"/>
    </contour>
  </outline>
</glyph>
<glyph name="matraU.mlm" format="2">
  <advance width="1137"/>
  <unicode hex="0D41"/>
  <outline>
    <contour>
      <point x="536" y="-118" type="curve" smooth="yes"/>
      <point x="432" y="-118"/>
      <point x="379" y="-77"/>
      <point x="379" y="2" type="curve" smooth="yes"/>
      <point x="379" y="11" type="line" smooth="yes"/>
      <point x="379" y="90"/>
      <point x="432" y="130"/>
      <point x="536" y="130" type="curve" smooth="yes"/>
      <point x="640" y="130"/>
      <point x="692" y="90"/>
      <point x="692" y="11" type="curve" smooth="yes"/>
      <point x="692" y="2" type="line" smooth="yes"/>
      <point x="692" y="-77"/>
      <point x="640" y="-118"/>
    </contour>
    <contour>
      <point x="536" y="407" type="curve" smooth="yes"/>
      <point x="203" y="407"/>
      <point x="25" y="273"/>
      <point x="25" y="21" type="curve" smooth="yes"/>
      <point x="25" y="12" type="line" smooth="yes"/>
      <point x="25" y="-271"/>
      <point x="203" y="-415"/>
      <point x="536" y="-415" type="curve" smooth="yes"/>
      <point x="869" y="-415"/>
      <point x="1046" y="-276"/>
      <point x="1046" y="-5" type="curve" smooth="yes"/>
      <point x="1046" y="4" type="line" smooth="yes"/>
      <point x="1046" y="256"/>
      <point x="882" y="387"/>
      <point x="574" y="401" type="curve"/>
      <point x="562" y="401"/>
      <point x="550" y="407"/>
    </contour>
    <contour>
      <point x="1011" y="720" type="curve" smooth="yes"/>
      <point x="1011" y="729" type="line" smooth="yes"/>
      <point x="1011" y="1032"/>
      <point x="838" y="1188"/>
      <point x="516" y="1188" type="curve" smooth="yes"/>
      <point x="370" y="1188"/>
      <point x="241" y="1155"/>
      <point x="148" y="1104" type="curve"/>
      <point x="117" y="783" type="line"/>
      <point x="205" y="832"/>
      <point x="303" y="868"/>
      <point x="428" y="868" type="curve" smooth="yes"/>
      <point x="567" y="868"/>
      <point x="634" y="796"/>
      <point x="634" y="683" type="curve" smooth="yes"/>
      <point x="634" y="674" type="line" smooth="yes"/>
      <point x="634" y="561"/>
      <point x="555" y="453"/>
      <point x="398" y="392" type="curve"/>
      <point x="625" y="268" type="line"/>
      <point x="891" y="351"/>
      <point x="1011" y="501"/>
    </contour>
  </outline>
</glyph>
<glyph name="matraUu.mlm" format="2">
  <advance width="1137"/>
  <unicode hex="0D42"/>
  <outline>
    <contour>
      <point x="536" y="104" type="curve" smooth="yes"/>
      <point x="450" y="104"/>
      <point x="385" y="121"/>
      <point x="357" y="147" type="curve"/>
      <point x="278" y="129" type="line"/>
      <point x="281" y="42" type="line"/>
      <point x="324" y="-46"/>
      <point x="415" y="-94"/>
      <point x="536" y="-94" type="curve" smooth="yes"/>
      <point x="657" y="-94"/>
      <point x="747" y="-46"/>
      <point x="790" y="42" type="curve"/>
      <point x="793" y="129" type="line"/>
      <point x="714" y="147" type="line"/>
      <point x="686" y="121"/>
      <point x="622" y="104"/>
    </contour>
    <contour>
      <point x="536" y="-181" type="curve" smooth="yes"/>
      <point x="397" y="-181"/>
      <point x="319" y="-112"/>
      <point x="319" y="2" type="curve" smooth="yes"/>
      <point x="319" y="11" type="line" smooth="yes"/>
      <point x="319" y="125"/>
      <point x="397" y="194"/>
      <point x="536" y="194" type="curve" smooth="yes"/>
      <point x="675" y="194"/>
      <point x="752" y="125"/>
      <point x="752" y="11" type="curve" smooth="yes"/>
      <point x="752" y="2" type="line" smooth="yes"/>
      <point x="752" y="-112"/>
      <point x="675" y="-181"/>
    </contour>
    <contour>
      <point x="536" y="424" type="curve" smooth="yes"/>
      <point x="203" y="424"/>
      <point x="25" y="275"/>
      <point x="25" y="12" type="curve" smooth="yes"/>
      <point x="25" y="4" type="line" smooth="yes"/>
      <point x="25" y="-291"/>
      <point x="203" y="-433"/>
      <point x="536" y="-433" type="curve" smooth="yes"/>
      <point x="869" y="-433"/>
      <point x="1046" y="-297"/>
      <point x="1046" y="-14" type="curve" smooth="yes"/>
      <point x="1046" y="-5" type="line" smooth="yes"/>
      <point x="1046" y="258"/>
      <point x="882" y="404"/>
      <point x="574" y="419" type="curve"/>
      <point x="562" y="419"/>
      <point x="550" y="424"/>
    </contour>
    <contour>
      <point x="1011" y="720" type="curve" smooth="yes"/>
      <point x="1011" y="729" type="line" smooth="yes"/>
      <point x="1011" y="1032"/>
      <point x="838" y="1188"/>
      <point x="516" y="1188" type="curve" smooth="yes"/>
      <point x="370" y="1188"/>
      <point x="241" y="1155"/>
      <point x="148" y="1104" type="curve"/>
      <point x="117" y="783" type="line"/>
      <point x="205" y="832"/>
      <point x="303" y="868"/>
      <point x="428" y="868" type="curve" smooth="yes"/>
      <point x="567" y="868"/>
      <point x="634" y="796"/>
      <point x="634" y="683" type="curve" smooth="yes"/>
      <point x="634" y="674" type="line" smooth="yes"/>
      <point x="634" y="561"/>
      <point x="555" y="453"/>
      <point x="398" y="392" type="curve"/>
      <point x="625" y="268" type="line"/>
      <point x="891" y="351"/>
      <point x="1011" y="501"/>
    </contour>
  </outline>
</glyph>
<glyph name="matrashortE.mlm" format="2">
  <advance width="1847"/>
  <unicode hex="0D46"/>
  <outline>
    <contour>
      <point x="911" y="891" type="curve" smooth="yes"/>
      <point x="1212" y="891"/>
      <point x="1374" y="750"/>
      <point x="1374" y="470" type="curve" smooth="yes"/>
      <point x="1374" y="451" type="line" smooth="yes"/>
      <point x="1374" y="293"/>
      <point x="1336" y="157"/>
      <point x="1252" y="0" type="curve"/>
      <point x="1636" y="0" type="line"/>
      <point x="1708" y="116"/>
      <point x="1754" y="299"/>
      <point x="1754" y="477" type="curve" smooth="yes"/>
      <point x="1754" y="495" type="line" smooth="yes"/>
      <point x="1754" y="953"/>
      <point x="1465" y="1192"/>
      <point x="916" y="1192" type="curve" smooth="yes"/>
      <point x="363" y="1192"/>
      <point x="85" y="946"/>
      <point x="85" y="502" type="curve" smooth="yes"/>
      <point x="85" y="480" type="line" smooth="yes"/>
      <point x="85" y="142"/>
      <point x="270" y="-39"/>
      <point x="626" y="-39" type="curve" smooth="yes"/>
      <point x="967" y="-39"/>
      <point x="1141" y="97"/>
      <point x="1141" y="363" type="curve" smooth="yes"/>
      <point x="1141" y="371" type="line" smooth="yes"/>
      <point x="1141" y="612"/>
      <point x="1011" y="737"/>
      <point x="791" y="737" type="curve" smooth="yes"/>
      <point x="597" y="737"/>
      <point x="480" y="653"/>
      <point x="443" y="491" type="curve"/>
      <point x="455" y="387" type="line"/>
      <point x="487" y="431"/>
      <point x="549" y="458"/>
      <point x="628" y="458" type="curve" smooth="yes"/>
      <point x="727" y="458"/>
      <point x="777" y="422"/>
      <point x="777" y="357" type="curve" smooth="yes"/>
      <point x="777" y="350" type="line" smooth="yes"/>
      <point x="777" y="283"/>
      <point x="723" y="245"/>
      <point x="628" y="245" type="curve" smooth="yes"/>
      <point x="515" y="245"/>
      <point x="457" y="296"/>
      <point x="457" y="400" type="curve" smooth="yes"/>
      <point x="457" y="415" type="line" smooth="yes"/>
      <point x="457" y="424.615"/>
      <point x="457" y="494.475"/>
      <point x="457" y="503" type="curve"/>
      <point x="454.958" y="503"/>
      <point x="438.29" y="503"/>
      <point x="436" y="503" type="curve"/>
      <point x="436" y="509" type="line" smooth="yes"/>
      <point x="436" y="769"/>
      <point x="607" y="891"/>
    </contour>
  </outline>
</glyph>
<glyph name="parasign.mlm" format="2">
  <advance width="3298"/>
  <unicode hex="0D4F"/>
  <outline>
    <contour>
      <point x="468" y="431" type="curve" smooth="yes"/>
      <point x="468" y="449" type="line" smooth="yes"/>
      <point x="468" y="699"/>
      <point x="561" y="924"/>
      <point x="755" y="1137" type="curve"/>
      <point x="363" y="1137" type="line"/>
      <point x="196" y="968"/>
      <point x="93" y="711"/>
      <point x="93" y="442" type="curve" smooth="yes"/>
      <point x="93" y="424" type="line" smooth="yes"/>
      <point x="93" y="-227"/>
      <point x="528" y="-565"/>
      <point x="1647" y="-565" type="curve" smooth="yes"/>
      <point x="2761" y="-565"/>
      <point x="3204" y="-229"/>
      <point x="3204" y="454" type="curve" smooth="yes"/>
      <point x="3204" y="470" type="line" smooth="yes"/>
      <point x="3204" y="947"/>
      <point x="2994" y="1184"/>
      <point x="2586" y="1184" type="curve" smooth="yes"/>
      <point x="2295" y="1184"/>
      <point x="2145" y="1042"/>
      <point x="2122" y="857" type="curve"/>
      <point x="2049" y="857" type="line"/>
      <point x="2049" y="422" type="line"/>
      <point x="2302" y="410" type="line"/>
      <point x="2302" y="600" type="line" smooth="yes"/>
      <point x="2302" y="774"/>
      <point x="2380" y="859"/>
      <point x="2543" y="859" type="curve" smooth="yes"/>
      <point x="2727" y="859"/>
      <point x="2825" y="732"/>
      <point x="2825" y="470" type="curve" smooth="yes"/>
      <point x="2825" y="454" type="line" smooth="yes"/>
      <point x="2825" y="-23"/>
      <point x="2483" y="-259"/>
      <point x="1647" y="-259" type="curve" smooth="yes"/>
      <point x="816" y="-259"/>
      <point x="468" y="-32"/>
    </contour>
    <contour>
      <point x="1931" y="4" type="line"/>
      <point x="2303" y="4" type="line"/>
      <point x="2303" y="549" type="line"/>
      <point x="1931" y="532" type="line"/>
    </contour>
    <contour>
      <point x="1486" y="1184" type="curve" smooth="yes"/>
      <point x="970" y="1184"/>
      <point x="699" y="942"/>
      <point x="699" y="498" type="curve" smooth="yes"/>
      <point x="699" y="477" type="line" smooth="yes"/>
      <point x="699" y="143"/>
      <point x="884" y="-39"/>
      <point x="1238" y="-39" type="curve" smooth="yes"/>
      <point x="1574" y="-39"/>
      <point x="1748" y="97"/>
      <point x="1748" y="361" type="curve" smooth="yes"/>
      <point x="1748" y="370" type="line" smooth="yes"/>
      <point x="1748" y="609"/>
      <point x="1618" y="734"/>
      <point x="1403" y="734" type="curve" smooth="yes"/>
      <point x="1211" y="734"/>
      <point x="1093" y="650"/>
      <point x="1056" y="488" type="curve"/>
      <point x="1069" y="385" type="line"/>
      <point x="1101" y="429"/>
      <point x="1161" y="454"/>
      <point x="1238" y="454" type="curve" smooth="yes"/>
      <point x="1335" y="454"/>
      <point x="1384" y="421"/>
      <point x="1384" y="356" type="curve" smooth="yes"/>
      <point x="1384" y="348" type="line" smooth="yes"/>
      <point x="1384" y="283"/>
      <point x="1331" y="246"/>
      <point x="1238" y="246" type="curve" smooth="yes"/>
      <point x="1127" y="246"/>
      <point x="1070" y="296"/>
      <point x="1070" y="398" type="curve" smooth="yes"/>
      <point x="1070" y="414" type="line"/>
      <point x="1070" y="500" type="line"/>
      <point x="1049" y="500" type="line"/>
      <point x="1049" y="505" type="line" smooth="yes"/>
      <point x="1049" y="765"/>
      <point x="1211" y="884"/>
      <point x="1500" y="884" type="curve" smooth="yes"/>
      <point x="1782" y="884"/>
      <point x="1931" y="773"/>
      <point x="1931" y="551" type="curve" smooth="yes"/>
      <point x="1931" y="502" type="line"/>
      <point x="2114" y="502" type="line"/>
      <point x="2113" y="857" type="line"/>
      <point x="2064" y="1045"/>
      <point x="1875" y="1184"/>
    </contour>
  </outline>
</glyph>
<glyph name="oneonehundredandsixtieth.mlm" format="2">
  <advance width="3112"/>
  <unicode hex="0D58"/>
  <outline>
    <contour>
      <point x="947" y="614" type="line"/>
      <point x="1320" y="604" type="line"/>
      <point x="1320" y="1119" type="line"/>
      <point x="947" y="1119" type="line"/>
    </contour>
    <contour>
      <point x="1129" y="275" type="curve"/>
      <point x="1130" y="723" type="line"/>
      <point x="947" y="723" type="line"/>
      <point x="947" y="544" type="line" smooth="yes"/>
      <point x="947" y="372"/>
      <point x="871" y="287"/>
      <point x="720" y="287" type="curve" smooth="yes"/>
      <point x="550" y="287"/>
      <point x="472" y="388"/>
      <point x="472" y="597" type="curve" smooth="yes"/>
      <point x="472" y="614" type="line" smooth="yes"/>
      <point x="472" y="801"/>
      <point x="534" y="974"/>
      <point x="653" y="1132" type="curve"/>
      <point x="277" y="1132" type="line"/>
      <point x="156" y="1004"/>
      <point x="93" y="809"/>
      <point x="93" y="605" type="curve" smooth="yes"/>
      <point x="93" y="588" type="line" smooth="yes"/>
      <point x="93" y="167"/>
      <point x="288" y="-40"/>
      <point x="671" y="-40" type="curve" smooth="yes"/>
      <point x="959" y="-40"/>
      <point x="1099" y="99"/>
    </contour>
    <contour>
      <point x="1543" y="-40" type="curve" smooth="yes"/>
      <point x="1798" y="-40"/>
      <point x="1921" y="101"/>
      <point x="1949" y="275" type="curve"/>
      <point x="2022" y="275" type="line"/>
      <point x="2022" y="706" type="line"/>
      <point x="1766" y="718" type="line"/>
      <point x="1766" y="528" type="line" smooth="yes"/>
      <point x="1766" y="367"/>
      <point x="1693" y="287"/>
      <point x="1543" y="287" type="curve" smooth="yes"/>
      <point x="1393" y="287"/>
      <point x="1320" y="367"/>
      <point x="1320" y="528" type="curve" smooth="yes"/>
      <point x="1320" y="718" type="line"/>
      <point x="1065" y="706" type="line"/>
      <point x="1065" y="275" type="line"/>
      <point x="1138" y="275" type="line"/>
      <point x="1163" y="101"/>
      <point x="1288" y="-40"/>
    </contour>
    <contour>
      <point x="2140" y="614" type="line"/>
      <point x="2140" y="1119" type="line"/>
      <point x="1766" y="1119" type="line"/>
      <point x="1766" y="604" type="line"/>
    </contour>
    <contour>
      <point x="2640" y="642" type="line" smooth="yes"/>
      <point x="2640" y="401"/>
      <point x="2552" y="287"/>
      <point x="2370" y="287" type="curve" smooth="yes"/>
      <point x="2216" y="287"/>
      <point x="2140" y="372"/>
      <point x="2140" y="544" type="curve" smooth="yes"/>
      <point x="2140" y="723" type="line"/>
      <point x="1957" y="723" type="line"/>
      <point x="1958" y="275" type="line"/>
      <point x="1988" y="99"/>
      <point x="2129" y="-40"/>
      <point x="2420" y="-40" type="curve" smooth="yes"/>
      <point x="2815" y="-40"/>
      <point x="3018" y="181"/>
      <point x="3018" y="635" type="curve" smooth="yes"/>
      <point x="3018" y="655" type="line" smooth="yes"/>
      <point x="3018" y="1306"/>
      <point x="2564" y="1672"/>
      <point x="1726" y="1672" type="curve" smooth="yes"/>
      <point x="1494" y="1672"/>
      <point x="1240" y="1644"/>
      <point x="1027" y="1582" type="curve"/>
      <point x="939" y="1270" type="line"/>
      <point x="1124" y="1323"/>
      <point x="1404" y="1372"/>
      <point x="1710" y="1372" type="curve" smooth="yes"/>
      <point x="2302" y="1372"/>
      <point x="2640" y="1134"/>
      <point x="2640" y="658" type="curve" smooth="yes"/>
    </contour>
  </outline>
</glyph>
<glyph name="onetwentieth.mlm" format="2">
  <advance width="2296"/>
  <unicode hex="0D5B"/>
  <outline>
    <contour>
      <point x="493" y="0" type="line"/>
      <point x="493" y="1137" type="line"/>
      <point x="120" y="1137" type="line"/>
      <point x="120" y="0" type="line"/>
    </contour>
    <contour>
      <point x="993" y="850" type="line"/>
      <point x="1373" y="1137" type="line"/>
      <point x="160" y="1137" type="line"/>
      <point x="160" y="850" type="line"/>
    </contour>
    <contour>
      <point x="1519" y="269" type="curve" smooth="yes"/>
      <point x="1318" y="269"/>
      <point x="1218" y="385"/>
      <point x="1218" y="623" type="curve" smooth="yes"/>
      <point x="1218" y="641" type="line" smooth="yes"/>
      <point x="1218" y="812"/>
      <point x="1274" y="970"/>
      <point x="1373" y="1118" type="curve"/>
      <point x="1373" y="1137" type="line"/>
      <point x="1091" y="1137" type="line"/>
      <point x="926" y="1005"/>
      <point x="840" y="806"/>
      <point x="840" y="595" type="curve" smooth="yes"/>
      <point x="840" y="577" type="line" smooth="yes"/>
      <point x="840" y="162"/>
      <point x="1070" y="-53"/>
      <point x="1519" y="-53" type="curve" smooth="yes"/>
      <point x="1966" y="-53"/>
      <point x="2202" y="170"/>
      <point x="2202" y="612" type="curve" smooth="yes"/>
      <point x="2202" y="630" type="line" smooth="yes"/>
      <point x="2202" y="827"/>
      <point x="2145" y="1014"/>
      <point x="2038" y="1137" type="curve"/>
      <point x="1662" y="1137" type="line"/>
      <point x="1764" y="984"/>
      <point x="1824" y="819"/>
      <point x="1824" y="641" type="curve" smooth="yes"/>
      <point x="1824" y="623" type="line" smooth="yes"/>
      <point x="1824" y="385"/>
      <point x="1718" y="269"/>
    </contour>
  </outline>
</glyph>
<glyph name="archaicIi.mlm" format="2">
  <advance width="3666"/>
  <unicode hex="0D5F"/>
  <outline>
    <component base="Ra.mlm" xOffset="893"/>
    <contour>
      <point x="567" y="542" type="curve" smooth="yes"/>
      <point x="567" y="535" type="line" smooth="yes"/>
      <point x="567" y="479"/>
      <point x="528" y="451"/>
      <point x="466" y="451" type="curve" smooth="yes"/>
      <point x="404" y="451"/>
      <point x="368" y="479"/>
      <point x="368" y="535" type="curve" smooth="yes"/>
      <point x="368" y="542" type="line" smooth="yes"/>
      <point x="368" y="598"/>
      <point x="404" y="628"/>
      <point x="466" y="628" type="curve" smooth="yes"/>
      <point x="528" y="628"/>
      <point x="567" y="598"/>
    </contour>
    <contour>
      <point x="466" y="875" type="curve" smooth="yes"/>
      <point x="186" y="875"/>
      <point x="40" y="766"/>
      <point x="40" y="544" type="curve" smooth="yes"/>
      <point x="40" y="535" type="line" smooth="yes"/>
      <point x="40" y="311"/>
      <point x="186" y="202"/>
      <point x="466" y="202" type="curve" smooth="yes"/>
      <point x="746" y="202"/>
      <point x="894" y="311"/>
      <point x="894" y="535" type="curve" smooth="yes"/>
      <point x="894" y="544" type="line" smooth="yes"/>
      <point x="894" y="766"/>
      <point x="746" y="875"/>
    </contour>
    <contour>
      <point x="3298" y="542" type="curve" smooth="yes"/>
      <point x="3298" y="535" type="line" smooth="yes"/>
      <point x="3298" y="479"/>
      <point x="3260" y="451"/>
      <point x="3198" y="451" type="curve" smooth="yes"/>
      <point x="3136" y="451"/>
      <point x="3099" y="479"/>
      <point x="3099" y="535" type="curve" smooth="yes"/>
      <point x="3099" y="542" type="line" smooth="yes"/>
      <point x="3099" y="598"/>
      <point x="3136" y="628"/>
      <point x="3198" y="628" type="curve" smooth="yes"/>
      <point x="3260" y="628"/>
      <point x="3298" y="598"/>
    </contour>
    <contour>
      <point x="2772" y="544" type="curve" smooth="yes"/>
      <point x="2772" y="535" type="line" smooth="yes"/>
      <point x="2772" y="311"/>
      <point x="2918" y="202"/>
      <point x="3198" y="202" type="curve" smooth="yes"/>
      <point x="3478" y="202"/>
      <point x="3626" y="311"/>
      <point x="3626" y="535" type="curve" smooth="yes"/>
      <point x="3626" y="544" type="line" smooth="yes"/>
      <point x="3626" y="766"/>
      <point x="3478" y="875"/>
      <point x="3198" y="875" type="curve" smooth="yes"/>
      <point x="2918" y="875"/>
      <point x="2772" y="766"/>
    </contour>
  </outline>
</glyph>
<glyph name="vowelRuu.mlm" format="2">
  <advance width="2112"/>
  <unicode hex="0D60"/>
  <outline>
    <contour>
      <point x="1162" y="-431" type="line" smooth="yes"/>
      <point x="1623" y="-431"/>
      <point x="1864" y="-296"/>
      <point x="1864" y="-42" type="curve" smooth="yes"/>
      <point x="1864" y="115"/>
      <point x="1783" y="203"/>
      <point x="1633" y="238" type="curve"/>
      <point x="1633" y="275" type="line"/>
      <point x="1250" y="412" type="line"/>
      <point x="862" y="412" type="line"/>
      <point x="479" y="275" type="line"/>
      <point x="479" y="238" type="line"/>
      <point x="329" y="203"/>
      <point x="248" y="115"/>
      <point x="248" y="-42" type="curve" smooth="yes"/>
      <point x="248" y="-296"/>
      <point x="489" y="-431"/>
      <point x="950" y="-431" type="curve" smooth="yes"/>
    </contour>
    <contour>
      <point x="1144" y="169" type="line" smooth="yes"/>
      <point x="1413" y="169"/>
      <point x="1533" y="115"/>
      <point x="1533" y="-9" type="curve" smooth="yes"/>
      <point x="1533" y="-133"/>
      <point x="1413" y="-188"/>
      <point x="1144" y="-188" type="curve" smooth="yes"/>
      <point x="968" y="-188" type="line" smooth="yes"/>
      <point x="699" y="-188"/>
      <point x="579" y="-133"/>
      <point x="579" y="-9" type="curve" smooth="yes"/>
      <point x="579" y="115"/>
      <point x="699" y="169"/>
      <point x="968" y="169" type="curve" smooth="yes"/>
    </contour>
    <contour>
      <point x="878" y="121" type="curve" smooth="yes"/>
      <point x="741" y="121"/>
      <point x="663" y="53"/>
      <point x="663" y="-72" type="curve" smooth="yes"/>
      <point x="663" y="-98" type="line"/>
      <point x="864" y="-113" type="line"/>
      <point x="864" y="-85" type="line" smooth="yes"/>
      <point x="864" y="-50"/>
      <point x="877" y="-32"/>
      <point x="911" y="-32" type="curve" smooth="yes"/>
      <point x="945" y="-32"/>
      <point x="958" y="-52"/>
      <point x="959" y="-82" type="curve" smooth="yes"/>
      <point x="960" y="-107" type="line"/>
      <point x="1154" y="-107" type="line"/>
      <point x="1155" y="-82" type="line" smooth="yes"/>
      <point x="1156" y="-52"/>
      <point x="1168" y="-32"/>
      <point x="1202" y="-32" type="curve" smooth="yes"/>
      <point x="1236" y="-32"/>
      <point x="1249" y="-50"/>
      <point x="1249" y="-85" type="curve" smooth="yes"/>
      <point x="1249" y="-113" type="line"/>
      <point x="1450" y="-98" type="line"/>
      <point x="1450" y="-72" type="line" smooth="yes"/>
      <point x="1450" y="53"/>
      <point x="1374" y="121"/>
      <point x="1237" y="121" type="curve" smooth="yes"/>
      <point x="1134" y="121"/>
      <point x="1072" y="83"/>
      <point x="1061" y="21" type="curve"/>
      <point x="1054" y="21" type="line"/>
      <point x="1043" y="83"/>
      <point x="981" y="121"/>
    </contour>
    <contour>
      <point x="1707" y="673" type="line" smooth="yes"/>
      <point x="1707" y="507"/>
      <point x="1523" y="412"/>
      <point x="1160" y="412" type="curve"/>
      <point x="1498" y="199" type="line"/>
      <point x="1543" y="212"/>
      <point x="1584" y="242"/>
      <point x="1633" y="248" type="curve" smooth="yes"/>
      <point x="1857" y="278"/>
      <point x="2042" y="439"/>
      <point x="2042" y="720" type="curve" smooth="yes"/>
      <point x="2042" y="737" type="line" smooth="yes"/>
      <point x="2042" y="1016"/>
      <point x="1891" y="1184"/>
      <point x="1547" y="1184" type="curve" smooth="yes"/>
      <point x="1252" y="1184"/>
      <point x="1105" y="1058"/>
      <point x="1105" y="836" type="curve" smooth="yes"/>
      <point x="1105" y="826" type="line" smooth="yes"/>
      <point x="1105" y="637"/>
      <point x="1212" y="525"/>
      <point x="1417" y="525" type="curve" smooth="yes"/>
      <point x="1575" y="525"/>
      <point x="1675" y="591"/>
      <point x="1698" y="685" type="curve"/>
      <point x="1688" y="798" type="line"/>
      <point x="1659" y="766"/>
      <point x="1615" y="747"/>
      <point x="1549" y="747" type="curve" smooth="yes"/>
      <point x="1481" y="747"/>
      <point x="1440" y="777"/>
      <point x="1440" y="828" type="curve" smooth="yes"/>
      <point x="1440" y="831" type="line" smooth="yes"/>
      <point x="1440" y="886"/>
      <point x="1483" y="919"/>
      <point x="1554" y="919" type="curve" smooth="yes"/>
      <point x="1643" y="919"/>
      <point x="1686" y="868"/>
      <point x="1686" y="791" type="curve" smooth="yes"/>
      <point x="1686" y="748" type="line"/>
      <point x="1686" y="678" type="line"/>
      <point x="1707" y="678" type="line"/>
    </contour>
    <contour>
      <point x="952" y="412" type="line"/>
      <point x="589" y="412"/>
      <point x="405" y="507"/>
      <point x="405" y="673" type="curve" smooth="yes"/>
      <point x="405" y="678" type="line"/>
      <point x="426" y="678" type="line"/>
      <point x="426" y="748" type="line"/>
      <point x="426" y="791" type="line" smooth="yes"/>
      <point x="426" y="868"/>
      <point x="469" y="919"/>
      <point x="558" y="919" type="curve" smooth="yes"/>
      <point x="630" y="919"/>
      <point x="672" y="886"/>
      <point x="672" y="831" type="curve" smooth="yes"/>
      <point x="672" y="828" type="line" smooth="yes"/>
      <point x="672" y="777"/>
      <point x="631" y="747"/>
      <point x="563" y="747" type="curve" smooth="yes"/>
      <point x="497" y="747"/>
      <point x="453" y="766"/>
      <point x="424" y="798" type="curve"/>
      <point x="414" y="685" type="line"/>
      <point x="437" y="591"/>
      <point x="537" y="525"/>
      <point x="695" y="525" type="curve" smooth="yes"/>
      <point x="900" y="525"/>
      <point x="1007" y="637"/>
      <point x="1007" y="826" type="curve" smooth="yes"/>
      <point x="1007" y="836" type="line" smooth="yes"/>
      <point x="1007" y="1058"/>
      <point x="860" y="1184"/>
      <point x="565" y="1184" type="curve" smooth="yes"/>
      <point x="221" y="1184"/>
      <point x="70" y="1016"/>
      <point x="70" y="737" type="curve" smooth="yes"/>
      <point x="70" y="720" type="line" smooth="yes"/>
      <point x="70" y="439"/>
      <point x="255" y="278"/>
      <point x="479" y="248" type="curve" smooth="yes"/>
      <point x="528" y="242"/>
      <point x="569" y="212"/>
      <point x="614" y="199" type="curve"/>
    </contour>
  </outline>
</glyph>
<glyph name="uni0D62" format="2">
  <unicode hex="0D62"/>
  <outline>
    <contour>
      <point x="-1189" y="-558" type="line"/>
      <point x="-914" y="-558" type="line"/>
      <point x="-914" y="-268" type="line"/>
      <point x="-1189" y="-266" type="line"/>
    </contour>
    <contour>
      <point x="-1518" y="148" type="curve" smooth="yes"/>
      <point x="-1895" y="148"/>
      <point x="-2085" y="12"/>
      <point x="-2085" y="-264" type="curve" smooth="yes"/>
      <point x="-2085" y="-275" type="line" smooth="yes"/>
      <point x="-2085" y="-479"/>
      <point x="-1956" y="-584"/>
      <point x="-1695" y="-584" type="curve" smooth="yes"/>
      <point x="-1451" y="-584"/>
      <point x="-1320" y="-503"/>
      <point x="-1320" y="-332" type="curve"/>
      <point x="-1320" y="-331" type="line"/>
      <point x="-1320" y="-188"/>
      <point x="-1422" y="-107"/>
      <point x="-1585" y="-107" type="curve" smooth="yes"/>
      <point x="-1708.85" y="-107"/>
      <point x="-1796.4" y="-158.497"/>
      <point x="-1822" y="-255" type="curve"/>
      <point x="-1816" y="-325" type="line"/>
      <point x="-1788" y="-299"/>
      <point x="-1748" y="-286"/>
      <point x="-1696" y="-286" type="curve" smooth="yes"/>
      <point x="-1630" y="-286"/>
      <point x="-1595" y="-305"/>
      <point x="-1595" y="-343" type="curve"/>
      <point x="-1595" y="-345" type="line"/>
      <point x="-1595" y="-385"/>
      <point x="-1635" y="-403"/>
      <point x="-1698" y="-403" type="curve" smooth="yes"/>
      <point x="-1769" y="-403"/>
      <point x="-1809" y="-376"/>
      <point x="-1809" y="-322" type="curve" smooth="yes"/>
      <point x="-1809" y="-290" type="line"/>
      <point x="-1817" y="-241" type="line"/>
      <point x="-1823" y="-241" type="line"/>
      <point x="-1823" y="-113.825"/>
      <point x="-1705.97" y="-44"/>
      <point x="-1507" y="-44" type="curve" smooth="yes"/>
      <point x="-1294" y="-44"/>
      <point x="-1189" y="-119"/>
      <point x="-1189" y="-260" type="curve" smooth="yes"/>
      <point x="-1189" y="-331" type="line"/>
      <point x="-998" y="-334" type="line"/>
      <point x="-1055" y="-29" type="line"/>
      <point x="-1113" y="89"/>
      <point x="-1281" y="148"/>
    </contour>
    <contour>
      <point x="-585" y="148" type="curve" smooth="yes"/>
      <point x="-822" y="148"/>
      <point x="-991" y="89"/>
      <point x="-1048" y="-29" type="curve"/>
      <point x="-1111" y="-29" type="line"/>
      <point x="-1105" y="-334" type="line"/>
      <point x="-914" y="-331" type="line"/>
      <point x="-914" y="-260" type="line" smooth="yes"/>
      <point x="-914" y="-119"/>
      <point x="-809" y="-44"/>
      <point x="-596" y="-44" type="curve" smooth="yes"/>
      <point x="-401" y="-44"/>
      <point x="-280" y="-116"/>
      <point x="-280" y="-241" type="curve"/>
      <point x="-286" y="-241" type="line"/>
      <point x="-294" y="-290" type="line"/>
      <point x="-294" y="-322" type="line" smooth="yes"/>
      <point x="-294" y="-376"/>
      <point x="-334" y="-403"/>
      <point x="-405" y="-403" type="curve" smooth="yes"/>
      <point x="-468" y="-403"/>
      <point x="-508" y="-385"/>
      <point x="-508" y="-345" type="curve"/>
      <point x="-508" y="-343" type="line"/>
      <point x="-508" y="-305"/>
      <point x="-473" y="-286"/>
      <point x="-407" y="-286" type="curve" smooth="yes"/>
      <point x="-355" y="-286"/>
      <point x="-315" y="-299"/>
      <point x="-287" y="-325" type="curve"/>
      <point x="-281" y="-255" type="line"/>
      <point x="-307" y="-158"/>
      <point x="-394" y="-107"/>
      <point x="-518" y="-107" type="curve" smooth="yes"/>
      <point x="-681" y="-107"/>
      <point x="-783" y="-188"/>
      <point x="-783" y="-331" type="curve"/>
      <point x="-783" y="-332" type="line"/>
      <point x="-783" y="-503"/>
      <point x="-652" y="-584"/>
      <point x="-408" y="-584" type="curve" smooth="yes"/>
      <point x="-147" y="-584"/>
      <point x="-18" y="-479"/>
      <point x="-18" y="-275" type="curve" smooth="yes"/>
      <point x="-18" y="-264" type="line" smooth="yes"/>
      <point x="-18" y="12"/>
      <point x="-208" y="148"/>
    </contour>
  </outline>
</glyph>
<glyph name="zero.mlm" format="2">
  <advance width="1482"/>
  <unicode hex="0D66"/>
  <outline>
    <contour>
      <point x="741" y="319" type="curve" smooth="yes"/>
      <point x="553" y="319"/>
      <point x="458" y="401"/>
      <point x="458" y="563" type="curve" smooth="yes"/>
      <point x="458" y="581" type="line" smooth="yes"/>
      <point x="458" y="745"/>
      <point x="553" y="824"/>
      <point x="741" y="824" type="curve" smooth="yes"/>
      <point x="929" y="824"/>
      <point x="1024" y="745"/>
      <point x="1024" y="581" type="curve" smooth="yes"/>
      <point x="1024" y="563" type="line" smooth="yes"/>
      <point x="1024" y="401"/>
      <point x="929" y="319"/>
    </contour>
    <contour>
      <point x="741" y="-4" type="curve" smooth="yes"/>
      <point x="1177" y="-4"/>
      <point x="1403" y="189"/>
      <point x="1403" y="560" type="curve" smooth="yes"/>
      <point x="1403" y="577" type="line" smooth="yes"/>
      <point x="1403" y="955"/>
      <point x="1177" y="1146"/>
      <point x="741" y="1146" type="curve" smooth="yes"/>
      <point x="305" y="1146"/>
      <point x="79" y="955"/>
      <point x="79" y="577" type="curve" smooth="yes"/>
      <point x="79" y="560" type="line" smooth="yes"/>
      <point x="79" y="189"/>
      <point x="305" y="-4"/>
    </contour>
  </outline>
</glyph>
<glyph name="two.mlm" format="2">
  <advance width="2014"/>
  <unicode hex="0D68"/>
  <outline>
    <contour>
      <point x="1360" y="287" type="line"/>
      <point x="976" y="0" type="line"/>
      <point x="1930" y="0" type="line"/>
      <point x="1979" y="287" type="line"/>
    </contour>
    <contour>
      <point x="795" y="869" type="curve" smooth="yes"/>
      <point x="1007" y="869"/>
      <point x="1114" y="753"/>
      <point x="1114" y="514" type="curve" smooth="yes"/>
      <point x="1114" y="496" type="line" smooth="yes"/>
      <point x="1114" y="325"/>
      <point x="1058" y="167"/>
      <point x="958" y="19" type="curve"/>
      <point x="958" y="0" type="line"/>
      <point x="1249" y="0" type="line"/>
      <point x="1410" y="132"/>
      <point x="1493" y="330"/>
      <point x="1493" y="539" type="curve" smooth="yes"/>
      <point x="1493" y="556" type="line" smooth="yes"/>
      <point x="1493" y="970"/>
      <point x="1255" y="1192"/>
      <point x="795" y="1192" type="curve" smooth="yes"/>
      <point x="335" y="1192"/>
      <point x="93" y="968"/>
      <point x="93" y="524" type="curve" smooth="yes"/>
      <point x="93" y="507" type="line" smooth="yes"/>
      <point x="93" y="310"/>
      <point x="146" y="123"/>
      <point x="249" y="0" type="curve"/>
      <point x="635" y="0" type="line"/>
      <point x="532" y="153"/>
      <point x="472" y="318"/>
      <point x="472" y="496" type="curve" smooth="yes"/>
      <point x="472" y="514" type="line" smooth="yes"/>
      <point x="472" y="753"/>
      <point x="583" y="869"/>
    </contour>
  </outline>
</glyph>
<glyph name="seven.mlm" format="2">
  <advance width="1874"/>
  <unicode hex="0D6D"/>
  <outline>
    <contour>
      <point x="443" y="491" type="curve"/>
      <point x="455" y="387" type="line"/>
      <point x="487" y="431"/>
      <point x="549" y="458"/>
      <point x="628" y="458" type="curve" smooth="yes"/>
      <point x="727" y="458"/>
      <point x="777" y="422"/>
      <point x="777" y="357" type="curve" smooth="yes"/>
      <point x="777" y="350" type="line" smooth="yes"/>
      <point x="777" y="283"/>
      <point x="723" y="245"/>
      <point x="628" y="245" type="curve" smooth="yes"/>
      <point x="515" y="245"/>
      <point x="457" y="296"/>
      <point x="457" y="400" type="curve" smooth="yes"/>
      <point x="457" y="415" type="line"/>
      <point x="457" y="503" type="line"/>
      <point x="436" y="503" type="line"/>
      <point x="436" y="509" type="line" smooth="yes"/>
      <point x="436" y="769"/>
      <point x="607" y="889"/>
      <point x="911" y="889" type="curve" smooth="yes"/>
      <point x="1228" y="889"/>
      <point x="1404" y="732"/>
      <point x="1404" y="417" type="curve" smooth="yes"/>
      <point x="1404" y="401" type="line" smooth="yes"/>
      <point x="1404" y="24"/>
      <point x="1192" y="-162"/>
      <point x="819" y="-162" type="curve" smooth="yes"/>
      <point x="692" y="-162"/>
      <point x="585" y="-149"/>
      <point x="513" y="-130" type="curve"/>
      <point x="592" y="-415" type="line"/>
      <point x="684" y="-443"/>
      <point x="790" y="-449"/>
      <point x="892" y="-449" type="curve" smooth="yes"/>
      <point x="1469" y="-449"/>
      <point x="1780" y="-141"/>
      <point x="1780" y="401" type="curve" smooth="yes"/>
      <point x="1780" y="417" type="line" smooth="yes"/>
      <point x="1780" y="927"/>
      <point x="1477" y="1190"/>
      <point x="916" y="1190" type="curve" smooth="yes"/>
      <point x="363" y="1190"/>
      <point x="85" y="946"/>
      <point x="85" y="502" type="curve" smooth="yes"/>
      <point x="85" y="480" type="line" smooth="yes"/>
      <point x="85" y="142"/>
      <point x="270" y="-39"/>
      <point x="626" y="-39" type="curve" smooth="yes"/>
      <point x="967" y="-39"/>
      <point x="1141" y="97"/>
      <point x="1141" y="363" type="curve" smooth="yes"/>
      <point x="1141" y="371" type="line" smooth="yes"/>
      <point x="1141" y="612"/>
      <point x="1011" y="737"/>
      <point x="791" y="737" type="curve" smooth="yes"/>
      <point x="597" y="737"/>
      <point x="480" y="653"/>
    </contour>
  </outline>
</glyph>
<glyph name="eight.mlm" format="2">
  <advance width="2312"/>
  <unicode hex="0D6E"/>
  <outline>
    <contour>
      <point x="2134" y="287" type="line"/>
      <point x="1339" y="287" type="line"/>
      <point x="958" y="0" type="line"/>
      <point x="2134" y="0" type="line"/>
    </contour>
    <contour>
      <point x="1807" y="241" type="line"/>
      <point x="1807" y="106" type="line" smooth="yes"/>
      <point x="1807" y="-151"/>
      <point x="1636" y="-232"/>
      <point x="1324" y="-232" type="curve" smooth="yes"/>
      <point x="1176" y="-232"/>
      <point x="1049" y="-220"/>
      <point x="965" y="-201" type="curve"/>
      <point x="1044" y="-486" type="line"/>
      <point x="1146" y="-514"/>
      <point x="1268" y="-519"/>
      <point x="1379" y="-519" type="curve" smooth="yes"/>
      <point x="1900" y="-519"/>
      <point x="2180" y="-331"/>
      <point x="2180" y="88" type="curve" smooth="yes"/>
      <point x="2180" y="1137" type="line"/>
      <point x="1807" y="1137" type="line"/>
    </contour>
    <contour>
      <point x="795" y="869" type="curve" smooth="yes"/>
      <point x="1007" y="869"/>
      <point x="1114" y="753"/>
      <point x="1114" y="514" type="curve" smooth="yes"/>
      <point x="1114" y="496" type="line" smooth="yes"/>
      <point x="1114" y="325"/>
      <point x="1058" y="167"/>
      <point x="958" y="19" type="curve"/>
      <point x="958" y="0" type="line"/>
      <point x="1249" y="0" type="line"/>
      <point x="1410" y="132"/>
      <point x="1493" y="330"/>
      <point x="1493" y="539" type="curve" smooth="yes"/>
      <point x="1493" y="556" type="line" smooth="yes"/>
      <point x="1493" y="970"/>
      <point x="1255" y="1192"/>
      <point x="795" y="1192" type="curve" smooth="yes"/>
      <point x="335" y="1192"/>
      <point x="93" y="968"/>
      <point x="93" y="524" type="curve" smooth="yes"/>
      <point x="93" y="507" type="line" smooth="yes"/>
      <point x="93" y="310"/>
      <point x="146" y="123"/>
      <point x="249" y="0" type="curve"/>
      <point x="635" y="0" type="line"/>
      <point x="532" y="153"/>
      <point x="472" y="318"/>
      <point x="472" y="496" type="curve" smooth="yes"/>
      <point x="472" y="514" type="line" smooth="yes"/>
      <point x="472" y="753"/>
      <point x="583" y="869"/>
    </contour>
  </outline>
</glyph>
<glyph name="onehundred.mlm" format="2">
  <advance width="2326"/>
  <unicode hex="0D71"/>
  <outline>
    <contour>
      <point x="1575" y="859" type="curve" smooth="yes"/>
      <point x="1757" y="859"/>
      <point x="1853" y="732"/>
      <point x="1853" y="470" type="curve" smooth="yes"/>
      <point x="1853" y="454" type="line" smooth="yes"/>
      <point x="1853" y="42"/>
      <point x="1630" y="-162"/>
      <point x="1242" y="-162" type="curve" smooth="yes"/>
      <point x="1108" y="-162"/>
      <point x="994" y="-149"/>
      <point x="918" y="-130" type="curve"/>
      <point x="998" y="-415" type="line"/>
      <point x="1095" y="-443"/>
      <point x="1207" y="-449"/>
      <point x="1314" y="-449" type="curve" smooth="yes"/>
      <point x="1908" y="-449"/>
      <point x="2232" y="-123"/>
      <point x="2232" y="454" type="curve" smooth="yes"/>
      <point x="2232" y="470" type="line" smooth="yes"/>
      <point x="2232" y="947"/>
      <point x="2023" y="1184"/>
      <point x="1617" y="1184" type="curve" smooth="yes"/>
      <point x="1330" y="1184"/>
      <point x="1191" y="1045"/>
      <point x="1161" y="864" type="curve"/>
      <point x="1124" y="864" type="line"/>
      <point x="1135" y="410" type="line"/>
      <point x="1343" y="410" type="line"/>
      <point x="1343" y="598" type="line" smooth="yes"/>
      <point x="1343" y="774"/>
      <point x="1417" y="859"/>
    </contour>
    <contour>
      <point x="970" y="532" type="line"/>
      <point x="970" y="4" type="line"/>
      <point x="1343" y="4" type="line"/>
      <point x="1343" y="532" type="line"/>
    </contour>
    <contour>
      <point x="93" y="542" type="curve" smooth="yes"/>
      <point x="93" y="524" type="line" smooth="yes"/>
      <point x="93" y="320"/>
      <point x="147" y="127"/>
      <point x="250" y="0" type="curve"/>
      <point x="636" y="0" type="line"/>
      <point x="529" y="162"/>
      <point x="472" y="334"/>
      <point x="472" y="524" type="curve" smooth="yes"/>
      <point x="472" y="542" type="line" smooth="yes"/>
      <point x="472" y="757"/>
      <point x="557" y="859"/>
      <point x="732" y="859" type="curve" smooth="yes"/>
      <point x="893" y="859"/>
      <point x="970" y="772"/>
      <point x="970" y="598" type="curve" smooth="yes"/>
      <point x="970" y="410" type="line"/>
      <point x="1153" y="410" type="line"/>
      <point x="1152" y="861" type="line"/>
      <point x="1120" y="1044"/>
      <point x="980" y="1184"/>
      <point x="690" y="1184" type="curve" smooth="yes"/>
      <point x="298" y="1184"/>
      <point x="93" y="971"/>
    </contour>
  </outline>
</glyph>
<glyph name="onequarter.mlm" format="2">
  <advance width="1599"/>
  <unicode hex="0D73"/>
  <outline>
    <contour>
      <point x="448" y="380" type="line"/>
      <point x="476" y="422"/>
      <point x="535" y="449"/>
      <point x="611" y="449" type="curve" smooth="yes"/>
      <point x="695" y="449"/>
      <point x="745" y="415"/>
      <point x="745" y="350" type="curve" smooth="yes"/>
      <point x="745" y="343" type="line" smooth="yes"/>
      <point x="745" y="280"/>
      <point x="698" y="243"/>
      <point x="606" y="243" type="curve" smooth="yes"/>
      <point x="504" y="243"/>
      <point x="451" y="292"/>
      <point x="451" y="392" type="curve" smooth="yes"/>
      <point x="451" y="414" type="line"/>
      <point x="451" y="500" type="line"/>
      <point x="434" y="500" type="line"/>
      <point x="434" y="505" type="line" smooth="yes"/>
      <point x="434" y="734"/>
      <point x="605" y="841"/>
      <point x="918" y="841" type="curve" smooth="yes"/>
      <point x="1564" y="841" type="line"/>
      <point x="1514" y="1128" type="line"/>
      <point x="895" y="1128" type="line" smooth="yes"/>
      <point x="358" y="1128"/>
      <point x="85" y="898"/>
      <point x="85" y="472" type="curve" smooth="yes"/>
      <point x="85" y="456" type="line" smooth="yes"/>
      <point x="85" y="141"/>
      <point x="266" y="-39"/>
      <point x="606" y="-39" type="curve" smooth="yes"/>
      <point x="937" y="-39"/>
      <point x="1104" y="96"/>
      <point x="1104" y="356" type="curve" smooth="yes"/>
      <point x="1104" y="368" type="line" smooth="yes"/>
      <point x="1104" y="602"/>
      <point x="981" y="722"/>
      <point x="768" y="722" type="curve" smooth="yes"/>
      <point x="587" y="722"/>
      <point x="476" y="643"/>
      <point x="441" y="488" type="curve"/>
    </contour>
  </outline>
</glyph>
<glyph name="onehalf.mlm" format="2">
  <advance width="2284"/>
  <unicode hex="0D74"/>
  <outline>
    <contour>
      <point x="1684" y="-39" type="curve" smooth="yes"/>
      <point x="2020" y="-39"/>
      <point x="2199" y="130"/>
      <point x="2199" y="440" type="curve" smooth="yes"/>
      <point x="2199" y="456" type="line" smooth="yes"/>
      <point x="2199" y="773"/>
      <point x="2027" y="997"/>
      <point x="1692" y="1109" type="curve" smooth="yes"/>
      <point x="1645" y="1125"/>
      <point x="1596" y="1139"/>
      <point x="1543" y="1150" type="curve" smooth="yes"/>
      <point x="1422" y="1175"/>
      <point x="1286" y="1192"/>
      <point x="1133" y="1192" type="curve" smooth="yes"/>
      <point x="436" y="1192"/>
      <point x="85" y="942"/>
      <point x="85" y="472" type="curve" smooth="yes"/>
      <point x="85" y="456" type="line" smooth="yes"/>
      <point x="85" y="141"/>
      <point x="266" y="-39"/>
      <point x="606" y="-39" type="curve" smooth="yes"/>
      <point x="937" y="-39"/>
      <point x="1105" y="96"/>
      <point x="1105" y="356" type="curve" smooth="yes"/>
      <point x="1105" y="368" type="line" smooth="yes"/>
      <point x="1105" y="602"/>
      <point x="981" y="722"/>
      <point x="768" y="722" type="curve" smooth="yes"/>
      <point x="587" y="722"/>
      <point x="476" y="643"/>
      <point x="441" y="488" type="curve"/>
      <point x="448" y="380" type="line"/>
      <point x="476" y="422"/>
      <point x="536" y="449"/>
      <point x="612" y="449" type="curve" smooth="yes"/>
      <point x="696" y="449"/>
      <point x="745" y="415"/>
      <point x="745" y="350" type="curve" smooth="yes"/>
      <point x="745" y="343" type="line" smooth="yes"/>
      <point x="745" y="280"/>
      <point x="698" y="243"/>
      <point x="606" y="243" type="curve" smooth="yes"/>
      <point x="504" y="243"/>
      <point x="452" y="292"/>
      <point x="452" y="392" type="curve" smooth="yes"/>
      <point x="452" y="415" type="line"/>
      <point x="452" y="500" type="line"/>
      <point x="434" y="500" type="line"/>
      <point x="434" y="505" type="line" smooth="yes"/>
      <point x="434" y="767"/>
      <point x="682" y="891"/>
      <point x="1126" y="891" type="curve" smooth="yes"/>
      <point x="1219" y="891"/>
      <point x="1302" y="885"/>
      <point x="1376" y="876" type="curve"/>
      <point x="1439" y="855"/>
      <point x="1530" y="827"/>
      <point x="1557" y="817" type="curve"/>
      <point x="1744" y="758"/>
      <point x="1825" y="632"/>
      <point x="1825" y="451" type="curve" smooth="yes"/>
      <point x="1825" y="440" type="line" smooth="yes"/>
      <point x="1825" y="324"/>
      <point x="1781" y="257"/>
      <point x="1687" y="257" type="curve" smooth="yes"/>
      <point x="1594" y="257"/>
      <point x="1548" y="315"/>
      <point x="1548" y="433" type="curve" smooth="yes"/>
      <point x="1548" y="442" type="line" smooth="yes"/>
      <point x="1548" y="589"/>
      <point x="1605" y="733"/>
      <point x="1695" y="868" type="curve"/>
      <point x="1704" y="895"/>
      <point x="1763" y="1025"/>
      <point x="1772" y="1052" type="curve"/>
      <point x="1809" y="1136"/>
      <point x="1826" y="1209"/>
      <point x="1826" y="1283" type="curve" smooth="yes"/>
      <point x="1826" y="1379"/>
      <point x="1807" y="1464"/>
      <point x="1765" y="1533" type="curve"/>
      <point x="1435" y="1533" type="line"/>
      <point x="1475" y="1454"/>
      <point x="1493" y="1370"/>
      <point x="1493" y="1280" type="curve" smooth="yes"/>
      <point x="1493" y="1214"/>
      <point x="1478" y="1157"/>
      <point x="1456" y="1096" type="curve" smooth="yes"/>
      <point x="1447" y="1071"/>
      <point x="1394" y="973"/>
      <point x="1383" y="945" type="curve"/>
      <point x="1264" y="792"/>
      <point x="1175" y="633"/>
      <point x="1175" y="438" type="curve" smooth="yes"/>
      <point x="1175" y="426" type="line" smooth="yes"/>
      <point x="1175" y="125"/>
      <point x="1349" y="-39"/>
    </contour>
  </outline>
</glyph>
<glyph name="onesixteenth.mlm" format="2">
  <advance width="3187"/>
  <unicode hex="0D76"/>
  <outline>
    <contour>
      <point x="963" y="283" type="line"/>
      <point x="845" y="0" type="line"/>
      <point x="1748" y="0" type="line"/>
      <point x="1748" y="283" type="line"/>
    </contour>
    <contour>
      <point x="650" y="785" type="curve" smooth="yes"/>
      <point x="279" y="785"/>
      <point x="83" y="625"/>
      <point x="83" y="294" type="curve" smooth="yes"/>
      <point x="83" y="282" type="line" smooth="yes"/>
      <point x="83" y="171"/>
      <point x="107" y="67"/>
      <point x="151" y="0" type="curve"/>
      <point x="521" y="0" type="line"/>
      <point x="479" y="79"/>
      <point x="452" y="160"/>
      <point x="452" y="253" type="curve" smooth="yes"/>
      <point x="452" y="264" type="line" smooth="yes"/>
      <point x="452" y="405"/>
      <point x="513" y="473"/>
      <point x="650" y="473" type="curve" smooth="yes"/>
      <point x="787" y="473"/>
      <point x="847" y="405"/>
      <point x="847" y="264" type="curve" smooth="yes"/>
      <point x="847" y="253" type="line" smooth="yes"/>
      <point x="847" y="172"/>
      <point x="822" y="96"/>
      <point x="778" y="19" type="curve"/>
      <point x="778" y="0" type="line"/>
      <point x="993" y="0" type="line"/>
      <point x="1141" y="95"/>
      <point x="1220" y="248"/>
      <point x="1220" y="359" type="curve" smooth="yes"/>
      <point x="1220" y="371" type="line" smooth="yes"/>
      <point x="1220" y="649"/>
      <point x="1024" y="785"/>
    </contour>
    <contour>
      <point x="1649" y="262" type="line"/>
      <point x="1496" y="0" type="line"/>
      <point x="3026" y="0" type="line"/>
      <point x="2890" y="262" type="line"/>
    </contour>
    <contour>
      <point x="2268" y="905" type="curve" smooth="yes"/>
      <point x="2542" y="905"/>
      <point x="2699" y="801"/>
      <point x="2699" y="500" type="curve" smooth="yes"/>
      <point x="2699" y="0" type="line"/>
      <point x="3067" y="0" type="line"/>
      <point x="3067" y="510" type="line" smooth="yes"/>
      <point x="3067" y="961"/>
      <point x="2800" y="1192"/>
      <point x="2268" y="1192" type="curve" smooth="yes"/>
      <point x="1737" y="1192"/>
      <point x="1470" y="961"/>
      <point x="1470" y="510" type="curve" smooth="yes"/>
      <point x="1470" y="0" type="line"/>
      <point x="1836" y="0" type="line"/>
      <point x="1836" y="500" type="line" smooth="yes"/>
      <point x="1836" y="799"/>
      <point x="1961" y="905"/>
    </contour>
    <contour>
      <point x="2488.04" y="602" type="line" smooth="yes"/>
      <point x="2488.04" y="809.495"/>
      <point x="2326.21" y="921"/>
      <point x="2092.04" y="921" type="curve" smooth="yes"/>
      <point x="2044.54" y="921"/>
      <point x="1992.97" y="918.75"/>
      <point x="1940.04" y="903" type="curve"/>
      <point x="1854.04" y="742" type="line"/>
      <point x="1892.19" y="765.571"/>
      <point x="1933.28" y="775"/>
      <point x="1967.04" y="775" type="curve" smooth="yes"/>
      <point x="2071.46" y="775"/>
      <point x="2114.04" y="700.3"/>
      <point x="2114.04" y="609" type="curve" smooth="yes"/>
      <point x="2114.04" y="602" type="line" smooth="yes"/>
      <point x="2114.04" y="465"/>
      <point x="2039.04" y="334"/>
      <point x="1926.04" y="259" type="curve"/>
      <point x="2209.04" y="192" type="line"/>
      <point x="2389.04" y="268"/>
      <point x="2488.04" y="416"/>
      <point x="2488.04" y="592" type="curve" smooth="yes"/>
    </contour>
  </outline>
</glyph>
<glyph name="threesixteenths.mlm" format="2">
  <advance width="5308"/>
  <unicode hex="0D78"/>
  <outline>
    <contour>
      <point x="487" y="547" type="line"/>
      <point x="860" y="558" type="line"/>
      <point x="860" y="1137" type="line"/>
      <point x="487" y="1137" type="line"/>
    </contour>
    <contour>
      <point x="297" y="-40" type="curve" smooth="yes"/>
      <point x="540" y="-40"/>
      <point x="644" y="101"/>
      <point x="669" y="275" type="curve"/>
      <point x="742" y="275" type="line"/>
      <point x="742" y="706" type="line"/>
      <point x="487" y="718" type="line"/>
      <point x="487" y="526" type="line" smooth="yes"/>
      <point x="487" y="359"/>
      <point x="415" y="276"/>
      <point x="267" y="276" type="curve" smooth="yes"/>
      <point x="151" y="276"/>
      <point x="70" y="292"/>
      <point x="10" y="313" type="curve"/>
      <point x="91" y="-5" type="line"/>
      <point x="144" y="-26"/>
      <point x="220" y="-40"/>
    </contour>
    <contour>
      <point x="3329" y="1184" type="curve" smooth="yes"/>
      <point x="2979" y="1184"/>
      <point x="2802" y="1015"/>
      <point x="2802" y="686" type="curve" smooth="yes"/>
      <point x="2802" y="609"/>
      <point x="2802" y="567"/>
      <point x="2802" y="491" type="curve" smooth="yes"/>
      <point x="2802" y="352"/>
      <point x="2737" y="282"/>
      <point x="2607" y="282" type="curve" smooth="yes"/>
      <point x="2477" y="282"/>
      <point x="2412" y="352"/>
      <point x="2412" y="491" type="curve" smooth="yes"/>
      <point x="2412" y="565"/>
      <point x="2412" y="607"/>
      <point x="2412" y="683" type="curve" smooth="yes"/>
      <point x="2412" y="1016"/>
      <point x="2219" y="1186"/>
      <point x="1835" y="1186" type="curve" smooth="yes"/>
      <point x="1451" y="1186"/>
      <point x="1260" y="1016"/>
      <point x="1260" y="683" type="curve" smooth="yes"/>
      <point x="1260" y="607"/>
      <point x="1260" y="565"/>
      <point x="1260" y="491" type="curve" smooth="yes"/>
      <point x="1260" y="355"/>
      <point x="1196" y="287"/>
      <point x="1064" y="287" type="curve" smooth="yes"/>
      <point x="928" y="287"/>
      <point x="860" y="354"/>
      <point x="860" y="491" type="curve" smooth="yes"/>
      <point x="860" y="718" type="line"/>
      <point x="703" y="706" type="line"/>
      <point x="678" y="275" type="line"/>
      <point x="708" y="95"/>
      <point x="835" y="-40"/>
      <point x="1120" y="-40" type="curve" smooth="yes"/>
      <point x="1460" y="-40"/>
      <point x="1633" y="129"/>
      <point x="1633" y="458" type="curve" smooth="yes"/>
      <point x="1633" y="532"/>
      <point x="1633" y="576"/>
      <point x="1633" y="648" type="curve" smooth="yes"/>
      <point x="1633" y="792"/>
      <point x="1699" y="864"/>
      <point x="1837" y="864" type="curve" smooth="yes"/>
      <point x="1975" y="864"/>
      <point x="2039" y="792"/>
      <point x="2039" y="648" type="curve" smooth="yes"/>
      <point x="2039" y="576"/>
      <point x="2039" y="532"/>
      <point x="2039" y="458" type="curve" smooth="yes"/>
      <point x="2039" y="129"/>
      <point x="2230" y="-40"/>
      <point x="2607" y="-40" type="curve" smooth="yes"/>
      <point x="2984" y="-40"/>
      <point x="3175" y="129"/>
      <point x="3175" y="458" type="curve" smooth="yes"/>
      <point x="3175" y="532"/>
      <point x="3175" y="576"/>
      <point x="3175" y="648" type="curve" smooth="yes"/>
      <point x="3175" y="789"/>
      <point x="3243" y="859"/>
      <point x="3382" y="859" type="curve" smooth="yes"/>
      <point x="3523" y="859"/>
      <point x="3591" y="790"/>
      <point x="3591" y="649" type="curve" smooth="yes"/>
      <point x="3591" y="410" type="line"/>
      <point x="3778" y="422" type="line"/>
      <point x="3779" y="900" type="line"/>
      <point x="3742" y="1064"/>
      <point x="3600" y="1184"/>
    </contour>
    <contour>
      <point x="4416" y="1184" type="curve" smooth="yes"/>
      <point x="4060" y="1184"/>
      <point x="3862" y="1069"/>
      <point x="3788" y="900" type="curve"/>
      <point x="3755" y="900" type="line"/>
      <point x="3591" y="514" type="line"/>
      <point x="3591" y="0" type="line"/>
      <point x="3957" y="0" type="line"/>
      <point x="3957" y="502" type="line" smooth="yes"/>
      <point x="3957" y="798"/>
      <point x="4081" y="903"/>
      <point x="4388" y="903" type="curve" smooth="yes"/>
      <point x="4663" y="903"/>
      <point x="4820" y="799"/>
      <point x="4820" y="502" type="curve" smooth="yes"/>
      <point x="4820" y="0" type="line"/>
      <point x="5188" y="0" type="line"/>
      <point x="5188" y="507" type="line" smooth="yes"/>
      <point x="5188" y="954"/>
      <point x="4920" y="1184"/>
    </contour>
    <contour>
      <point x="3790" y="262" type="line"/>
      <point x="3637" y="0" type="line"/>
      <point x="5167" y="0" type="line"/>
      <point x="5031" y="262" type="line"/>
    </contour>
    <contour>
      <point x="4609.02" y="602" type="line" smooth="yes"/>
      <point x="4609.02" y="808.195"/>
      <point x="4447.2" y="919"/>
      <point x="4213.02" y="919" type="curve" smooth="yes"/>
      <point x="4165.52" y="919"/>
      <point x="4113.95" y="916.75"/>
      <point x="4061.02" y="901" type="curve"/>
      <point x="3975.02" y="740" type="line"/>
      <point x="4013.18" y="763.571"/>
      <point x="4054.27" y="773"/>
      <point x="4088.02" y="773" type="curve" smooth="yes"/>
      <point x="4192.45" y="773"/>
      <point x="4235.02" y="699.2"/>
      <point x="4235.02" y="609" type="curve" smooth="yes"/>
      <point x="4235.02" y="602" type="line" smooth="yes"/>
      <point x="4235.02" y="465"/>
      <point x="4160.02" y="334"/>
      <point x="4047.02" y="259" type="curve"/>
      <point x="4330.02" y="192" type="line"/>
      <point x="4510.02" y="268"/>
      <point x="4609.02" y="416"/>
      <point x="4609.02" y="592" type="curve" smooth="yes"/>
    </contour>
  </outline>
</glyph>
<glyph name="chilluN.mlm" format="2">
  <advance width="2670"/>
  <unicode hex="0D7B"/>
  <outline>
    <contour>
      <point x="981" y="532" type="line"/>
      <point x="981" y="4" type="line"/>
      <point x="1352" y="4" type="line"/>
      <point x="1352" y="532" type="line"/>
    </contour>
    <contour>
      <point x="736" y="859" type="curve" smooth="yes"/>
      <point x="902" y="859"/>
      <point x="981" y="774"/>
      <point x="981" y="600" type="curve" smooth="yes"/>
      <point x="981" y="410" type="line"/>
      <point x="1168" y="422" type="line"/>
      <point x="1165" y="859" type="line"/>
      <point x="1139" y="1042"/>
      <point x="994" y="1184"/>
      <point x="694" y="1184" type="curve" smooth="yes"/>
      <point x="298" y="1184"/>
      <point x="93" y="971"/>
      <point x="93" y="542" type="curve" smooth="yes"/>
      <point x="93" y="524" type="line" smooth="yes"/>
      <point x="93" y="320"/>
      <point x="147" y="127"/>
      <point x="249" y="0" type="curve"/>
      <point x="634" y="0" type="line"/>
      <point x="528" y="162"/>
      <point x="472" y="334"/>
      <point x="472" y="524" type="curve" smooth="yes"/>
      <point x="472" y="542" type="line" smooth="yes"/>
      <point x="472" y="757"/>
      <point x="556" y="859"/>
    </contour>
    <contour>
      <point x="1907" y="1177" type="line"/>
      <point x="1865" y="1181"/>
      <point x="1816" y="1184"/>
      <point x="1770" y="1184" type="curve" smooth="yes"/>
      <point x="1409" y="1184"/>
      <point x="1225" y="1042"/>
      <point x="1174" y="859" type="curve"/>
      <point x="1138" y="859" type="line"/>
      <point x="1124" y="484" type="line"/>
      <point x="1352" y="484" type="line"/>
      <point x="1352" y="551" type="line" smooth="yes"/>
      <point x="1352" y="775"/>
      <point x="1496" y="889"/>
      <point x="1764" y="889" type="curve" smooth="yes"/>
      <point x="1819" y="889"/>
      <point x="1861" y="886"/>
      <point x="1907" y="876" type="curve"/>
      <point x="1991" y="847" type="line" smooth="yes"/>
      <point x="2137" y="797"/>
      <point x="2211" y="664"/>
      <point x="2211" y="468" type="curve" smooth="yes"/>
      <point x="2211" y="458" type="line" smooth="yes"/>
      <point x="2211" y="323"/>
      <point x="2166" y="257"/>
      <point x="2072" y="257" type="curve" smooth="yes"/>
      <point x="1981" y="257"/>
      <point x="1935" y="315"/>
      <point x="1935" y="433" type="curve" smooth="yes"/>
      <point x="1935" y="442" type="line" smooth="yes"/>
      <point x="1935" y="594"/>
      <point x="1989" y="742"/>
      <point x="2074" y="882" type="curve"/>
      <point x="2081" y="907"/>
      <point x="2126" y="1027"/>
      <point x="2133" y="1052" type="curve"/>
      <point x="2170" y="1136"/>
      <point x="2188" y="1209"/>
      <point x="2188" y="1283" type="curve" smooth="yes"/>
      <point x="2188" y="1379"/>
      <point x="2168" y="1464"/>
      <point x="2126" y="1533" type="curve"/>
      <point x="1798" y="1533" type="line"/>
      <point x="1838" y="1454"/>
      <point x="1856" y="1370"/>
      <point x="1856" y="1280" type="curve" smooth="yes"/>
      <point x="1856" y="1214"/>
      <point x="1843" y="1156"/>
      <point x="1819" y="1096" type="curve"/>
      <point x="1812" y="1071"/>
      <point x="1771" y="973"/>
      <point x="1763" y="945" type="curve"/>
      <point x="1648" y="792"/>
      <point x="1562" y="633"/>
      <point x="1562" y="438" type="curve" smooth="yes"/>
      <point x="1562" y="426" type="line" smooth="yes"/>
      <point x="1562" y="125"/>
      <point x="1734" y="-39"/>
      <point x="2068" y="-39" type="curve" smooth="yes"/>
      <point x="2407" y="-39"/>
      <point x="2585" y="136"/>
      <point x="2585" y="458" type="curve" smooth="yes"/>
      <point x="2585" y="479" type="line" smooth="yes"/>
      <point x="2585" y="836"/>
      <point x="2402" y="1084"/>
      <point x="2032" y="1153" type="curve" smooth="yes"/>
    </contour>
  </outline>
</glyph>
<glyph name="chilluL.mlm" format="2">
  <advance width="2967"/>
  <unicode hex="0D7D"/>
  <outline>
    <contour>
      <point x="2507" y="458" type="curve" smooth="yes"/>
      <point x="2507" y="447" type="line" smooth="yes"/>
      <point x="2507" y="319"/>
      <point x="2462" y="257"/>
      <point x="2367" y="257" type="curve" smooth="yes"/>
      <point x="2276" y="257"/>
      <point x="2231" y="315"/>
      <point x="2231" y="433" type="curve" smooth="yes"/>
      <point x="2231" y="442" type="line" smooth="yes"/>
      <point x="2231" y="589"/>
      <point x="2287" y="733"/>
      <point x="2375" y="868" type="curve"/>
      <point x="2385" y="895"/>
      <point x="2445" y="1025"/>
      <point x="2455" y="1052" type="curve"/>
      <point x="2493" y="1136"/>
      <point x="2511" y="1209"/>
      <point x="2511" y="1283" type="curve" smooth="yes"/>
      <point x="2511" y="1379"/>
      <point x="2491" y="1464"/>
      <point x="2447" y="1533" type="curve"/>
      <point x="2117" y="1533" type="line"/>
      <point x="2159" y="1454"/>
      <point x="2178" y="1370"/>
      <point x="2178" y="1280" type="curve" smooth="yes"/>
      <point x="2178" y="1214"/>
      <point x="2165" y="1156"/>
      <point x="2141" y="1096" type="curve" smooth="yes"/>
      <point x="2131" y="1071"/>
      <point x="2074" y="973"/>
      <point x="2062" y="945" type="curve"/>
      <point x="1945" y="792"/>
      <point x="1858" y="633"/>
      <point x="1858" y="438" type="curve" smooth="yes"/>
      <point x="1858" y="426" type="line" smooth="yes"/>
      <point x="1858" y="125"/>
      <point x="2030" y="-39"/>
      <point x="2363" y="-39" type="curve" smooth="yes"/>
      <point x="2703" y="-39"/>
      <point x="2882" y="132"/>
      <point x="2882" y="447" type="curve" smooth="yes"/>
      <point x="2882" y="468" type="line" smooth="yes"/>
      <point x="2882" y="778"/>
      <point x="2711" y="1004"/>
      <point x="2368" y="1107" type="curve" smooth="yes"/>
      <point x="2261" y="1139" type="line"/>
      <point x="2133" y="1169"/>
      <point x="1982" y="1184"/>
      <point x="1817" y="1184" type="curve" smooth="yes"/>
      <point x="1496" y="1184"/>
      <point x="1262" y="1107"/>
      <point x="1140" y="1014" type="curve"/>
      <point x="1017" y="926" type="line"/>
      <point x="823" y="838"/>
      <point x="717" y="653"/>
      <point x="717" y="449" type="curve" smooth="yes"/>
      <point x="717" y="433" type="line" smooth="yes"/>
      <point x="717" y="121"/>
      <point x="896" y="-39"/>
      <point x="1248" y="-39" type="curve" smooth="yes"/>
      <point x="1599" y="-39"/>
      <point x="1778" y="123"/>
      <point x="1778" y="440" type="curve" smooth="yes"/>
      <point x="1778" y="456" type="line" smooth="yes"/>
      <point x="1778" y="660"/>
      <point x="1675" y="838"/>
      <point x="1482" y="924" type="curve"/>
      <point x="1376" y="993" type="line"/>
      <point x="1273" y="1107"/>
      <point x="1082" y="1184"/>
      <point x="815" y="1184" type="curve" smooth="yes"/>
      <point x="341" y="1184"/>
      <point x="94" y="947"/>
      <point x="94" y="495" type="curve" smooth="yes"/>
      <point x="94" y="477" type="line" smooth="yes"/>
      <point x="94" y="301"/>
      <point x="142" y="118"/>
      <point x="219" y="0" type="curve"/>
      <point x="604" y="0" type="line"/>
      <point x="512" y="164"/>
      <point x="472" y="312"/>
      <point x="472" y="477" type="curve" smooth="yes"/>
      <point x="472" y="495" type="line" smooth="yes"/>
      <point x="472" y="755"/>
      <point x="607" y="887"/>
      <point x="880" y="887" type="curve" smooth="yes"/>
      <point x="962" y="887"/>
      <point x="1025" y="870"/>
      <point x="1082" y="847" type="curve"/>
      <point x="1181" y="813" type="line"/>
      <point x="1331" y="753"/>
      <point x="1404" y="628"/>
      <point x="1404" y="473" type="curve" smooth="yes"/>
      <point x="1404" y="463" type="line" smooth="yes"/>
      <point x="1404" y="319"/>
      <point x="1352" y="257"/>
      <point x="1248" y="257" type="curve" smooth="yes"/>
      <point x="1144" y="257"/>
      <point x="1091" y="317"/>
      <point x="1091" y="456" type="curve" smooth="yes"/>
      <point x="1091" y="466" type="line" smooth="yes"/>
      <point x="1091" y="617"/>
      <point x="1174" y="748"/>
      <point x="1327" y="808" type="curve"/>
      <point x="1469" y="848" type="line"/>
      <point x="1562" y="867"/>
      <point x="1682" y="887"/>
      <point x="1819" y="887" type="curve" smooth="yes"/>
      <point x="1905" y="887"/>
      <point x="1990" y="878"/>
      <point x="2069" y="866" type="curve"/>
      <point x="2263" y="822" type="line"/>
      <point x="2435" y="762"/>
      <point x="2507" y="639"/>
    </contour>
  </outline>
</glyph>
<glyph name="chilluK.mlm" format="2">
  <advance width="2968"/>
  <unicode hex="0D7F"/>
  <outline>
    <contour>
      <point x="1301" y="252" type="curve" smooth="yes"/>
      <point x="1130" y="252"/>
      <point x="1044" y="346"/>
      <point x="1044" y="533" type="curve" smooth="yes"/>
      <point x="1044" y="627" type="line" smooth="yes"/>
      <point x="1044" y="814"/>
      <point x="1130" y="906"/>
      <point x="1301" y="906" type="curve" smooth="yes"/>
      <point x="1472" y="906"/>
      <point x="1559" y="814"/>
      <point x="1559" y="627" type="curve" smooth="yes"/>
      <point x="1559" y="533" type="line" smooth="yes"/>
      <point x="1559" y="346"/>
      <point x="1472" y="252"/>
    </contour>
    <contour>
      <point x="1301" y="-39" type="curve" smooth="yes"/>
      <point x="1704" y="-39"/>
      <point x="1915" y="155"/>
      <point x="1915" y="530" type="curve" smooth="yes"/>
      <point x="1915" y="620" type="line" smooth="yes"/>
      <point x="1915" y="1000"/>
      <point x="1704" y="1195"/>
      <point x="1301" y="1195" type="curve" smooth="yes"/>
      <point x="898" y="1195"/>
      <point x="688" y="1000"/>
      <point x="688" y="620" type="curve" smooth="yes"/>
      <point x="688" y="530" type="line" smooth="yes"/>
      <point x="688" y="410"/>
      <point x="709" y="310"/>
      <point x="746" y="231" type="curve"/>
      <point x="783" y="194" type="line"/>
      <point x="878" y="36"/>
      <point x="1055" y="-39"/>
    </contour>
    <contour>
      <point x="459" y="-39" type="curve" smooth="yes"/>
      <point x="653" y="-39"/>
      <point x="749" y="53"/>
      <point x="774" y="192" type="curve"/>
      <point x="787" y="194" type="line"/>
      <point x="715" y="329" type="line"/>
      <point x="692" y="271"/>
      <point x="644" y="241"/>
      <point x="570" y="241" type="curve" smooth="yes"/>
      <point x="486" y="241"/>
      <point x="436" y="274"/>
      <point x="436" y="350" type="curve" smooth="yes"/>
      <point x="436" y="356" type="line" smooth="yes"/>
      <point x="436" y="432"/>
      <point x="487" y="468"/>
      <point x="584" y="468" type="curve" smooth="yes"/>
      <point x="806" y="468" type="line"/>
      <point x="884" y="463" type="line"/>
      <point x="1695" y="463" type="line"/>
      <point x="1769" y="465" type="line"/>
      <point x="2381" y="465" type="line" smooth="yes"/>
      <point x="2478" y="465"/>
      <point x="2529" y="430"/>
      <point x="2529" y="354" type="curve" smooth="yes"/>
      <point x="2529" y="348" type="line" smooth="yes"/>
      <point x="2529" y="272"/>
      <point x="2493" y="239"/>
      <point x="2424" y="239" type="curve" smooth="yes"/>
      <point x="2357" y="239"/>
      <point x="2320" y="275"/>
      <point x="2320" y="345" type="curve" smooth="yes"/>
      <point x="2320" y="354" type="line" smooth="yes"/>
      <point x="2320" y="402"/>
      <point x="2339" y="454"/>
      <point x="2374" y="507" type="curve"/>
      <point x="2404" y="623" type="line"/>
      <point x="2531" y="815"/>
      <point x="2590" y="978"/>
      <point x="2590" y="1140" type="curve" smooth="yes"/>
      <point x="2590" y="1232"/>
      <point x="2566" y="1315"/>
      <point x="2534" y="1382" type="curve"/>
      <point x="2205" y="1382" type="line"/>
      <point x="2235" y="1306"/>
      <point x="2256" y="1234"/>
      <point x="2256" y="1158" type="curve" smooth="yes"/>
      <point x="2256" y="991"/>
      <point x="2200" y="844"/>
      <point x="2086" y="656" type="curve"/>
      <point x="2031" y="532" type="line" smooth="yes"/>
      <point x="1998" y="455"/>
      <point x="1978" y="385"/>
      <point x="1978" y="313" type="curve" smooth="yes"/>
      <point x="1978" y="303" type="line" smooth="yes"/>
      <point x="1978" y="78"/>
      <point x="2130" y="-40"/>
      <point x="2427" y="-40" type="curve" smooth="yes"/>
      <point x="2728" y="-40"/>
      <point x="2893" y="86"/>
      <point x="2893" y="331" type="curve" smooth="yes"/>
      <point x="2893" y="345" type="line" smooth="yes"/>
      <point x="2893" y="607"/>
      <point x="2725" y="741"/>
      <point x="2394" y="741" type="curve" smooth="yes"/>
      <point x="1848" y="741" type="line"/>
      <point x="1676" y="736" type="line"/>
      <point x="887" y="736" type="line"/>
      <point x="799" y="743" type="line"/>
      <point x="572" y="743" type="line" smooth="yes"/>
      <point x="241" y="743"/>
      <point x="72" y="609"/>
      <point x="72" y="347" type="curve" smooth="yes"/>
      <point x="72" y="333" type="line" smooth="yes"/>
      <point x="72" y="88"/>
      <point x="209" y="-39"/>
    </contour>
  </outline>
</glyph>
<glyph name="quoteright" format="2">
  <advance width="558"/>
  <unicode hex="2019"/>
  <outline>
    <contour>
      <point x="108" y="1314" type="line"/>
      <point x="112" y="1271"/>
      <point x="114" y="1233"/>
      <point x="114" y="1191" type="curve" smooth="yes"/>
      <point x="114" y="1038"/>
      <point x="85" y="915"/>
      <point x="32" y="801" type="curve"/>
      <point x="309" y="746" type="line"/>
      <point x="430" y="879"/>
      <point x="482" y="1027"/>
      <point x="482" y="1203" type="curve" smooth="yes"/>
      <point x="482" y="1242"/>
      <point x="478" y="1285"/>
      <point x="473" y="1314" type="curve"/>
    </contour>
  </outline>
</glyph>
<glyph name="bullet" format="2">
  <advance width="798"/>
  <unicode hex="2022"/>
  <outline>
    <contour>
      <point x="399" y="323" type="curve" smooth="yes"/>
      <point x="604" y="323"/>
      <point x="697" y="424"/>
      <point x="697" y="586" type="curve" smooth="yes"/>
      <point x="697" y="593" type="line" smooth="yes"/>
      <point x="697" y="757"/>
      <point x="604" y="860"/>
      <point x="399" y="860" type="curve" smooth="yes"/>
      <point x="192" y="860"/>
      <point x="100" y="757"/>
      <point x="100" y="593" type="curve" smooth="yes"/>
      <point x="100" y="586" type="line" smooth="yes"/>
      <point x="100" y="424"/>
      <point x="192" y="323"/>
    </contour>
  </outline>
</glyph>
<glyph name="fraction" format="2">
  <advance width="526"/>
  <unicode hex="2044"/>
  <outline>
    <contour>
      <point x="-180" y="0" type="line"/>
      <point x="1066" y="1278" type="line"/>
      <point x="732" y="1278" type="line"/>
      <point x="-520" y="0" type="line"/>
    </contour>
  </outline>
</glyph>
<glyph name="eightsuperior" format="2">
  <advance width="927"/>
  <unicode hex="2078"/>
  <outline>
    <contour>
      <point x="462" y="718" type="curve" smooth="yes"/>
      <point x="819" y="718"/>
      <point x="891" y="818"/>
      <point x="891" y="922" type="curve" smooth="yes"/>
      <point x="891" y="930" type="line" smooth="yes"/>
      <point x="891" y="1025"/>
      <point x="825" y="1085"/>
      <point x="693" y="1101" type="curve"/>
      <point x="693" y="1109" type="line"/>
      <point x="811" y="1117"/>
      <point x="877" y="1168"/>
      <point x="877" y="1253" type="curve" smooth="yes"/>
      <point x="877" y="1261" type="line" smooth="yes"/>
      <point x="877" y="1373"/>
      <point x="753" y="1445"/>
      <point x="462" y="1445" type="curve" smooth="yes"/>
      <point x="174" y="1445"/>
      <point x="50" y="1373"/>
      <point x="50" y="1261" type="curve" smooth="yes"/>
      <point x="50" y="1253" type="line" smooth="yes"/>
      <point x="50" y="1167"/>
      <point x="116" y="1117"/>
      <point x="234" y="1109" type="curve"/>
      <point x="234" y="1101" type="line"/>
      <point x="104" y="1086"/>
      <point x="36" y="1026"/>
      <point x="36" y="930" type="curve" smooth="yes"/>
      <point x="36" y="922" type="line" smooth="yes"/>
      <point x="36" y="805"/>
      <point x="128" y="718"/>
    </contour>
    <contour>
      <point x="467" y="907" type="curve" smooth="yes"/>
      <point x="355" y="907"/>
      <point x="321" y="927"/>
      <point x="321" y="957" type="curve"/>
      <point x="321" y="959" type="line"/>
      <point x="321" y="985"/>
      <point x="349" y="1006"/>
      <point x="453" y="1017" type="curve"/>
      <point x="568" y="1006"/>
      <point x="606" y="989"/>
      <point x="606" y="960" type="curve"/>
      <point x="606" y="958" type="line"/>
      <point x="606" y="929"/>
      <point x="574" y="907"/>
    </contour>
    <contour>
      <point x="471" y="1167" type="curve"/>
      <point x="361" y="1174"/>
      <point x="332" y="1194"/>
      <point x="332" y="1218" type="curve" smooth="yes"/>
      <point x="332" y="1221" type="line" smooth="yes"/>
      <point x="332" y="1248"/>
      <point x="368" y="1265"/>
      <point x="462" y="1265" type="curve" smooth="yes"/>
      <point x="560" y="1265"/>
      <point x="595" y="1247"/>
      <point x="595" y="1219" type="curve"/>
      <point x="595" y="1217" type="line"/>
      <point x="595" y="1193"/>
      <point x="557" y="1174"/>
    </contour>
  </outline>
</glyph>
<glyph name="BaDa.mlm" format="2">
  <advance width="3385"/>
  <outline>
    <component base="Ba.mlm"/>
    <contour>
      <point x="3164" y="-55" type="line" smooth="yes"/>
      <point x="3164" y="76"/>
      <point x="3011" y="137"/>
      <point x="2707" y="137" type="curve" smooth="yes"/>
      <point x="2329" y="137"/>
      <point x="2151" y="5"/>
      <point x="2151" y="-264" type="curve" smooth="yes"/>
      <point x="2151" y="-276" type="line" smooth="yes"/>
      <point x="2151" y="-378"/>
      <point x="2174" y="-486"/>
      <point x="2211" y="-560" type="curve"/>
      <point x="2489" y="-560" type="line"/>
      <point x="2452" y="-453"/>
      <point x="2433" y="-359"/>
      <point x="2433" y="-259" type="curve" smooth="yes"/>
      <point x="2433" y="-252" type="line" smooth="yes"/>
      <point x="2433" y="-94"/>
      <point x="2518" y="-19"/>
      <point x="2710" y="-19" type="curve" smooth="yes"/>
      <point x="2828" y="-19"/>
      <point x="2883" y="-32"/>
      <point x="2883" y="-70" type="curve"/>
      <point x="2883" y="-72" type="line"/>
      <point x="2883" y="-90"/>
      <point x="2863" y="-103"/>
      <point x="2812" y="-104" type="curve" smooth="yes"/>
      <point x="2631" y="-109" type="line"/>
      <point x="2631" y="-294" type="line"/>
      <point x="2811" y="-299" type="line" smooth="yes"/>
      <point x="2869" y="-301"/>
      <point x="2893" y="-313"/>
      <point x="2893" y="-341" type="curve"/>
      <point x="2893" y="-343" type="line"/>
      <point x="2893" y="-375"/>
      <point x="2863" y="-387"/>
      <point x="2797" y="-387" type="curve" smooth="yes"/>
      <point x="2720" y="-387"/>
      <point x="2671" y="-383"/>
      <point x="2594" y="-370" type="curve"/>
      <point x="2625" y="-558" type="line"/>
      <point x="2691" y="-576"/>
      <point x="2755" y="-581"/>
      <point x="2837" y="-581" type="curve" smooth="yes"/>
      <point x="3067" y="-581"/>
      <point x="3177" y="-512"/>
      <point x="3177" y="-375" type="curve" smooth="yes"/>
      <point x="3177" y="-370" type="line" smooth="yes"/>
      <point x="3177" y="-284"/>
      <point x="3123" y="-228"/>
      <point x="3011" y="-206" type="curve"/>
      <point x="3011" y="-202" type="line"/>
      <point x="3114" y="-182"/>
      <point x="3164" y="-131"/>
      <point x="3164" y="-59" type="curve" smooth="yes"/>
    </contour>
  </outline>
</glyph>
<glyph name="BaDha.mlm" format="2">
  <advance width="3385"/>
  <outline>
    <contour>
      <point x="2340" y="-583" type="curve" smooth="yes"/>
      <point x="2525" y="-583"/>
      <point x="2617" y="-505"/>
      <point x="2634" y="-410" type="curve"/>
      <point x="2643" y="-162" type="line"/>
      <point x="2500" y="-162" type="line"/>
      <point x="2500" y="-224" type="line" smooth="yes"/>
      <point x="2500" y="-311"/>
      <point x="2455" y="-356"/>
      <point x="2370" y="-356" type="curve" smooth="yes"/>
      <point x="2279" y="-356"/>
      <point x="2232" y="-302"/>
      <point x="2232" y="-199" type="curve" smooth="yes"/>
      <point x="2232" y="-190" type="line" smooth="yes"/>
      <point x="2232" y="-108"/>
      <point x="2268" y="-31"/>
      <point x="2342" y="30" type="curve"/>
      <point x="2442" y="148" type="line"/>
      <point x="2534" y="271"/>
      <point x="2582" y="422"/>
      <point x="2582" y="577" type="curve" smooth="yes"/>
      <point x="2582" y="595" type="line" smooth="yes"/>
      <point x="2582" y="989"/>
      <point x="2375" y="1184"/>
      <point x="1972" y="1184" type="curve" smooth="yes"/>
      <point x="1683" y="1184"/>
      <point x="1534" y="1042"/>
      <point x="1509" y="857" type="curve"/>
      <point x="1434" y="857" type="line"/>
      <point x="1434" y="422" type="line"/>
      <point x="1688" y="410" type="line"/>
      <point x="1688" y="590" type="line" smooth="yes"/>
      <point x="1688" y="771"/>
      <point x="1766" y="859"/>
      <point x="1930" y="859" type="curve" smooth="yes"/>
      <point x="2114" y="859"/>
      <point x="2202" y="757"/>
      <point x="2202" y="542" type="curve" smooth="yes"/>
      <point x="2202" y="524" type="line" smooth="yes"/>
      <point x="2202" y="367"/>
      <point x="2161" y="224"/>
      <point x="2082" y="88" type="curve"/>
      <point x="1993" y="2"/>
      <point x="1952" y="-97"/>
      <point x="1952" y="-209" type="curve" smooth="yes"/>
      <point x="1952" y="-220" type="line" smooth="yes"/>
      <point x="1952" y="-460"/>
      <point x="2088" y="-583"/>
    </contour>
    <contour>
      <point x="2935" y="-583" type="curve" smooth="yes"/>
      <point x="3187" y="-583"/>
      <point x="3323" y="-460"/>
      <point x="3323" y="-220" type="curve" smooth="yes"/>
      <point x="3323" y="-209" type="line" smooth="yes"/>
      <point x="3323" y="-97"/>
      <point x="3279" y="12"/>
      <point x="3195" y="84" type="curve"/>
      <point x="2933" y="30" type="line"/>
      <point x="3007" y="-31"/>
      <point x="3043" y="-108"/>
      <point x="3043" y="-190" type="curve" smooth="yes"/>
      <point x="3043" y="-199" type="line" smooth="yes"/>
      <point x="3043" y="-302"/>
      <point x="2995" y="-356"/>
      <point x="2904" y="-356" type="curve" smooth="yes"/>
      <point x="2819" y="-356"/>
      <point x="2775" y="-311"/>
      <point x="2775" y="-224" type="curve" smooth="yes"/>
      <point x="2775" y="-162" type="line"/>
      <point x="2632" y="-162" type="line"/>
      <point x="2619" y="-410" type="line"/>
      <point x="2640" y="-410" type="line"/>
      <point x="2656" y="-505"/>
      <point x="2752" y="-583"/>
    </contour>
    <contour>
      <point x="2386" y="287" type="line"/>
      <point x="2036" y="0" type="line"/>
      <point x="3201" y="0" type="line"/>
      <point x="3201" y="287" type="line"/>
    </contour>
    <contour>
      <point x="2880" y="1137" type="line"/>
      <point x="2880" y="0" type="line"/>
      <point x="3253" y="0" type="line"/>
      <point x="3253" y="1137" type="line"/>
    </contour>
    <contour>
      <point x="2775" y="-206" type="line"/>
      <point x="2775" y="65" type="line"/>
      <point x="2500" y="65" type="line"/>
      <point x="2500" y="-216" type="line"/>
    </contour>
    <contour>
      <point x="1317" y="4" type="line"/>
      <point x="1689" y="4" type="line"/>
      <point x="1689" y="549" type="line"/>
      <point x="1317" y="532" type="line"/>
    </contour>
    <contour>
      <point x="872" y="1184" type="curve" smooth="yes"/>
      <point x="356" y="1184"/>
      <point x="85" y="942"/>
      <point x="85" y="498" type="curve" smooth="yes"/>
      <point x="85" y="477" type="line" smooth="yes"/>
      <point x="85" y="143"/>
      <point x="270" y="-39"/>
      <point x="624" y="-39" type="curve" smooth="yes"/>
      <point x="960" y="-39"/>
      <point x="1134" y="97"/>
      <point x="1134" y="361" type="curve" smooth="yes"/>
      <point x="1134" y="370" type="line" smooth="yes"/>
      <point x="1134" y="609"/>
      <point x="1004" y="734"/>
      <point x="789" y="734" type="curve" smooth="yes"/>
      <point x="597" y="734"/>
      <point x="479" y="650"/>
      <point x="442" y="488" type="curve"/>
      <point x="455" y="385" type="line"/>
      <point x="487" y="429"/>
      <point x="547" y="454"/>
      <point x="624" y="454" type="curve" smooth="yes"/>
      <point x="721" y="454"/>
      <point x="770" y="421"/>
      <point x="770" y="356" type="curve" smooth="yes"/>
      <point x="770" y="348" type="line" smooth="yes"/>
      <point x="770" y="283"/>
      <point x="717" y="246"/>
      <point x="624" y="246" type="curve" smooth="yes"/>
      <point x="513" y="246"/>
      <point x="456" y="296"/>
      <point x="456" y="398" type="curve" smooth="yes"/>
      <point x="456" y="414" type="line"/>
      <point x="456" y="500" type="line"/>
      <point x="435" y="500" type="line"/>
      <point x="435" y="505" type="line" smooth="yes"/>
      <point x="435" y="765"/>
      <point x="597" y="884"/>
      <point x="886" y="884" type="curve" smooth="yes"/>
      <point x="1168" y="884"/>
      <point x="1317" y="773"/>
      <point x="1317" y="551" type="curve" smooth="yes"/>
      <point x="1317" y="502" type="line"/>
      <point x="1500" y="502" type="line"/>
      <point x="1499" y="857" type="line"/>
      <point x="1450" y="1045"/>
      <point x="1261" y="1184"/>
    </contour>
  </outline>
</glyph>
<glyph name="CaCa.mlm" format="2">
  <advance width="2182"/>
  <outline>
    <component base="Ca.mlm"/>
    <contour>
      <point x="1715" y="266" type="line"/>
      <point x="1715" y="-524" type="line"/>
      <point x="2049" y="-524" type="line"/>
      <point x="2049" y="266" type="line"/>
    </contour>
    <contour>
      <point x="1178" y="-271" type="line"/>
      <point x="1363" y="-188"/>
      <point x="1444" y="-54"/>
      <point x="1444" y="107" type="curve"/>
      <point x="1081" y="56" type="line"/>
      <point x="1081" y="-71"/>
      <point x="910" y="-195"/>
      <point x="626" y="-264" type="curve"/>
      <point x="663" y="-524" type="line"/>
      <point x="2023" y="-524" type="line"/>
      <point x="2023" y="-271" type="line"/>
    </contour>
  </outline>
</glyph>
<glyph name="DaDha.mlm" format="2">
  <advance width="3214"/>
  <outline>
    <contour>
      <point x="2257" y="609" type="line"/>
      <point x="2257" y="1125" type="line"/>
      <point x="1884" y="1125" type="line"/>
      <point x="1884" y="609" type="line"/>
    </contour>
    <contour>
      <point x="1884" y="723" type="line"/>
      <point x="1884" y="544" type="line" smooth="yes"/>
      <point x="1884" y="364"/>
      <point x="1804" y="289"/>
      <point x="1644" y="289" type="curve" smooth="yes"/>
      <point x="1273" y="289" type="line"/>
      <point x="1078" y="0" type="line"/>
      <point x="1606" y="0" type="line" smooth="yes"/>
      <point x="1896" y="0"/>
      <point x="2036" y="122"/>
      <point x="2066" y="275" type="curve"/>
      <point x="2139" y="275" type="line"/>
      <point x="2139" y="711" type="line"/>
    </contour>
    <contour>
      <point x="896" y="1192" type="curve" smooth="yes"/>
      <point x="356" y="1192"/>
      <point x="96" y="965"/>
      <point x="96" y="503" type="curve" smooth="yes"/>
      <point x="96" y="482" type="line" smooth="yes"/>
      <point x="96" y="304"/>
      <point x="131" y="121"/>
      <point x="191" y="0" type="curve"/>
      <point x="566" y="0" type="line"/>
      <point x="506" y="165"/>
      <point x="475" y="315"/>
      <point x="475" y="480" type="curve" smooth="yes"/>
      <point x="475" y="495" type="line" smooth="yes"/>
      <point x="475" y="760"/>
      <point x="607" y="889"/>
      <point x="908" y="889" type="curve" smooth="yes"/>
      <point x="1112" y="889"/>
      <point x="1208" y="860"/>
      <point x="1208" y="799" type="curve" smooth="yes"/>
      <point x="1208" y="796" type="line" smooth="yes"/>
      <point x="1208" y="754"/>
      <point x="1165" y="733"/>
      <point x="1061" y="730" type="curve" smooth="yes"/>
      <point x="806" y="722" type="line"/>
      <point x="806" y="440" type="line"/>
      <point x="1058" y="431" type="line" smooth="yes"/>
      <point x="1178" y="427"/>
      <point x="1225" y="405"/>
      <point x="1225" y="356" type="curve"/>
      <point x="1225" y="354" type="line"/>
      <point x="1225" y="306"/>
      <point x="1183" y="283"/>
      <point x="1072" y="280" type="curve" smooth="yes"/>
      <point x="715" y="271" type="line"/>
      <point x="763" y="0" type="line"/>
      <point x="1269" y="0" type="line"/>
      <point x="1272" y="160" type="line"/>
      <point x="1494" y="180"/>
      <point x="1603" y="255"/>
      <point x="1605" y="373" type="curve"/>
      <point x="1605" y="375" type="line"/>
      <point x="1605" y="488"/>
      <point x="1533" y="564"/>
      <point x="1280" y="576" type="curve"/>
      <point x="1280" y="585" type="line"/>
      <point x="1488" y="602"/>
      <point x="1588" y="688"/>
      <point x="1588" y="836" type="curve" smooth="yes"/>
      <point x="1588" y="843" type="line" smooth="yes"/>
      <point x="1588" y="1076"/>
      <point x="1358" y="1192"/>
    </contour>
    <contour>
      <point x="2075" y="275" type="line"/>
      <point x="2105" y="99"/>
      <point x="2246" y="-40"/>
      <point x="2537" y="-40" type="curve" smooth="yes"/>
      <point x="2918" y="-40"/>
      <point x="3120" y="167"/>
      <point x="3120" y="588" type="curve" smooth="yes"/>
      <point x="3120" y="605" type="line" smooth="yes"/>
      <point x="3120" y="809"/>
      <point x="3058" y="1004"/>
      <point x="2937" y="1132" type="curve"/>
      <point x="2560" y="1132" type="line"/>
      <point x="2678" y="974"/>
      <point x="2741" y="801"/>
      <point x="2741" y="614" type="curve" smooth="yes"/>
      <point x="2741" y="597" type="line" smooth="yes"/>
      <point x="2741" y="388"/>
      <point x="2655" y="287"/>
      <point x="2488" y="287" type="curve" smooth="yes"/>
      <point x="2334" y="287"/>
      <point x="2257" y="372"/>
      <point x="2257" y="544" type="curve" smooth="yes"/>
      <point x="2257" y="723" type="line"/>
      <point x="2074" y="723" type="line"/>
    </contour>
  </outline>
</glyph>
<glyph name="DdaDda.mlm" format="2">
  <advance width="3001"/>
  <outline>
    <component base="Dda.mlm"/>
    <contour>
      <point x="1699" y="-583" type="curve" smooth="yes"/>
      <point x="1891" y="-583"/>
      <point x="1987" y="-505"/>
      <point x="2005" y="-410" type="curve"/>
      <point x="2014" y="-162" type="line"/>
      <point x="1871" y="-162" type="line"/>
      <point x="1871" y="-216" type="line" smooth="yes"/>
      <point x="1871" y="-306"/>
      <point x="1825" y="-354"/>
      <point x="1736" y="-354" type="curve" smooth="yes"/>
      <point x="1641" y="-354"/>
      <point x="1594" y="-309"/>
      <point x="1594" y="-220" type="curve" smooth="yes"/>
      <point x="1594" y="-208" type="line" smooth="yes"/>
      <point x="1594" y="18"/>
      <point x="1450" y="128"/>
      <point x="1167" y="128" type="curve" smooth="yes"/>
      <point x="899" y="128"/>
      <point x="734" y="4"/>
      <point x="734" y="-252" type="curve" smooth="yes"/>
      <point x="734" y="-264" type="line" smooth="yes"/>
      <point x="734" y="-376"/>
      <point x="769" y="-487"/>
      <point x="834" y="-560" type="curve"/>
      <point x="1128" y="-560" type="line"/>
      <point x="1058" y="-465"/>
      <point x="1015" y="-367"/>
      <point x="1015" y="-267" type="curve" smooth="yes"/>
      <point x="1015" y="-258" type="line" smooth="yes"/>
      <point x="1015" y="-144"/>
      <point x="1065" y="-90"/>
      <point x="1170" y="-90" type="curve" smooth="yes"/>
      <point x="1269" y="-90"/>
      <point x="1318" y="-139"/>
      <point x="1318" y="-243" type="curve" smooth="yes"/>
      <point x="1318" y="-250" type="line" smooth="yes"/>
      <point x="1318" y="-472"/>
      <point x="1447" y="-583"/>
    </contour>
    <contour>
      <point x="2146" y="-206" type="line"/>
      <point x="2146" y="65" type="line"/>
      <point x="1871" y="65" type="line"/>
      <point x="1871" y="-209" type="line"/>
    </contour>
    <contour>
      <point x="2003" y="-162" type="line"/>
      <point x="1994" y="-410" type="line"/>
      <point x="2011" y="-410" type="line"/>
      <point x="2029" y="-505"/>
      <point x="2131" y="-583"/>
      <point x="2327" y="-583" type="curve" smooth="yes"/>
      <point x="2597" y="-583"/>
      <point x="2742" y="-458"/>
      <point x="2742" y="-211" type="curve" smooth="yes"/>
      <point x="2742" y="-200" type="line" smooth="yes"/>
      <point x="2742" y="-87"/>
      <point x="2701" y="26"/>
      <point x="2621" y="99" type="curve"/>
      <point x="2357" y="37" type="line"/>
      <point x="2427" y="-24"/>
      <point x="2460" y="-101"/>
      <point x="2460" y="-183" type="curve" smooth="yes"/>
      <point x="2460" y="-191" type="line" smooth="yes"/>
      <point x="2460" y="-298"/>
      <point x="2406" y="-354"/>
      <point x="2301" y="-354" type="curve" smooth="yes"/>
      <point x="2200" y="-354"/>
      <point x="2146" y="-306"/>
      <point x="2146" y="-216" type="curve" smooth="yes"/>
      <point x="2146" y="-162" type="line"/>
    </contour>
  </outline>
</glyph>
<glyph name="GaDa.mlm" format="2">
  <advance width="2398"/>
  <outline>
    <contour>
      <point x="1630" y="1192" type="curve" smooth="yes"/>
      <point x="1138" y="1192"/>
      <point x="902" y="1020"/>
      <point x="902" y="665" type="curve" smooth="yes"/>
      <point x="902" y="598"/>
      <point x="902" y="558"/>
      <point x="902" y="493" type="curve" smooth="yes"/>
      <point x="902" y="352"/>
      <point x="837" y="282"/>
      <point x="703" y="282" type="curve" smooth="yes"/>
      <point x="551" y="282"/>
      <point x="472" y="377"/>
      <point x="472" y="572" type="curve" smooth="yes"/>
      <point x="472" y="590" type="line" smooth="yes"/>
      <point x="472" y="787"/>
      <point x="540" y="966"/>
      <point x="671" y="1133" type="curve"/>
      <point x="296" y="1133" type="line"/>
      <point x="163" y="1001"/>
      <point x="93" y="796"/>
      <point x="93" y="581" type="curve" smooth="yes"/>
      <point x="93" y="563" type="line" smooth="yes"/>
      <point x="93" y="160"/>
      <point x="303" y="-40"/>
      <point x="703" y="-40" type="curve" smooth="yes"/>
      <point x="1083" y="-40"/>
      <point x="1275" y="130"/>
      <point x="1275" y="466" type="curve" smooth="yes"/>
      <point x="1275" y="528"/>
      <point x="1275" y="568"/>
      <point x="1275" y="628" type="curve" smooth="yes"/>
      <point x="1275" y="805"/>
      <point x="1388" y="889"/>
      <point x="1640" y="889" type="curve" smooth="yes"/>
      <point x="1826" y="889"/>
      <point x="1913" y="859"/>
      <point x="1913" y="796" type="curve" smooth="yes"/>
      <point x="1913" y="792" type="line" smooth="yes"/>
      <point x="1913" y="748"/>
      <point x="1871" y="727"/>
      <point x="1767" y="723" type="curve" smooth="yes"/>
      <point x="1534" y="715" type="line"/>
      <point x="1534" y="433" type="line"/>
      <point x="1764" y="424" type="line" smooth="yes"/>
      <point x="1884" y="419"/>
      <point x="1931" y="396"/>
      <point x="1931" y="345" type="curve" smooth="yes"/>
      <point x="1931" y="340" type="line" smooth="yes"/>
      <point x="1931" y="285"/>
      <point x="1869" y="257"/>
      <point x="1744" y="257" type="curve" smooth="yes"/>
      <point x="1622" y="257"/>
      <point x="1544" y="264"/>
      <point x="1434" y="292" type="curve"/>
      <point x="1479" y="2" type="line"/>
      <point x="1578" y="-27"/>
      <point x="1676" y="-37"/>
      <point x="1802" y="-37" type="curve" smooth="yes"/>
      <point x="2145" y="-37"/>
      <point x="2311" y="71"/>
      <point x="2311" y="287" type="curve" smooth="yes"/>
      <point x="2311" y="296" type="line" smooth="yes"/>
      <point x="2311" y="449"/>
      <point x="2203" y="543"/>
      <point x="1985" y="569" type="curve"/>
      <point x="1985" y="578" type="line"/>
      <point x="2193" y="596"/>
      <point x="2293" y="682"/>
      <point x="2293" y="832" type="curve" smooth="yes"/>
      <point x="2293" y="840" type="line" smooth="yes"/>
      <point x="2293" y="1076"/>
      <point x="2073" y="1192"/>
    </contour>
  </outline>
</glyph>
<glyph name="GaDaDha.mlm" format="2">
  <advance width="3923"/>
  <outline>
    <contour>
      <point x="2966" y="609" type="line"/>
      <point x="2966" y="1125" type="line"/>
      <point x="2593" y="1125" type="line"/>
      <point x="2593" y="609" type="line"/>
    </contour>
    <contour>
      <point x="2593" y="723" type="line"/>
      <point x="2593" y="544" type="line" smooth="yes"/>
      <point x="2593" y="364"/>
      <point x="2513" y="289"/>
      <point x="2353" y="289" type="curve" smooth="yes"/>
      <point x="1999" y="289" type="line"/>
      <point x="1786" y="0" type="line"/>
      <point x="2314" y="0" type="line" smooth="yes"/>
      <point x="2604" y="0"/>
      <point x="2745" y="122"/>
      <point x="2775" y="275" type="curve"/>
      <point x="2848" y="275" type="line"/>
      <point x="2848" y="711" type="line"/>
    </contour>
    <contour>
      <point x="2319" y="375" type="line"/>
      <point x="2319" y="488"/>
      <point x="2245" y="564"/>
      <point x="1989" y="576" type="curve"/>
      <point x="1989" y="585" type="line"/>
      <point x="2197" y="602"/>
      <point x="2297" y="688"/>
      <point x="2297" y="836" type="curve" smooth="yes"/>
      <point x="2297" y="843" type="line" smooth="yes"/>
      <point x="2297" y="1076"/>
      <point x="2077" y="1192"/>
      <point x="1634" y="1192" type="curve" smooth="yes"/>
      <point x="1142" y="1192"/>
      <point x="906" y="1020"/>
      <point x="906" y="665" type="curve" smooth="yes"/>
      <point x="906" y="598"/>
      <point x="906" y="558"/>
      <point x="906" y="493" type="curve" smooth="yes"/>
      <point x="906" y="352"/>
      <point x="840" y="282"/>
      <point x="705" y="282" type="curve" smooth="yes"/>
      <point x="552" y="282"/>
      <point x="472" y="377"/>
      <point x="472" y="572" type="curve" smooth="yes"/>
      <point x="472" y="590" type="line" smooth="yes"/>
      <point x="472" y="787"/>
      <point x="540" y="966"/>
      <point x="671" y="1133" type="curve"/>
      <point x="296" y="1133" type="line"/>
      <point x="163" y="1001"/>
      <point x="93" y="796"/>
      <point x="93" y="581" type="curve" smooth="yes"/>
      <point x="93" y="563" type="line" smooth="yes"/>
      <point x="93" y="160"/>
      <point x="304" y="-40"/>
      <point x="705" y="-40" type="curve" smooth="yes"/>
      <point x="1086" y="-40"/>
      <point x="1279" y="130"/>
      <point x="1279" y="466" type="curve" smooth="yes"/>
      <point x="1279" y="528"/>
      <point x="1279" y="568"/>
      <point x="1279" y="628" type="curve" smooth="yes"/>
      <point x="1279" y="805"/>
      <point x="1392" y="889"/>
      <point x="1644" y="889" type="curve" smooth="yes"/>
      <point x="1830" y="889"/>
      <point x="1917" y="860"/>
      <point x="1917" y="799" type="curve" smooth="yes"/>
      <point x="1917" y="796" type="line" smooth="yes"/>
      <point x="1917" y="754"/>
      <point x="1875" y="734"/>
      <point x="1771" y="730" type="curve" smooth="yes"/>
      <point x="1538" y="722" type="line"/>
      <point x="1538" y="440" type="line"/>
      <point x="1768" y="431" type="line" smooth="yes"/>
      <point x="1888" y="426"/>
      <point x="1935" y="405"/>
      <point x="1935" y="356" type="curve"/>
      <point x="1935" y="354" type="line"/>
      <point x="1935" y="306"/>
      <point x="1893" y="283"/>
      <point x="1782" y="280" type="curve" smooth="yes"/>
      <point x="1438" y="271" type="line"/>
      <point x="1486" y="0" type="line"/>
      <point x="1982" y="0" type="line"/>
      <point x="1986" y="160" type="line"/>
      <point x="2208" y="180"/>
      <point x="2317" y="255"/>
      <point x="2319" y="373" type="curve"/>
    </contour>
    <contour>
      <point x="2784" y="275" type="line"/>
      <point x="2814" y="99"/>
      <point x="2955" y="-40"/>
      <point x="3246" y="-40" type="curve" smooth="yes"/>
      <point x="3627" y="-40"/>
      <point x="3829" y="167"/>
      <point x="3829" y="588" type="curve" smooth="yes"/>
      <point x="3829" y="605" type="line" smooth="yes"/>
      <point x="3829" y="809"/>
      <point x="3767" y="1004"/>
      <point x="3646" y="1132" type="curve"/>
      <point x="3269" y="1132" type="line"/>
      <point x="3387" y="974"/>
      <point x="3450" y="801"/>
      <point x="3450" y="614" type="curve" smooth="yes"/>
      <point x="3450" y="597" type="line" smooth="yes"/>
      <point x="3450" y="388"/>
      <point x="3364" y="287"/>
      <point x="3197" y="287" type="curve" smooth="yes"/>
      <point x="3043" y="287"/>
      <point x="2966" y="372"/>
      <point x="2966" y="544" type="curve" smooth="yes"/>
      <point x="2966" y="723" type="line"/>
      <point x="2783" y="723" type="line"/>
    </contour>
  </outline>
</glyph>
<glyph name="GaNa.mlm" format="2">
  <advance width="3040"/>
  <outline>
    <contour>
      <point x="2072" y="532" type="line"/>
      <point x="1699" y="532" type="line"/>
      <point x="1699" y="4" type="line"/>
      <point x="2072" y="4" type="line"/>
    </contour>
    <contour>
      <point x="1443" y="1184" type="curve" smooth="yes"/>
      <point x="1087" y="1184"/>
      <point x="906" y="1009"/>
      <point x="906" y="664" type="curve" smooth="yes"/>
      <point x="906" y="601"/>
      <point x="906" y="556"/>
      <point x="906" y="493" type="curve" smooth="yes"/>
      <point x="906" y="352"/>
      <point x="838" y="282"/>
      <point x="703" y="282" type="curve" smooth="yes"/>
      <point x="550" y="282"/>
      <point x="472" y="377"/>
      <point x="472" y="572" type="curve" smooth="yes"/>
      <point x="472" y="590" type="line" smooth="yes"/>
      <point x="472" y="787"/>
      <point x="540" y="966"/>
      <point x="671" y="1133" type="curve"/>
      <point x="296" y="1133" type="line"/>
      <point x="163" y="1001"/>
      <point x="93" y="796"/>
      <point x="93" y="581" type="curve" smooth="yes"/>
      <point x="93" y="563" type="line" smooth="yes"/>
      <point x="93" y="160"/>
      <point x="302" y="-40"/>
      <point x="703" y="-40" type="curve" smooth="yes"/>
      <point x="1084" y="-40"/>
      <point x="1279" y="130"/>
      <point x="1279" y="466" type="curve" smooth="yes"/>
      <point x="1279" y="528"/>
      <point x="1279" y="570"/>
      <point x="1279" y="632" type="curve" smooth="yes"/>
      <point x="1279" y="783"/>
      <point x="1350" y="859"/>
      <point x="1491" y="859" type="curve" smooth="yes"/>
      <point x="1632" y="859"/>
      <point x="1699" y="783"/>
      <point x="1699" y="632" type="curve" smooth="yes"/>
      <point x="1699" y="408" type="line"/>
      <point x="1889" y="410" type="line"/>
      <point x="1881" y="864" type="line"/>
      <point x="1853" y="1045"/>
      <point x="1720" y="1184"/>
    </contour>
    <contour>
      <point x="2072" y="410" type="line"/>
      <point x="2072" y="598" type="line" smooth="yes"/>
      <point x="2072" y="774"/>
      <point x="2147" y="859"/>
      <point x="2306" y="859" type="curve" smooth="yes"/>
      <point x="2481" y="859"/>
      <point x="2567" y="757"/>
      <point x="2567" y="542" type="curve" smooth="yes"/>
      <point x="2567" y="524" type="line" smooth="yes"/>
      <point x="2567" y="334"/>
      <point x="2510" y="162"/>
      <point x="2403" y="0" type="curve"/>
      <point x="2788" y="0" type="line"/>
      <point x="2891" y="127"/>
      <point x="2946" y="320"/>
      <point x="2946" y="524" type="curve" smooth="yes"/>
      <point x="2946" y="542" type="line" smooth="yes"/>
      <point x="2946" y="971"/>
      <point x="2740" y="1184"/>
      <point x="2348" y="1184" type="curve" smooth="yes"/>
      <point x="2060" y="1184"/>
      <point x="1920" y="1045"/>
      <point x="1890" y="864" type="curve"/>
      <point x="1817" y="864" type="line"/>
      <point x="1817" y="422" type="line"/>
    </contour>
  </outline>
</glyph>
<glyph name="JaJa_Alt.mlm" format="2">
  <advance width="4660"/>
  <outline>
    <contour>
      <point x="2680" y="371" type="line"/>
      <point x="2680" y="356" type="line"/>
      <point x="2525" y="329"/>
      <point x="2458" y="231"/>
      <point x="2458" y="99" type="curve"/>
      <point x="2458" y="97" type="line"/>
      <point x="2458" y="-96"/>
      <point x="2592" y="-194"/>
      <point x="2870" y="-194" type="curve" smooth="yes"/>
      <point x="3016" y="-194"/>
      <point x="3182" y="-143"/>
      <point x="3315" y="-88" type="curve" smooth="yes"/>
      <point x="3791" y="109" type="line" smooth="yes"/>
      <point x="4011" y="200"/>
      <point x="4073" y="218"/>
      <point x="4136" y="218" type="curve" smooth="yes"/>
      <point x="4192" y="218"/>
      <point x="4222" y="195"/>
      <point x="4222" y="153" type="curve"/>
      <point x="4222" y="151" type="line"/>
      <point x="4222" y="107"/>
      <point x="4186" y="84"/>
      <point x="4117" y="84" type="curve" smooth="yes"/>
      <point x="3973" y="84"/>
      <point x="3832" y="120"/>
      <point x="3730" y="153" type="curve"/>
      <point x="3774" y="-130" type="line"/>
      <point x="3888" y="-174"/>
      <point x="4012" y="-194"/>
      <point x="4148" y="-194" type="curve" smooth="yes"/>
      <point x="4439" y="-194"/>
      <point x="4575" y="-88"/>
      <point x="4575" y="116" type="curve" smooth="yes"/>
      <point x="4575" y="120" type="line" smooth="yes"/>
      <point x="4575" y="254"/>
      <point x="4518" y="347"/>
      <point x="4357" y="380" type="curve" smooth="yes"/>
      <point x="4298" y="392"/>
      <point x="4228" y="407"/>
      <point x="4143" y="408" type="curve"/>
      <point x="3526" y="283" type="line"/>
      <point x="3533" y="245" type="line"/>
      <point x="3500" y="240"/>
      <point x="3461" y="228"/>
      <point x="3429" y="218" type="curve" smooth="yes"/>
      <point x="3157" y="134" type="line" smooth="yes"/>
      <point x="3093" y="114"/>
      <point x="2992" y="88"/>
      <point x="2917" y="88" type="curve" smooth="yes"/>
      <point x="2848" y="88"/>
      <point x="2817" y="112"/>
      <point x="2817" y="155" type="curve"/>
      <point x="2817" y="157" type="line"/>
      <point x="2817" y="198"/>
      <point x="2846" y="224"/>
      <point x="2917" y="224" type="curve" smooth="yes"/>
      <point x="3016" y="224" type="line" smooth="yes"/>
      <point x="3195" y="224"/>
      <point x="3426" y="241"/>
      <point x="3621" y="268" type="curve" smooth="yes"/>
      <point x="4357" y="368" type="line"/>
      <point x="4357" y="387" type="line"/>
      <point x="4521" y="433"/>
      <point x="4575" y="556"/>
      <point x="4575" y="704" type="curve" smooth="yes"/>
      <point x="4575" y="708" type="line" smooth="yes"/>
      <point x="4575" y="1021"/>
      <point x="4392" y="1184"/>
      <point x="4055" y="1184" type="curve" smooth="yes"/>
      <point x="3809" y="1184"/>
      <point x="3656" y="1072"/>
      <point x="3631" y="891" type="curve"/>
      <point x="3622" y="891" type="line"/>
      <point x="3574" y="1083"/>
      <point x="3391" y="1184"/>
      <point x="3088" y="1184" type="curve" smooth="yes"/>
      <point x="2652" y="1184"/>
      <point x="2433" y="1006"/>
      <point x="2433" y="700" type="curve" smooth="yes"/>
      <point x="2433" y="683" type="line" smooth="yes"/>
      <point x="2433" y="510"/>
      <point x="2511" y="402"/>
      <point x="2680" y="363" type="curve" smooth="yes"/>
      <point x="2722" y="353"/>
      <point x="2769" y="340"/>
      <point x="2824" y="340" type="curve" smooth="yes"/>
      <point x="3118" y="340"/>
      <point x="3290" y="443"/>
      <point x="3290" y="611" type="curve" smooth="yes"/>
      <point x="3290" y="620" type="line" smooth="yes"/>
      <point x="3290" y="770"/>
      <point x="3198" y="855"/>
      <point x="3016" y="855" type="curve" smooth="yes"/>
      <point x="2867" y="855"/>
      <point x="2776" y="788"/>
      <point x="2757" y="692" type="curve"/>
      <point x="2769" y="605" type="line"/>
      <point x="2788" y="633"/>
      <point x="2823" y="649"/>
      <point x="2871" y="649" type="curve" smooth="yes"/>
      <point x="2924" y="649"/>
      <point x="2958" y="625"/>
      <point x="2958" y="584" type="curve" smooth="yes"/>
      <point x="2958" y="579" type="line" smooth="yes"/>
      <point x="2958" y="537"/>
      <point x="2923" y="514"/>
      <point x="2870" y="514" type="curve" smooth="yes"/>
      <point x="2803" y="514"/>
      <point x="2771" y="552"/>
      <point x="2771" y="612" type="curve"/>
      <point x="2775" y="655" type="line"/>
      <point x="2769" y="699" type="line"/>
      <point x="2748" y="699" type="line"/>
      <point x="2748" y="704" type="line" smooth="yes"/>
      <point x="2748" y="856"/>
      <point x="2867" y="924"/>
      <point x="3093" y="924" type="curve" smooth="yes"/>
      <point x="3321" y="924"/>
      <point x="3427" y="829"/>
      <point x="3443" y="634" type="curve" smooth="yes"/>
      <point x="3452" y="523" type="line"/>
      <point x="3809" y="523" type="line"/>
      <point x="3816" y="681" type="line" smooth="yes"/>
      <point x="3822" y="809"/>
      <point x="3874" y="876"/>
      <point x="4004" y="876" type="curve" smooth="yes"/>
      <point x="4136" y="876"/>
      <point x="4198" y="810"/>
      <point x="4198" y="667" type="curve" smooth="yes"/>
      <point x="4198" y="664" type="line" smooth="yes"/>
      <point x="4198" y="534"/>
      <point x="4127" y="454"/>
      <point x="3981" y="454" type="curve" smooth="yes"/>
      <point x="3172" y="454" type="line"/>
    </contour>
    <contour>
      <point x="1632" y="104" type="curve" smooth="yes"/>
      <point x="519" y="104" type="line" smooth="yes"/>
      <point x="465" y="104"/>
      <point x="444" y="124"/>
      <point x="444" y="155" type="curve"/>
      <point x="444" y="157" type="line"/>
      <point x="444" y="188"/>
      <point x="465" y="208"/>
      <point x="519" y="208" type="curve" smooth="yes"/>
      <point x="1639" y="208" type="line" smooth="yes"/>
      <point x="2012" y="208"/>
      <point x="2229" y="352"/>
      <point x="2229" y="686" type="curve" smooth="yes"/>
      <point x="2229" y="690" type="line" smooth="yes"/>
      <point x="2229" y="1015"/>
      <point x="2046" y="1184"/>
      <point x="1709" y="1184" type="curve" smooth="yes"/>
      <point x="1463" y="1184"/>
      <point x="1310" y="1072"/>
      <point x="1285" y="891" type="curve"/>
      <point x="1276" y="891" type="line"/>
      <point x="1228" y="1083"/>
      <point x="1045" y="1184"/>
      <point x="741" y="1184" type="curve" smooth="yes"/>
      <point x="305" y="1184"/>
      <point x="86" y="1006"/>
      <point x="86" y="700" type="curve" smooth="yes"/>
      <point x="86" y="683" type="line" smooth="yes"/>
      <point x="86" y="510"/>
      <point x="158" y="401"/>
      <point x="316" y="363" type="curve" smooth="yes"/>
      <point x="363" y="352"/>
      <point x="416" y="340"/>
      <point x="477" y="340" type="curve" smooth="yes"/>
      <point x="771" y="340"/>
      <point x="944" y="443"/>
      <point x="944" y="611" type="curve" smooth="yes"/>
      <point x="944" y="620" type="line" smooth="yes"/>
      <point x="944" y="770"/>
      <point x="851" y="855"/>
      <point x="669" y="855" type="curve" smooth="yes"/>
      <point x="520" y="855"/>
      <point x="429" y="788"/>
      <point x="410" y="692" type="curve"/>
      <point x="423" y="605" type="line"/>
      <point x="442" y="633"/>
      <point x="477" y="649"/>
      <point x="525" y="649" type="curve" smooth="yes"/>
      <point x="578" y="649"/>
      <point x="611" y="625"/>
      <point x="611" y="584" type="curve" smooth="yes"/>
      <point x="611" y="579" type="line" smooth="yes"/>
      <point x="611" y="537"/>
      <point x="576" y="514"/>
      <point x="523" y="514" type="curve" smooth="yes"/>
      <point x="456" y="514"/>
      <point x="424" y="552"/>
      <point x="424" y="612" type="curve"/>
      <point x="428" y="655" type="line"/>
      <point x="423" y="699" type="line"/>
      <point x="401" y="699" type="line"/>
      <point x="401" y="704" type="line" smooth="yes"/>
      <point x="401" y="856"/>
      <point x="520" y="924"/>
      <point x="746" y="924" type="curve" smooth="yes"/>
      <point x="974" y="924"/>
      <point x="1082" y="829"/>
      <point x="1097" y="634" type="curve" smooth="yes"/>
      <point x="1105" y="523" type="line"/>
      <point x="1463" y="523" type="line"/>
      <point x="1470" y="681" type="line" smooth="yes"/>
      <point x="1476" y="809"/>
      <point x="1528" y="876"/>
      <point x="1658" y="876" type="curve" smooth="yes"/>
      <point x="1790" y="876"/>
      <point x="1852" y="810"/>
      <point x="1852" y="667" type="curve" smooth="yes"/>
      <point x="1852" y="664" type="line" smooth="yes"/>
      <point x="1852" y="534"/>
      <point x="1781" y="454"/>
      <point x="1635" y="454" type="curve" smooth="yes"/>
      <point x="826" y="454" type="line"/>
      <point x="316" y="371" type="line"/>
      <point x="316" y="356" type="line"/>
      <point x="155" y="335"/>
      <point x="85" y="234"/>
      <point x="85" y="107" type="curve"/>
      <point x="85" y="106" type="line"/>
      <point x="85" y="-59"/>
      <point x="194" y="-147"/>
      <point x="474" y="-147" type="curve" smooth="yes"/>
      <point x="1690" y="-147" type="line" smooth="yes"/>
      <point x="2015" y="-147"/>
      <point x="2215" y="-62"/>
      <point x="2398" y="184" type="curve" smooth="yes"/>
      <point x="2633" y="501" type="line"/>
      <point x="2441" y="684" type="line"/>
      <point x="2183" y="342" type="line" smooth="yes"/>
      <point x="2039" y="152"/>
      <point x="1896" y="104"/>
    </contour>
  </outline>
</glyph>
